<svg width="54" height="54" viewBox="0 0 54 54" fill="none" xmlns="http://www.w3.org/2000/svg">
<g id="Frame">
<g id="invoice">
<path id="Vector" d="M49.5 20.25H42.75V4.5C42.75 4.08215 42.6336 3.67255 42.414 3.31711C42.1943 2.96166 41.88 2.67441 41.5062 2.48754C41.1325 2.30067 40.7141 2.22157 40.2979 2.25909C39.8818 2.29662 39.4843 2.44929 39.15 2.7L34.4925 6.1875C27.4725 0.945001 29.475 0.945001 22.5 6.1875C15.5025 0.945001 17.4825 0.945001 10.485 6.1875L5.85 2.7C5.51572 2.44929 5.11823 2.29662 4.70206 2.25909C4.2859 2.22157 3.86751 2.30067 3.49377 2.48754C3.12003 2.67441 2.80571 2.96166 2.58604 3.31711C2.36636 3.67255 2.25 4.08215 2.25 4.5V45C2.25 46.7902 2.96116 48.5071 4.22703 49.773C5.4929 51.0388 7.20979 51.75 9 51.75H45C46.7902 51.75 48.5071 51.0388 49.773 49.773C51.0388 48.5071 51.75 46.7902 51.75 45V22.5C51.75 21.9033 51.5129 21.331 51.091 20.909C50.669 20.4871 50.0967 20.25 49.5 20.25ZM9 47.25C8.40326 47.25 7.83097 47.0129 7.40901 46.591C6.98705 46.169 6.75 45.5967 6.75 45V9C11.25 12.3075 9.9225 12.24 16.4925 7.3125C23.4675 12.555 21.4875 12.555 28.485 7.3125C35.235 12.3525 33.93 12.24 38.25 9C38.25 46.6875 38.07 45.675 38.6325 47.25H9ZM47.25 45C47.25 45.5967 47.0129 46.169 46.591 46.591C46.169 47.0129 45.5967 47.25 45 47.25C44.4033 47.25 43.831 47.0129 43.409 46.591C42.9871 46.169 42.75 45.5967 42.75 45V24.75H47.25V45Z" fill="#F7F7F7"/>
<path id="Vector_2" d="M13.5 22.5H20.25C20.8467 22.5 21.419 22.2629 21.841 21.841C22.2629 21.419 22.5 20.8467 22.5 20.25C22.5 19.6533 22.2629 19.081 21.841 18.659C21.419 18.2371 20.8467 18 20.25 18H13.5C12.9033 18 12.331 18.2371 11.909 18.659C11.4871 19.081 11.25 19.6533 11.25 20.25C11.25 20.8467 11.4871 21.419 11.909 21.841C12.331 22.2629 12.9033 22.5 13.5 22.5Z" fill="#F7F7F7"/>
<path id="Vector_3" d="M31.5 27H13.5C12.9033 27 12.331 27.2371 11.909 27.659C11.4871 28.081 11.25 28.6533 11.25 29.25C11.25 29.8467 11.4871 30.419 11.909 30.841C12.331 31.2629 12.9033 31.5 13.5 31.5H31.5C32.0967 31.5 32.669 31.2629 33.091 30.841C33.5129 30.419 33.75 29.8467 33.75 29.25C33.75 28.6533 33.5129 28.081 33.091 27.659C32.669 27.2371 32.0967 27 31.5 27Z" fill="#F7F7F7"/>
<path id="Vector_4" d="M31.5 36H13.5C12.9033 36 12.331 36.2371 11.909 36.659C11.4871 37.081 11.25 37.6533 11.25 38.25C11.25 38.8467 11.4871 39.419 11.909 39.841C12.331 40.2629 12.9033 40.5 13.5 40.5H31.5C32.0967 40.5 32.669 40.2629 33.091 39.841C33.5129 39.419 33.75 38.8467 33.75 38.25C33.75 37.6533 33.5129 37.081 33.091 36.659C32.669 36.2371 32.0967 36 31.5 36Z" fill="#F7F7F7"/>
</g>
</g>
</svg>
