<svg width="56" height="56" viewBox="0 0 56 56" fill="none" xmlns="http://www.w3.org/2000/svg">
<path d="M51.1358 23.3723H4.86133M4.86133 19.2076L4.86133 36.7919C4.86133 39.3836 4.86133 40.6794 5.36569 41.6692C5.80934 42.5399 6.51725 43.2479 7.38796 43.6915C8.37783 44.1959 9.67363 44.1959 12.2652 44.1959L43.7319 44.1959C46.3235 44.1959 47.6193 44.1959 48.6092 43.6915C49.4799 43.2479 50.1878 42.5399 50.6315 41.6692C51.1358 40.6794 51.1358 39.3836 51.1358 36.7919V19.2076C51.1358 16.616 51.1358 15.3202 50.6315 14.3303C50.1878 13.4596 49.4799 12.7517 48.6092 12.3081C47.6193 11.8037 46.3235 11.8037 43.7319 11.8037L12.2653 11.8037C9.67364 11.8037 8.37783 11.8037 7.38796 12.3081C6.51725 12.7517 5.80934 13.4596 5.36569 14.3303C4.86133 15.3202 4.86133 16.616 4.86133 19.2076Z" stroke="black" stroke-width="4" stroke-linecap="round" stroke-linejoin="round"/>
</svg>
