<svg width="56" height="56" viewBox="0 0 56 56" fill="none" xmlns="http://www.w3.org/2000/svg">
<path d="M7.17578 18.2822C7.17578 14.3947 7.17578 12.451 7.93232 10.9662C8.5978 9.66015 9.65966 8.59829 10.9657 7.93281C12.4505 7.17627 14.3942 7.17627 18.2817 7.17627H37.717C41.6044 7.17627 43.5481 7.17627 45.0329 7.93281C46.339 8.59829 47.4008 9.66015 48.0663 10.9662C48.8228 12.451 48.8228 14.3947 48.8228 18.2822V30.7763C48.8228 34.6637 48.8228 36.6074 48.0663 38.0922C47.4008 39.3983 46.339 40.4601 45.0329 41.1256C43.5481 41.8822 41.6044 41.8822 37.717 41.8822H31.895C30.4512 41.8822 29.7292 41.8822 29.0387 42.0239C28.426 42.1496 27.8332 42.3576 27.2762 42.6421C26.6485 42.9628 26.0847 43.4138 24.9573 44.3158L19.438 48.7312C18.4753 49.5014 17.9939 49.8865 17.5888 49.8869C17.2365 49.8873 16.9032 49.7271 16.6834 49.4518C16.4307 49.1352 16.4307 48.5187 16.4307 47.2859V41.8822C14.279 41.8822 13.2031 41.8822 12.3204 41.6456C9.9251 41.0038 8.05413 39.1328 7.4123 36.7375C7.17578 35.8548 7.17578 34.7789 7.17578 32.6272V18.2822Z" stroke="black" stroke-width="4" stroke-linecap="round" stroke-linejoin="round"/>
</svg>
