<svg width="56" height="56" viewBox="0 0 56 56" fill="none" xmlns="http://www.w3.org/2000/svg">
<path d="M21.055 26.8426L25.6824 31.47L36.0942 21.0583M46.5059 27.9995C46.5059 39.3562 34.1183 47.6161 29.6111 50.2456C29.0989 50.5445 28.8427 50.6939 28.4813 50.7714C28.2008 50.8316 27.7915 50.8316 27.511 50.7714C27.1495 50.6939 26.8934 50.5445 26.3812 50.2456C21.8739 47.6161 9.48633 39.3562 9.48633 27.9995V16.9343C9.48633 15.0844 9.48633 14.1595 9.78887 13.3645C10.0561 12.6621 10.4904 12.0354 11.0542 11.5385C11.6925 10.9761 12.5585 10.6513 14.2906 10.0018L26.6963 5.34964C27.1773 5.16926 27.4178 5.07907 27.6652 5.04332C27.8847 5.0116 28.1076 5.0116 28.327 5.04332C28.5745 5.07907 28.815 5.16926 29.296 5.34964L41.7017 10.0018C43.4338 10.6513 44.2998 10.9761 44.938 11.5385C45.5018 12.0354 45.9361 12.6621 46.2034 13.3645C46.5059 14.1595 46.5059 15.0844 46.5059 16.9343V27.9995Z" stroke="black" stroke-width="4" stroke-linecap="round" stroke-linejoin="round"/>
</svg>
