<svg width="56" height="56" viewBox="0 0 56 56" fill="none" xmlns="http://www.w3.org/2000/svg">
<path d="M51.1358 21.0586H4.86133M32.626 40.7253L38.4103 34.941L32.626 29.1567M23.3711 29.1567L17.5868 34.941L23.3711 40.7253M4.86133 18.2822L4.86133 37.7174C4.86133 41.6049 4.86133 43.5486 5.61787 45.0334C6.28334 46.3394 7.34521 47.4013 8.65128 48.0668C10.1361 48.8233 12.0798 48.8233 15.9672 48.8233H40.03C43.9174 48.8233 45.8611 48.8233 47.3459 48.0668C48.652 47.4013 49.7138 46.3394 50.3793 45.0334C51.1358 43.5486 51.1358 41.6049 51.1358 37.7174V18.2822C51.1358 14.3947 51.1358 12.451 50.3793 10.9662C49.7138 9.66016 48.652 8.59829 47.3459 7.93282C45.8611 7.17627 43.9174 7.17627 40.03 7.17627L15.9672 7.17627C12.0798 7.17627 10.1361 7.17627 8.65128 7.93281C7.34521 8.59829 6.28335 9.66015 5.61787 10.9662C4.86133 12.451 4.86133 14.3947 4.86133 18.2822Z" stroke="black" stroke-width="4" stroke-linecap="round" stroke-linejoin="round"/>
</svg>
