<svg width="199" height="106" viewBox="0 0 199 106" fill="none" xmlns="http://www.w3.org/2000/svg">
<path d="M134.047 0.663006C135.774 1.3616 136.971 2.61729 136.58 4.44335C135.724 8.41824 131.215 11.8272 128.037 14.7277C119.577 22.4387 109.787 29.1681 101.724 37.1665C98.0819 40.7789 94.4673 44.3868 93.4684 49.1222C92.0833 49.467 90.1517 49.6793 88.739 49.3211C85.9411 48.6181 86.2225 48.2025 87.4201 46.6064C88.6121 45.0235 90.4222 43.2814 91.8625 41.7162C95.3392 37.9447 99.1746 34.3943 103.137 30.9456C111.089 24.0171 119.588 17.4866 127.038 10.2001C128.329 8.93555 130.095 7.3792 130.586 5.74768C130.923 4.62463 130.857 4.576 129.312 4.37261C127.976 4.19575 126.58 4.29744 125.266 4.53178C120.04 5.45586 114.858 7.73734 110.063 9.57666C104.881 11.5619 99.7982 13.7063 94.7984 15.9657C84.7601 20.5021 75.0584 25.5116 65.5278 30.7024C59.0821 34.2174 52.7082 37.8209 46.3508 41.4333C32.8358 49.1177 19.2435 56.6254 6.51215 65.1411C6.00445 65.4816 5.49122 65.8264 5.12699 66.2686C2.754 69.1293 12.1797 69.5581 14.2216 69.6687C33.8457 70.7387 78.342 63.8589 93.4629 70.7342C104.616 75.8012 88.154 85.9175 82.4699 88.9418C68.7176 96.2593 28.741 107.136 12.5991 105.898C9.55841 105.664 5.9327 104.779 3.85772 102.878C1.2695 100.508 2.96923 96.9933 5.67885 95.1318C6.12034 94.8312 6.71634 94.4288 7.32339 94.3846C9.48667 94.2343 8.47125 97.5415 8.23947 98.3905C7.68761 100.407 7.12472 101.565 10.1599 102.034C16.4622 102.998 22.803 102.219 29.0335 101.273C37.35 100.004 45.512 98.0721 53.4863 95.8039C64.2531 92.7354 75.4889 89.154 84.7822 83.7156C91.4762 79.785 96.4319 75.2043 85.2788 72.4277C64.9484 67.3695 16.269 78.6487 2.74848 71.3444C-5.52387 66.8743 7.14127 59.6054 11.5892 56.9084C27.3006 47.389 44.927 37.8253 61.4772 29.23C80.3507 19.4277 99.0974 9.00629 120.195 2.46254C123.291 1.50308 126.387 0.242968 129.748 0.0174739C131.177 -0.0753767 132.766 0.132432 134.058 0.658585L134.047 0.663006Z" fill="#007AFF"/>
<path d="M198.685 73.5333C198.426 73.7853 198.012 73.9754 197.636 74.2274C195.909 75.3859 194.325 76.6371 192.697 77.884C189.844 80.0726 185.369 83.3799 181.439 80.7093C175.397 76.6062 179.486 68.4928 166.65 73.7057C164.475 74.59 156.6 79.7012 155.949 79.7498C153.074 79.9532 153.372 77.4507 154.133 75.8413C145.546 76.3674 140.994 85.1263 132.032 83.6009C124.339 82.2878 129.372 76.3409 128.748 75.8413C119.984 76.1773 113.771 86.8197 104.637 82.9996C100.112 81.1072 102.684 76.699 104.577 73.9356C105.73 72.2511 110.283 66.6358 112.523 66.5474C114.3 66.4766 115.101 67.9799 116.337 68.7581C121.11 64.403 125.371 66.5474 125.696 71.8752L126.816 72.3174L132.07 71.6453C134.73 68.7448 137.649 63.7265 141.711 68.7493C142.881 68.8421 144.658 65.3624 148.609 66.7906C151.424 67.8075 149.928 72.1715 152.715 72.2687C153.129 72.282 157.218 71.747 157.445 71.6453C158.89 70.9688 161.114 66.344 163.338 66.1848C166.832 67.0205 164.194 69.0853 164.072 70.9777C164.519 71.3579 173.647 67.1885 176.373 67.5245C181.351 68.1391 181.103 79.1574 188.089 76.2967C190.175 75.4433 191.731 73.9975 193.663 72.9673C194.662 72.4323 195.727 71.9858 196.93 71.8443C198.023 71.7161 199.711 72.534 198.69 73.5333H198.685ZM113.837 70.9821C113.324 70.9158 113.147 70.9379 112.733 71.1943C111.646 71.8708 105.669 79.0247 106.668 79.8206C110.531 80.4396 116.392 77.7602 118.202 75.0985C120.161 72.2201 113.991 73.3078 113.831 70.9821H113.837ZM139.934 72.1715C139.581 71.9415 139.443 71.1501 138.952 70.9821H138.141C137.125 73.5377 133.555 75.7175 132.484 78.1802C131.215 81.1072 136.926 79.5155 138.709 78.7417C140.249 78.0741 145.386 74.6829 143.968 73.1575C142.776 72.4589 141.11 72.9275 139.94 72.1759L139.934 72.1715Z" fill="#007AFF"/>
</svg>
