<svg width="54" height="54" viewBox="0 0 54 54" fill="none" xmlns="http://www.w3.org/2000/svg">
<g id="Frame">
<path id="Vector" d="M22.3259 8.42666C25.4065 6.45186 29.3553 6.45186 32.4358 8.42666L51.9273 20.9212C52.4449 21.2531 52.7591 21.8247 52.7618 22.4396C52.7644 23.0546 52.4553 23.6289 51.9404 23.9652L44.3015 28.9561V42.3896C44.3015 42.7816 44.1743 43.1633 43.9389 43.4773L43.9362 43.4807L43.9333 43.4848L43.9258 43.4945L43.906 43.5203C43.8956 43.5336 43.8831 43.5494 43.8686 43.5675C43.8613 43.5767 43.8533 43.5866 43.8449 43.597C43.7948 43.6589 43.7259 43.742 43.6375 43.843C43.4608 44.0449 43.2062 44.3192 42.8707 44.6415C42.1997 45.2856 41.2016 46.1237 39.8506 46.955C37.1366 48.6253 33.0341 50.2456 27.3809 50.2456C21.7276 50.2456 17.6252 48.6253 14.9111 46.955C13.5601 46.1237 12.5621 45.2856 11.8911 44.6415C11.5555 44.3192 11.301 44.0449 11.1243 43.843C11.0212 43.7251 10.9198 43.6057 10.8255 43.4807C10.8218 43.4759 10.8229 43.4773 10.8229 43.4773C10.5875 43.1633 10.4603 42.7816 10.4603 42.3896V28.9561L5.62584 25.7975V38.7637C5.62584 39.7649 4.81416 40.5766 3.81292 40.5766C2.81168 40.5766 2 39.7649 2 38.7637V22.4474C2 21.7936 2.3461 21.2206 2.86508 20.9017L22.3259 8.42666ZM32.504 36.6636C29.3913 38.6973 25.3705 38.6973 22.2578 36.6636L14.0861 31.3247V41.7096C14.1751 41.8027 14.2803 41.909 14.4021 42.026C14.9115 42.5148 15.7074 43.1877 16.8114 43.867C19.0074 45.2184 22.4588 46.6197 27.3809 46.6197C32.3031 46.6197 35.7544 45.2184 37.9505 43.867C39.0544 43.1877 39.8504 42.5148 40.3597 42.026C40.4815 41.909 40.5867 41.8027 40.6756 41.7096V31.3247L32.504 36.6636ZM30.479 11.4792C28.591 10.2688 26.1708 10.2688 24.2827 11.4792L7.14968 22.4619L24.2409 33.6281C26.1486 34.8747 28.6132 34.8747 30.5209 33.6281L47.6121 22.4619L30.479 11.4792Z" fill="#F7F7F7" stroke="#F7F7F7" stroke-width="0.5"/>
</g>
</svg>
