<svg width="50" height="50" viewBox="0 0 50 50" fill="none" xmlns="http://www.w3.org/2000/svg">
<path d="M16.8855 38.0144C11.0353 33.5071 4.16406 28.2131 4.16406 19.0358C4.16406 8.90469 15.6227 1.7199 24.9974 11.4598L29.1641 15.6237C29.7743 16.2338 30.7636 16.2336 31.3739 15.6233C31.9839 15.013 31.9836 14.0237 31.3734 13.4136L27.3484 9.39002C36.1818 2.92329 45.8307 9.73904 45.8307 19.0358C45.8307 28.2131 38.9595 33.5071 33.1093 38.0144C32.5013 38.4829 31.9043 38.9429 31.3272 39.3979C29.1641 41.1031 27.0807 42.7085 24.9974 42.7085C22.9141 42.7085 20.8307 41.1031 18.6677 39.3979C18.0905 38.9429 17.4935 38.4829 16.8855 38.0144Z" fill="#B1A38B"/>
</svg>
