<svg width="327" height="209" viewBox="0 0 327 209" fill="none" xmlns="http://www.w3.org/2000/svg">
<g clip-path="url(#clip0_98_51)">
<path d="M5.05744 204.349C9.61374 134.006 4.01034 82.9662 4.01074 16.4491C4.13434 14.1794 4.24824 11.9115 4.28944 9.639C4.30664 8.5711 4.35604 7.5009 4.40624 6.4329C4.42944 5.897 4.43624 5.3582 4.45724 4.8199C6.17244 4.7175 7.89964 4.6855 9.61414 4.5648C11.563 4.4287 13.5082 4.2697 15.4541 4.1335C19.3744 3.8567 23.2925 4.1204 27.2039 4.3126C31.1541 4.5088 35.0977 4.6272 39.054 4.6741C43.217 4.721 47.3837 4.7524 51.5467 4.6764C59.239 4.5334 90.384 4.8731 92.303 4.7816C94.094 4.6964 95.876 4.5963 97.669 4.5625C101.33 4.4956 305.978 4.4933 309.638 4.5671C311.804 4.6094 313.966 4.6232 316.131 4.6209C317.099 4.6209 318.071 4.6003 319.042 4.5717C319.379 4.5614 319.716 4.5419 320.054 4.5225C320.151 4.916 320.233 5.313 320.327 5.6974C320.457 6.2362 320.564 6.7779 320.668 7.3195C321.056 10.3683 321.017 13.4444 320.821 16.4983C320.602 19.8679 320.514 23.2329 320.508 26.6042C320.502 29.7347 320.763 32.863 320.786 35.9929C320.812 39.4855 320.806 42.9775 320.809 46.4722C320.815 53.0882 321.377 112.699 321.641 119.317C321.763 122.436 321.725 125.544 321.611 128.661C320.8 151.393 320.566 174.755 323.047 197.472C323.215 199.038 323.402 201.199 323.312 202.774C321.446 202.931 319.698 202.963 317.942 203.049C315.801 203.154 34.0703 204.354 30.8533 204.54C29.2377 204.633 27.6228 204.72 26.005 204.763" stroke="#0DCFE5" stroke-width="7" stroke-linecap="round" stroke-linejoin="round"/>
<path d="M105.616 24.1434C102.977 21.9046 100.326 20.7852 97.6627 20.7852C93.6687 20.7852 88.2627 22.2125 88.2627 28.2036C88.2627 34.1946 92.1387 36.2446 95.6627 36.2446C99.1867 36.2446 102.946 34.7843 104.319 33.7186" stroke="#0DCFE5" stroke-width="6" stroke-linecap="round" stroke-linejoin="round"/>
<path d="M104.214 18.3691C104.518 18.9764 104.77 19.6847 104.969 20.4942C105.168 21.3037 105.383 22.4902 105.612 24.0536C104.073 24.4266 102.99 24.7312 102.364 24.9676C101.737 25.204 101.012 25.581 100.189 26.0988" stroke="#0DCFE5" stroke-width="6" stroke-linecap="round" stroke-linejoin="round"/>
<path d="M56.6152 33.5603C56.6332 33.6783 58.3309 32.6022 60.2259 31.2108C61.1612 30.5241 62.522 29.6282 63.4293 28.9268C64.6084 28.0152 65.5541 27.1319 66.2663 26.2768C66.2663 25.9687 62.8034 23.2958 62.5451 23.0959C61.8123 22.5288 58.3844 20.1678 57.9594 19.855C57.582 19.577 57.2007 19.3077 56.8208 19.0352C56.7951 19.0167 56.767 19.0041 56.7323 18.9844" stroke="#0DCFE5" stroke-width="6" stroke-linecap="round" stroke-linejoin="round"/>
<path d="M35.5036 33.5603C35.4856 33.6783 33.788 32.6022 31.8929 31.2108C30.9576 30.5241 29.5968 29.6282 28.6895 28.9268C27.5104 28.0152 26.5648 27.1319 25.8525 26.2768C25.8525 25.9687 29.3154 23.2958 29.5737 23.0959C30.3065 22.5288 33.7345 20.1678 34.1594 19.855C34.5369 19.577 34.9181 19.3077 35.298 19.0352C35.3237 19.0167 35.3519 19.0041 35.3866 18.9844" stroke="#0DCFE5" stroke-width="6" stroke-linecap="round" stroke-linejoin="round"/>
<path d="M127.25 32.5151C127.311 32.4387 127.373 32.3622 127.401 32.2857C127.447 32.1618 127.47 32.0379 127.516 31.914C127.559 31.7963 127.586 31.6787 127.527 31.5611C127.47 31.4435 127.39 31.326 127.327 31.2084C127.251 22.3564 127.398 18.144 128.589 18.147C135.94 18.0768 143.291 18.1734 150.643 18.155C154.688 18.1448 171.068 18.1692 172.078 18.1626C173.019 18.1565 173.957 18.1493 174.9 18.1468C176.825 18.142 284.455 18.1419 286.38 18.1472C287.519 18.1502 288.655 18.1512 289.794 18.151C290.304 18.151 290.815 18.1496 291.326 18.1475C291.502 18.1468 291.68 18.1454 291.858 18.144C291.909 18.1723 291.952 18.2008 292.001 18.2285C292.07 18.2672 292.126 18.3062 292.181 18.3451C292.385 18.5644 292.364 18.7856 292.261 19.0053C292.146 19.2476 292.1 19.4896 292.096 19.732C292.093 19.9572 292.23 20.1821 292.243 20.4072C292.426 23.742 292.358 27.3205 292.832 30.6384C292.876 30.9495 292.844 31.2606 293.107 31.5707C293.234 31.7205 293.312 31.8706 293.432 32.0205C293.52 32.1331 293.618 32.2885 293.571 32.4018C292.59 32.4131 291.67 32.4154 290.747 32.4216C289.621 32.4292 141.451 32.5155 139.759 32.5288C138.91 32.5355 138.06 32.5418 137.21 32.5448" stroke="#0DCFE5" stroke-width="6" stroke-linecap="round" stroke-linejoin="round"/>
</g>
<defs>
<clipPath id="clip0_98_51">
<rect width="327" height="209" fill="white"/>
</clipPath>
</defs>
</svg>
