<svg width="133" height="133" viewBox="0 0 133 133" fill="none" xmlns="http://www.w3.org/2000/svg">
<path d="M60.3322 5.29012C61.1732 -1.76338 71.4072 -1.76338 72.2482 5.29012L72.3822 6.41932C73.0702 12.186 80.7312 13.7101 83.5732 8.64532L84.1292 7.65352C87.6052 1.45862 97.0612 5.37522 95.1382 12.2134L94.8302 13.3082C93.2582 18.8989 99.7542 23.2389 104.317 19.6471L105.211 18.9437C110.793 14.5505 118.03 21.7876 113.636 27.3694L112.933 28.2631C109.341 32.8267 113.681 39.3219 119.272 37.75L120.367 37.4421C127.205 35.5194 131.122 44.9751 124.927 48.4508L123.935 49.0073C118.87 51.8489 120.394 59.5102 126.161 60.1982L127.29 60.3322C134.344 61.1732 134.344 71.4072 127.29 72.2482L126.161 72.3822C120.394 73.0702 118.87 80.7312 123.935 83.5732L124.927 84.1292C131.122 87.6052 127.205 97.0612 120.367 95.1382L119.272 94.8302C113.681 93.2582 109.341 99.7542 112.933 104.317L113.636 105.211C118.03 110.793 110.793 118.03 105.211 113.636L104.317 112.933C99.7542 109.341 93.2582 113.681 94.8302 119.272L95.1382 120.367C97.0612 127.205 87.6052 131.122 84.1292 124.927L83.5732 123.935C80.7312 118.87 73.0702 120.394 72.3822 126.161L72.2482 127.29C71.4072 134.344 61.1732 134.344 60.3322 127.29L60.1982 126.161C59.5102 120.394 51.8489 118.87 49.0073 123.935L48.4508 124.927C44.9751 131.122 35.5194 127.205 37.4421 120.367L37.75 119.272C39.3219 113.681 32.8267 109.341 28.2631 112.933L27.3694 113.636C21.7876 118.03 14.5505 110.793 18.9437 105.211L19.6471 104.317C23.2389 99.7542 18.8989 93.2582 13.3082 94.8302L12.2134 95.1382C5.37522 97.0612 1.45863 87.6052 7.65343 84.1292L8.64532 83.5732C13.7101 80.7312 12.1861 73.0702 6.41932 72.3822L5.29012 72.2482C-1.76338 71.4072 -1.76338 61.1732 5.29012 60.3322L6.41932 60.1982C12.186 59.5102 13.7101 51.8489 8.64532 49.0073L7.65352 48.4508C1.45862 44.9751 5.37522 35.5194 12.2134 37.4421L13.3082 37.75C18.8989 39.3219 23.2389 32.8267 19.6471 28.2631L18.9437 27.3694C14.5505 21.7876 21.7876 14.5505 27.3694 18.9437L28.2631 19.6471C32.8267 23.2389 39.3219 18.8989 37.75 13.3082L37.4421 12.2134C35.5194 5.37522 44.9751 1.45863 48.4508 7.65343L49.0073 8.64532C51.8489 13.7101 59.5102 12.1861 60.1982 6.41932L60.3322 5.29012Z" fill="#2657D4"/>
<path d="M23.9434 53.767V52.615C23.9434 44.911 28.4434 40.375 34.7794 40.375C41.1154 40.375 45.6154 44.911 45.6154 52.615V53.767C45.6154 61.507 41.1154 66.007 34.7794 66.007C28.4434 66.007 23.9434 61.507 23.9434 53.767ZM39.2794 53.551V52.831C39.2794 48.079 37.4074 45.631 34.7794 45.631C32.1514 45.631 30.2794 48.079 30.2794 52.831V53.551C30.2794 58.339 32.1514 60.751 34.7794 60.751C37.4074 60.751 39.2794 58.339 39.2794 53.551ZM46.0978 62.479C46.0978 60.463 47.6458 58.951 49.6978 58.951C51.7498 58.951 53.2978 60.463 53.2978 62.479C53.2978 64.495 51.7498 66.007 49.6978 66.007C47.6458 66.007 46.0978 64.495 46.0978 62.479ZM65.8349 48.475C70.5869 48.475 74.4029 51.967 74.4029 57.187C74.4029 63.091 69.9389 66.007 64.4669 66.007C58.4909 66.007 54.7111 62.299 54.5311 57.547H60.8309C61.0829 59.491 62.5589 60.967 64.4669 60.967C66.2309 60.967 68.0309 59.707 68.0309 57.187C68.0309 54.991 66.6269 53.335 64.4669 53.335C63.2429 53.335 61.5869 53.875 61.0109 55.567H54.8551L55.5029 40.591H72.8909V45.811H61.2989L61.1189 50.095C62.2349 49.159 63.6749 48.475 65.8349 48.475ZM76.1869 46.675C76.1869 43.039 79.0309 40.375 82.9189 40.375C86.8069 40.375 89.6509 43.039 89.6509 46.675C89.6509 50.311 86.8069 52.975 82.9189 52.975C79.0309 52.975 76.1869 50.311 76.1869 46.675ZM86.2669 65.791H80.1469L97.4989 40.591H103.619L86.2669 65.791ZM84.7909 46.675C84.7909 45.595 83.9629 44.731 82.9189 44.731C81.8749 44.731 81.0469 45.595 81.0469 46.675C81.0469 47.791 81.8749 48.619 82.9189 48.619C83.9629 48.619 84.7909 47.791 84.7909 46.675ZM94.1149 59.707C94.1149 56.071 96.9589 53.407 100.847 53.407C104.735 53.407 107.579 56.071 107.579 59.707C107.579 63.343 104.735 66.007 100.847 66.007C96.9589 66.007 94.1149 63.343 94.1149 59.707ZM102.719 59.707C102.719 58.627 101.891 57.763 100.847 57.763C99.8029 57.763 98.9749 58.627 98.9749 59.707C98.9749 60.823 99.8029 61.651 100.847 61.651C101.891 61.651 102.719 60.823 102.719 59.707Z" fill="white"/>
<path d="M36.8107 83.8812C33.7507 83.8812 31.8457 81.7662 31.8457 78.5412C31.8457 75.3462 33.8107 73.2012 36.9157 73.2012C39.3157 73.2012 41.0407 74.6412 41.3857 76.8612H39.6007C39.2557 75.5412 38.2657 74.7162 36.8407 74.7162C34.8457 74.7162 33.6157 76.2912 33.6157 78.5412C33.6157 80.7762 34.8157 82.3662 36.7957 82.3662C38.2507 82.3662 39.2557 81.5562 39.5857 80.2212H41.3707C41.0407 82.4412 39.2557 83.8812 36.8107 83.8812ZM49.6526 82.3812H49.9826V83.7912H49.1276C48.0776 83.7912 47.7176 83.3262 47.7176 82.5612C47.2076 83.3412 46.4276 83.8812 45.1826 83.8812C43.5026 83.8812 42.3326 83.0562 42.3326 81.6312C42.3326 80.0562 43.4726 79.1712 45.6176 79.1712H47.5526V78.7062C47.5526 77.8512 46.9376 77.3262 45.8726 77.3262C44.9126 77.3262 44.2676 77.7762 44.1476 78.4512H42.5576C42.7226 76.9512 44.0126 76.0212 45.9476 76.0212C47.9876 76.0212 49.1576 76.9962 49.1576 78.8112V81.8862C49.1576 82.2762 49.3226 82.3812 49.6526 82.3812ZM47.5526 80.6412V80.3712H45.5426C44.5376 80.3712 43.9826 80.7462 43.9826 81.5262C43.9826 82.1712 44.5226 82.6212 45.4076 82.6212C46.7576 82.6212 47.5376 81.8262 47.5526 80.6412ZM50.535 81.2562H52.125C52.185 82.0512 52.875 82.6212 54.045 82.6212C55.05 82.6212 55.7097 82.2312 55.7097 81.6162C55.7097 80.7912 55.005 80.7312 53.82 80.5812C52.065 80.3712 50.685 79.9962 50.685 78.4062C50.685 76.9512 51.99 76.0062 53.835 76.0212C55.7247 76.0212 57.0597 76.8912 57.1647 78.4662H55.5747C55.4847 77.7612 54.825 77.2662 53.865 77.2662C52.905 77.2662 52.275 77.6562 52.275 78.2712C52.275 78.9912 53.01 79.0812 54.12 79.2012C55.8747 79.4112 57.2997 79.7712 57.2997 81.4812C57.2997 82.9512 55.9047 83.8812 54.045 83.8812C51.99 83.8812 50.58 82.9212 50.535 81.2562ZM62.5907 76.0212C64.3007 76.0212 65.6957 76.9512 65.6957 79.5162V83.7912H64.0757V79.6512C64.0757 78.1962 63.4307 77.4162 62.2307 77.4162C60.9557 77.4162 60.1757 78.3612 60.1757 79.9062V83.7912H58.5557V73.2912H60.1757V77.2212C60.6557 76.5612 61.3907 76.0212 62.5907 76.0212ZM71.2787 76.0212C73.3787 76.0212 74.9087 77.4762 74.9087 79.9512C74.9087 82.3062 73.3787 83.8812 71.2787 83.8812C70.0787 83.8812 69.2537 83.3712 68.7737 82.6812L68.5787 83.7912H67.1687V73.2912H68.7887V77.2512C69.2987 76.5612 70.0937 76.0212 71.2787 76.0212ZM71.0087 82.5162C72.3587 82.5162 73.2587 81.4662 73.2587 79.9512C73.2587 78.4512 72.3587 77.4012 71.0087 77.4012C69.6587 77.4012 68.7737 78.4512 68.7737 79.9362C68.7737 81.4512 69.6587 82.5162 71.0087 82.5162ZM83.2267 82.3812H83.5567V83.7912H82.7017C81.6517 83.7912 81.2917 83.3262 81.2917 82.5612C80.7817 83.3412 80.0017 83.8812 78.7567 83.8812C77.0767 83.8812 75.9067 83.0562 75.9067 81.6312C75.9067 80.0562 77.0467 79.1712 79.1917 79.1712H81.1267V78.7062C81.1267 77.8512 80.5117 77.3262 79.4467 77.3262C78.4867 77.3262 77.8417 77.7762 77.7217 78.4512H76.1317C76.2967 76.9512 77.5867 76.0212 79.5217 76.0212C81.5617 76.0212 82.7317 76.9962 82.7317 78.8112V81.8862C82.7317 82.2762 82.8967 82.3812 83.2267 82.3812ZM81.1267 80.6412V80.3712H79.1167C78.1117 80.3712 77.5567 80.7462 77.5567 81.5262C77.5567 82.1712 78.0967 82.6212 78.9817 82.6212C80.3317 82.6212 81.1117 81.8262 81.1267 80.6412ZM87.9057 83.8812C85.5807 83.8812 84.0957 82.3662 84.0957 79.9662C84.0957 77.5962 85.6257 76.0212 87.9507 76.0212C89.9307 76.0212 91.1607 77.1162 91.4757 78.8562H89.7807C89.5707 77.9562 88.9257 77.4012 87.9207 77.4012C86.6157 77.4012 85.7607 78.4512 85.7607 79.9662C85.7607 81.4662 86.6157 82.5012 87.9207 82.5012C88.9107 82.5012 89.5707 81.9312 89.7657 81.0462H91.4757C91.1757 82.7862 89.8707 83.8812 87.9057 83.8812ZM92.7157 83.7912V73.2912H94.3357V79.8312L97.8157 76.1112H99.7207L96.8257 79.2162L99.9007 83.7912H97.9807L95.7157 80.4012L94.3357 81.8412V83.7912H92.7157Z" fill="white"/>
</svg>
