<svg width="124" height="124" viewBox="0 0 124 124" fill="none" xmlns="http://www.w3.org/2000/svg">
<g filter="url(#filter0_d_125_19)">
<path d="M56.2587 4.72358C57.0092 -1.57452 66.1475 -1.57452 66.8985 4.72358C67.5115 9.87267 74.3535 11.2335 76.8905 6.71107C79.9935 1.17967 88.4365 4.67688 86.7205 10.7827C85.3165 15.7747 91.1165 19.6499 95.1905 16.4428C100.174 12.52 106.636 18.9821 102.714 23.9661C99.5075 28.0409 103.382 33.8406 108.374 32.437C114.48 30.7201 117.977 39.1632 112.445 42.2666C107.923 44.804 109.284 51.6451 114.433 52.2587C120.731 53.0092 120.731 62.1475 114.433 62.8985C109.284 63.5115 107.923 70.3535 112.445 72.8905C117.977 75.9935 114.48 84.4365 108.374 82.7205C103.382 81.3165 99.5075 87.1165 102.714 91.1905C106.636 96.1745 100.174 102.636 95.1905 98.7145C91.1165 95.5075 85.3165 99.3825 86.7205 104.374C88.4365 110.48 79.9935 113.977 76.8905 108.445C74.3535 103.923 67.5115 105.284 66.8985 110.433C66.1475 116.731 57.0092 116.731 56.2587 110.433C55.6451 105.284 48.804 103.923 46.2666 108.445C43.1632 113.977 34.7201 110.48 36.437 104.374C37.8406 99.3825 32.0409 95.5075 27.9661 98.7145C22.9821 102.636 16.52 96.1745 20.4428 91.1905C23.6499 87.1165 19.7747 81.3165 14.7827 82.7205C8.67688 84.4365 5.17967 75.9935 10.7111 72.8905C15.2335 70.3535 13.8727 63.5115 8.72358 62.8985C2.42548 62.1475 2.42548 53.0092 8.72358 52.2587C13.8727 51.6451 15.2335 44.804 10.7111 42.2666C5.17967 39.1632 8.67688 30.7201 14.7827 32.437C19.7747 33.8406 23.6499 28.0409 20.4428 23.9661C16.52 18.982 22.982 12.52 27.9661 16.4428C32.0409 19.6499 37.8406 15.7747 36.437 10.7827C34.7201 4.67688 43.1632 1.17967 46.2666 6.71107C48.804 11.2335 55.6451 9.87267 56.2587 4.72358Z" fill="#2657D4"/>
</g>
<path d="M43.6825 34.4661V32.3781H49.9105V57.5781H43.5745V42.2061H42.3865H38.1025V37.0581H41.6665C43.2145 37.0581 43.6825 36.0501 43.6825 34.4661ZM52.9553 38.4621C52.9553 34.8261 55.7993 32.1621 59.6873 32.1621C63.5753 32.1621 66.4194 34.8261 66.4194 38.4621C66.4194 42.0981 63.5753 44.7621 59.6873 44.7621C55.7993 44.7621 52.9553 42.0981 52.9553 38.4621ZM63.0353 57.5781H56.9153L74.2674 32.3781H80.3874L63.0353 57.5781ZM61.5593 38.4621C61.5593 37.3821 60.7313 36.5181 59.6873 36.5181C58.6433 36.5181 57.8153 37.3821 57.8153 38.4621C57.8153 39.5781 58.6433 40.4061 59.6873 40.4061C60.7313 40.4061 61.5593 39.5781 61.5593 38.4621ZM70.8834 51.4941C70.8834 47.8581 73.7274 45.1941 77.6154 45.1941C81.5034 45.1941 84.3474 47.8581 84.3474 51.4941C84.3474 55.1301 81.5034 57.7941 77.6154 57.7941C73.7274 57.7941 70.8834 55.1301 70.8834 51.4941ZM79.4874 51.4941C79.4874 50.4141 78.6594 49.5501 77.6154 49.5501C76.5714 49.5501 75.7434 50.4141 75.7434 51.4941C75.7434 52.6101 76.5714 53.4381 77.6154 53.4381C78.6594 53.4381 79.4874 52.6101 79.4874 51.4941Z" fill="white"/>
<path d="M32.5978 75.6683C29.5378 75.6683 27.6328 73.5533 27.6328 70.3283C27.6328 67.1333 29.5978 64.9883 32.7028 64.9883C35.1028 64.9883 36.8278 66.4283 37.1728 68.6483H35.3878C35.0428 67.3283 34.0528 66.5033 32.6278 66.5033C30.6328 66.5033 29.4028 68.0783 29.4028 70.3283C29.4028 72.5633 30.6028 74.1533 32.5828 74.1533C34.0378 74.1533 35.0428 73.3433 35.3728 72.0083H37.1578C36.8278 74.2283 35.0428 75.6683 32.5978 75.6683ZM45.4397 74.1683H45.7697V75.5783H44.9147C43.8647 75.5783 43.5047 75.1133 43.5047 74.3483C42.9947 75.1283 42.2147 75.6683 40.9697 75.6683C39.2897 75.6683 38.1197 74.8433 38.1197 73.4183C38.1197 71.8433 39.2597 70.9583 41.4047 70.9583H43.3397V70.4933C43.3397 69.6383 42.7247 69.1133 41.6597 69.1133C40.6997 69.1133 40.0547 69.5633 39.9347 70.2383H38.3447C38.5097 68.7383 39.7997 67.8083 41.7347 67.8083C43.7747 67.8083 44.9447 68.7833 44.9447 70.5983V73.6733C44.9447 74.0633 45.1097 74.1683 45.4397 74.1683ZM43.3397 72.4283V72.1583H41.3297C40.3247 72.1583 39.7697 72.5333 39.7697 73.3133C39.7697 73.9583 40.3097 74.4083 41.1947 74.4083C42.5447 74.4083 43.3247 73.6133 43.3397 72.4283ZM46.3221 73.0433H47.9121C47.9721 73.8383 48.6621 74.4083 49.8321 74.4083C50.8371 74.4083 51.4971 74.0183 51.4971 73.4033C51.4971 72.5783 50.7921 72.5183 49.6071 72.3683C47.8521 72.1583 46.4721 71.7833 46.4721 70.1933C46.4721 68.7383 47.7771 67.7933 49.6221 67.8083C51.5121 67.8083 52.8471 68.6783 52.9521 70.2533H51.3621C51.2721 69.5483 50.6121 69.0533 49.6521 69.0533C48.6921 69.0533 48.0621 69.4433 48.0621 70.0583C48.0621 70.7783 48.7971 70.8683 49.9071 70.9883C51.6621 71.1983 53.0871 71.5583 53.0871 73.2683C53.0871 74.7383 51.6921 75.6683 49.8321 75.6683C47.7771 75.6683 46.3671 74.7083 46.3221 73.0433ZM58.3775 67.8083C60.0875 67.8083 61.4825 68.7383 61.4825 71.3033V75.5783H59.8625V71.4383C59.8625 69.9833 59.2175 69.2033 58.0175 69.2033C56.7425 69.2033 55.9625 70.1483 55.9625 71.6933V75.5783H54.3425V65.0783H55.9625V69.0083C56.4425 68.3483 57.1775 67.8083 58.3775 67.8083ZM67.0658 67.8083C69.1658 67.8083 70.6958 69.2633 70.6958 71.7383C70.6958 74.0933 69.1658 75.6683 67.0658 75.6683C65.8658 75.6683 65.0408 75.1583 64.5608 74.4683L64.3658 75.5783H62.9558V65.0783H64.5758V69.0383C65.0858 68.3483 65.8808 67.8083 67.0658 67.8083ZM66.7958 74.3033C68.1458 74.3033 69.0458 73.2533 69.0458 71.7383C69.0458 70.2383 68.1458 69.1883 66.7958 69.1883C65.4458 69.1883 64.5608 70.2383 64.5608 71.7233C64.5608 73.2383 65.4458 74.3033 66.7958 74.3033ZM79.0138 74.1683H79.3438V75.5783H78.4888C77.4388 75.5783 77.0788 75.1133 77.0788 74.3483C76.5688 75.1283 75.7888 75.6683 74.5438 75.6683C72.8638 75.6683 71.6938 74.8433 71.6938 73.4183C71.6938 71.8433 72.8338 70.9583 74.9788 70.9583H76.9138V70.4933C76.9138 69.6383 76.2988 69.1133 75.2338 69.1133C74.2738 69.1133 73.6288 69.5633 73.5088 70.2383H71.9188C72.0838 68.7383 73.3738 67.8083 75.3088 67.8083C77.3488 67.8083 78.5188 68.7833 78.5188 70.5983V73.6733C78.5188 74.0633 78.6838 74.1683 79.0138 74.1683ZM76.9138 72.4283V72.1583H74.9038C73.8988 72.1583 73.3438 72.5333 73.3438 73.3133C73.3438 73.9583 73.8838 74.4083 74.7688 74.4083C76.1188 74.4083 76.8988 73.6133 76.9138 72.4283ZM83.6928 75.6683C81.3678 75.6683 79.8828 74.1533 79.8828 71.7533C79.8828 69.3833 81.4128 67.8083 83.7378 67.8083C85.7178 67.8083 86.9478 68.9033 87.2628 70.6433H85.5678C85.3578 69.7433 84.7128 69.1883 83.7078 69.1883C82.4028 69.1883 81.5478 70.2383 81.5478 71.7533C81.5478 73.2533 82.4028 74.2883 83.7078 74.2883C84.6978 74.2883 85.3578 73.7183 85.5528 72.8333H87.2628C86.9628 74.5733 85.6578 75.6683 83.6928 75.6683ZM88.5028 75.5783V65.0783H90.1228V71.6183L93.6028 67.8983H95.5078L92.6128 71.0033L95.6878 75.5783H93.7678L91.5028 72.1883L90.1228 73.6283V75.5783H88.5028Z" fill="white"/>
<defs>
<filter id="filter0_d_125_19" x="0" y="0" width="123.157" height="123.156" filterUnits="userSpaceOnUse" color-interpolation-filters="sRGB">
<feFlood flood-opacity="0" result="BackgroundImageFix"/>
<feColorMatrix in="SourceAlpha" type="matrix" values="0 0 0 0 0 0 0 0 0 0 0 0 0 0 0 0 0 0 127 0" result="hardAlpha"/>
<feOffset dy="4"/>
<feGaussianBlur stdDeviation="2"/>
<feComposite in2="hardAlpha" operator="out"/>
<feColorMatrix type="matrix" values="0 0 0 0 0 0 0 0 0 0 0 0 0 0 0 0 0 0 0.25 0"/>
<feBlend mode="normal" in2="BackgroundImageFix" result="effect1_dropShadow_125_19"/>
<feBlend mode="normal" in="SourceGraphic" in2="effect1_dropShadow_125_19" result="shape"/>
</filter>
</defs>
</svg>
