<svg width="24" height="24" viewBox="0 0 24 24" fill="none" xmlns="http://www.w3.org/2000/svg">
<path d="M8.0625 17.625V20.1C8.0625 20.415 8.0625 20.5725 8.00119 20.6929C7.94726 20.7987 7.86121 20.8848 7.75537 20.9387C7.63504 21 7.47753 21 7.1625 21H5.025C4.70997 21 4.55246 21 4.43213 20.9387C4.32629 20.8848 4.24024 20.7987 4.18631 20.6929C4.125 20.5725 4.125 20.415 4.125 20.1V17.625M19.875 17.625V20.1C19.875 20.415 19.875 20.5725 19.8137 20.6929C19.7598 20.7987 19.6737 20.8848 19.5679 20.9387C19.4475 21 19.29 21 18.975 21H16.8375C16.5225 21 16.365 21 16.2446 20.9387C16.1388 20.8848 16.0527 20.7987 15.9988 20.6929C15.9375 20.5725 15.9375 20.415 15.9375 20.1V17.625M5.8125 13.6875H6.5M17.5 13.6875H18.1875M19.3125 7.375H21M2.74463 7.375H4.43213M7.275 17.625H16.725C18.6152 17.625 19.5603 17.625 20.2822 17.2571C20.9173 16.9336 21.4336 16.4173 21.7571 15.7822C21.8243 15.6505 21.8792 15.4288 21.924 15.1431C22.1729 13.5578 22.2973 12.7651 21.9805 11.929C21.7279 11.2625 21.1147 10.5456 20.4955 10.1927C19.7186 9.75 18.7208 9.75 16.725 9.75H7.275C5.27924 9.75 4.28136 9.75 3.50451 10.1927C2.88527 10.5456 2.27207 11.2625 2.0195 11.929C1.70266 12.7651 1.8271 13.5578 2.07598 15.1431C2.12084 15.4288 2.17572 15.6505 2.24285 15.7822C2.56643 16.4173 3.08274 16.9336 3.71778 17.2571C4.43973 17.625 5.38482 17.625 7.275 17.625Z" stroke="white" stroke-width="2" stroke-linecap="round" stroke-linejoin="round"/>
<path d="M19.875 9.75C19.3145 6.60722 17.6808 4.15242 15.5891 3.31032C14.8183 3 13.8789 3 12 3C10.1211 3 9.18165 3 8.41088 3.31032C6.31923 4.15242 4.68546 6.60722 4.125 9.75" stroke="white" stroke-width="2" stroke-linecap="round" stroke-linejoin="round"/>
</svg>
