<svg class="hello" width="195" height="195" viewBox="0 0 195 195" fill="none" xmlns="http://www.w3.org/2000/svg">
<path  d="M92.1802 44.6451C92.9307 38.347 102.069 38.347 102.82 44.6451C103.433 49.7942 110.275 51.155 112.812 46.6326C115.915 41.1012 124.358 44.5984 122.642 50.7042C121.238 55.6962 127.038 59.5714 131.112 56.3643C136.096 52.4415 142.558 58.9036 138.636 63.8876C135.429 67.9624 139.304 73.7621 144.296 72.3585C150.402 70.6416 153.899 79.0847 148.367 82.1881C143.845 84.7255 145.206 91.5667 150.355 92.1802C156.653 92.9307 156.653 102.069 150.355 102.82C145.206 103.433 143.845 110.275 148.367 112.812C153.899 115.915 150.402 124.358 144.296 122.642C139.304 121.238 135.429 127.038 138.636 131.112C142.558 136.096 136.096 142.558 131.112 138.636C127.038 135.429 121.238 139.304 122.642 144.296C124.358 150.402 115.915 153.899 112.812 148.367C110.275 143.845 103.433 145.206 102.82 150.355C102.069 156.653 92.9307 156.653 92.1802 150.355C91.5667 145.206 84.7255 143.845 82.1881 148.367C79.0847 153.899 70.6416 150.402 72.3585 144.296C73.7621 139.304 67.9624 135.429 63.8876 138.636C58.9036 142.558 52.4415 136.096 56.3643 131.112C59.5714 127.038 55.6962 121.238 50.7042 122.642C44.5984 124.358 41.1012 115.915 46.6326 112.812C51.155 110.275 49.7942 103.433 44.6451 102.82C38.347 102.069 38.347 92.9307 44.6451 92.1802C49.7942 91.5667 51.155 84.7255 46.6326 82.1881C41.1012 79.0847 44.5984 70.6416 50.7042 72.3585C55.6962 73.7621 59.5714 67.9624 56.3643 63.8876C52.4415 58.9035 58.9035 52.4415 63.8876 56.3643C67.9624 59.5714 73.7621 55.6962 72.3585 50.7042C70.6416 44.5984 79.0847 41.1012 82.1881 46.6326C84.7255 51.155 91.5667 49.7942 92.1802 44.6451Z" fill="#2657D4"/>
<path d="M79.6041 74.388V72.3H85.8321V97.5H79.4961V82.128H78.3081H74.0241V76.98H77.5881C79.1361 76.98 79.6041 75.972 79.6041 74.388ZM88.8769 78.384C88.8769 74.748 91.7209 72.084 95.6089 72.084C99.4969 72.084 102.341 74.748 102.341 78.384C102.341 82.02 99.4969 84.684 95.6089 84.684C91.7209 84.684 88.8769 82.02 88.8769 78.384ZM98.9569 97.5H92.8369L110.189 72.3H116.309L98.9569 97.5ZM97.4809 78.384C97.4809 77.304 96.6529 76.44 95.6089 76.44C94.5649 76.44 93.7369 77.304 93.7369 78.384C93.7369 79.5 94.5649 80.328 95.6089 80.328C96.6529 80.328 97.4809 79.5 97.4809 78.384ZM106.805 91.416C106.805 87.78 109.649 85.116 113.537 85.116C117.425 85.116 120.269 87.78 120.269 91.416C120.269 95.052 117.425 97.716 113.537 97.716C109.649 97.716 106.805 95.052 106.805 91.416ZM115.409 91.416C115.409 90.336 114.581 89.472 113.537 89.472C112.493 89.472 111.665 90.336 111.665 91.416C111.665 92.532 112.493 93.36 113.537 93.36C114.581 93.36 115.409 92.532 115.409 91.416Z" fill="white"/> 
<path d="M68.52 115.59C65.46 115.59 63.555 113.475 63.555 110.25C63.555 107.055 65.52 104.91 68.625 104.91C71.025 104.91 72.75 106.35 73.095 108.57H71.31C70.965 107.25 69.975 106.425 68.55 106.425C66.555 106.425 65.325 108 65.325 110.25C65.325 112.485 66.525 114.075 68.505 114.075C69.96 114.075 70.965 113.265 71.295 111.93H73.08C72.75 114.15 70.965 115.59 68.52 115.59ZM81.3619 114.09H81.6919V115.5H80.8369C79.7869 115.5 79.4269 115.035 79.4269 114.27C78.9169 115.05 78.1369 115.59 76.8919 115.59C75.2119 115.59 74.0419 114.765 74.0419 113.34C74.0419 111.765 75.1819 110.88 77.3269 110.88H79.2619V110.415C79.2619 109.56 78.6469 109.035 77.5819 109.035C76.6219 109.035 75.9769 109.485 75.8569 110.16H74.2669C74.4319 108.66 75.7219 107.73 77.6569 107.73C79.6969 107.73 80.8669 108.705 80.8669 110.52V113.595C80.8669 113.985 81.0319 114.09 81.3619 114.09ZM79.2619 112.35V112.08H77.2519C76.2469 112.08 75.6919 112.455 75.6919 113.235C75.6919 113.88 76.2319 114.33 77.1169 114.33C78.4669 114.33 79.2469 113.535 79.2619 112.35ZM82.2443 112.965H83.8343C83.8943 113.76 84.5843 114.33 85.7543 114.33C86.7593 114.33 87.4193 113.94 87.4193 113.325C87.4193 112.5 86.7143 112.44 85.5293 112.29C83.7743 112.08 82.3943 111.705 82.3943 110.115C82.3943 108.66 83.6993 107.715 85.5443 107.73C87.4343 107.73 88.7693 108.6 88.8743 110.175H87.2843C87.1943 109.47 86.5343 108.975 85.5743 108.975C84.6143 108.975 83.9843 109.365 83.9843 109.98C83.9843 110.7 84.7193 110.79 85.8293 110.91C87.5843 111.12 89.0093 111.48 89.0093 113.19C89.0093 114.66 87.6143 115.59 85.7543 115.59C83.6993 115.59 82.2893 114.63 82.2443 112.965ZM94.2997 107.73C96.0097 107.73 97.4047 108.66 97.4047 111.225V115.5H95.7847V111.36C95.7847 109.905 95.1397 109.125 93.9397 109.125C92.6647 109.125 91.8847 110.07 91.8847 111.615V115.5H90.2647V105H91.8847V108.93C92.3647 108.27 93.0997 107.73 94.2997 107.73ZM102.988 107.73C105.088 107.73 106.618 109.185 106.618 111.66C106.618 114.015 105.088 115.59 102.988 115.59C101.788 115.59 100.963 115.08 100.483 114.39L100.288 115.5H98.878V105H100.498V108.96C101.008 108.27 101.803 107.73 102.988 107.73ZM102.718 114.225C104.068 114.225 104.968 113.175 104.968 111.66C104.968 110.16 104.068 109.11 102.718 109.11C101.368 109.11 100.483 110.16 100.483 111.645C100.483 113.16 101.368 114.225 102.718 114.225ZM114.936 114.09H115.266V115.5H114.411C113.361 115.5 113.001 115.035 113.001 114.27C112.491 115.05 111.711 115.59 110.466 115.59C108.786 115.59 107.616 114.765 107.616 113.34C107.616 111.765 108.756 110.88 110.901 110.88H112.836V110.415C112.836 109.56 112.221 109.035 111.156 109.035C110.196 109.035 109.551 109.485 109.431 110.16H107.841C108.006 108.66 109.296 107.73 111.231 107.73C113.271 107.73 114.441 108.705 114.441 110.52V113.595C114.441 113.985 114.606 114.09 114.936 114.09ZM112.836 112.35V112.08H110.826C109.821 112.08 109.266 112.455 109.266 113.235C109.266 113.88 109.806 114.33 110.691 114.33C112.041 114.33 112.821 113.535 112.836 112.35ZM119.615 115.59C117.29 115.59 115.805 114.075 115.805 111.675C115.805 109.305 117.335 107.73 119.66 107.73C121.64 107.73 122.87 108.825 123.185 110.565H121.49C121.28 109.665 120.635 109.11 119.63 109.11C118.325 109.11 117.47 110.16 117.47 111.675C117.47 113.175 118.325 114.21 119.63 114.21C120.62 114.21 121.28 113.64 121.475 112.755H123.185C122.885 114.495 121.58 115.59 119.615 115.59ZM124.425 115.5V105H126.045V111.54L129.525 107.82H131.43L128.535 110.925L131.61 115.5H129.69L127.425 112.11L126.045 113.55V115.5H124.425Z" fill="white"/>
<defs>
<filter id="filter0_d_6891_10788" x="35.9219" y="39.9216" width="123.156" height="123.157" filterUnits="userSpaceOnUse" color-interpolation-filters="sRGB">
<feFlood flood-opacity="0" result="BackgroundImageFix"/>
<feColorMatrix in="SourceAlpha" type="matrix" values="0 0 0 0 0 0 0 0 0 0 0 0 0 0 0 0 0 0 127 0" result="hardAlpha"/>
<feOffset dy="4"/>
<feGaussianBlur stdDeviation="2"/>
<feComposite in2="hardAlpha" operator="out"/>
<feColorMatrix type="matrix" values="0 0 0 0 0 0 0 0 0 0 0 0 0 0 0 0 0 0 0.25 0"/>
<feBlend mode="normal" in2="BackgroundImageFix" result="effect1_dropShadow_6891_10788"/>
<feBlend mode="normal" in="SourceGraphic" in2="effect1_dropShadow_6891_10788" result="shape"/>
</filter>
</defs>
<style>
.hello {
  transform-origin: center;
  transform-box: fill-box;
  animation: pulse 1.8s ease-in-out infinite;
}

@keyframes pulse {
  0% {
    transform: scale(1);
  }
  50% {
    transform: scale(1.3);
  }
  100% {
    transform: scale(1);
  }
}
</style>
</svg>