<svg width="64" height="64" viewBox="0 0 64 64" fill="none" xmlns="http://www.w3.org/2000/svg">
<rect width="64" height="64" rx="32" fill="#F7F7F7"/>
<path d="M44.2128 22.4375H42.631C42.6294 22.4375 42.6279 22.4381 42.6268 22.4393C42.6256 22.4404 42.625 22.4419 42.625 22.4435V42.625C42.625 43.1886 42.8489 43.7291 43.2474 44.1276C43.6459 44.5261 44.1864 44.75 44.75 44.75C45.3136 44.75 45.8541 44.5261 46.2526 44.1276C46.6511 43.7291 46.875 43.1886 46.875 42.625V25.0997C46.875 24.3937 46.5945 23.7165 46.0953 23.2172C45.596 22.718 44.9188 22.4375 44.2128 22.4375Z" fill="black"/>
<path d="M40.5 42.625V19.7813C40.5 19.4324 40.4313 19.087 40.2978 18.7647C40.1643 18.4425 39.9687 18.1497 39.722 17.903C39.4753 17.6563 39.1825 17.4607 38.8603 17.3272C38.538 17.1937 38.1926 17.125 37.8438 17.125H19.7813C19.0768 17.125 18.4011 17.4049 17.903 17.903C17.4049 18.4011 17.125 19.0768 17.125 19.7813V43.1563C17.125 44.1425 17.5168 45.0884 18.2142 45.7858C18.9116 46.4832 19.8575 46.875 20.8438 46.875H43.6111C43.6212 46.8751 43.6312 46.8732 43.6405 46.8694C43.6498 46.8656 43.6582 46.8599 43.6653 46.8528C43.6724 46.8457 43.6781 46.8373 43.6819 46.828C43.6857 46.8187 43.6876 46.8087 43.6875 46.7986C43.6875 46.7819 43.6819 46.7657 43.6717 46.7525C43.6615 46.7393 43.6472 46.7298 43.6311 46.7256C42.7323 46.479 41.9392 45.9444 41.3736 45.2036C40.808 44.4629 40.5011 43.557 40.5 42.625ZM21.375 23.5C21.375 23.2182 21.4869 22.948 21.6862 22.7487C21.8855 22.5494 22.1557 22.4375 22.4375 22.4375H26.6875C26.9693 22.4375 27.2395 22.5494 27.4388 22.7487C27.6381 22.948 27.75 23.2182 27.75 23.5V27.75C27.75 28.0318 27.6381 28.302 27.4388 28.5013C27.2395 28.7006 26.9693 28.8125 26.6875 28.8125H22.4375C22.1557 28.8125 21.8855 28.7006 21.6862 28.5013C21.4869 28.302 21.375 28.0318 21.375 27.75V23.5ZM35.1875 41.5625H22.4674C21.8956 41.5625 21.4049 41.1229 21.3763 40.5511C21.3694 40.4075 21.3917 40.2639 21.4419 40.1291C21.4921 39.9943 21.5692 39.8712 21.6684 39.767C21.7676 39.6629 21.8869 39.58 22.0191 39.5234C22.1513 39.4667 22.2937 39.4375 22.4375 39.4375H35.1576C35.7294 39.4375 36.2201 39.8771 36.2487 40.4489C36.2556 40.5925 36.2333 40.7361 36.1831 40.8709C36.1329 41.0057 36.0558 41.1288 35.9566 41.233C35.8574 41.3371 35.7381 41.42 35.6059 41.4766C35.4737 41.5333 35.3313 41.5625 35.1875 41.5625ZM35.1875 37.3125H22.4674C21.8956 37.3125 21.4049 36.8729 21.3763 36.3011C21.3694 36.1575 21.3917 36.0139 21.4419 35.8791C21.4921 35.7443 21.5692 35.6212 21.6684 35.517C21.7676 35.4129 21.8869 35.33 22.0191 35.2734C22.1513 35.2167 22.2937 35.1875 22.4375 35.1875H35.1576C35.7294 35.1875 36.2201 35.6271 36.2487 36.1989C36.2556 36.3425 36.2333 36.4861 36.1831 36.6209C36.1329 36.7557 36.0558 36.8788 35.9566 36.983C35.8574 37.0871 35.7381 37.17 35.6059 37.2266C35.4737 37.2833 35.3313 37.3125 35.1875 37.3125ZM35.1875 33.0625H22.4674C21.8956 33.0625 21.4049 32.6229 21.3763 32.0511C21.3694 31.9075 21.3917 31.7639 21.4419 31.6291C21.4921 31.4943 21.5692 31.3712 21.6684 31.267C21.7676 31.1629 21.8869 31.08 22.0191 31.0234C22.1513 30.9667 22.2937 30.9375 22.4375 30.9375H35.1576C35.7294 30.9375 36.2201 31.3771 36.2487 31.9489C36.2556 32.0925 36.2333 32.2361 36.1831 32.3709C36.1329 32.5057 36.0558 32.6288 35.9566 32.733C35.8574 32.8371 35.7381 32.92 35.6059 32.9766C35.4737 33.0333 35.3313 33.0625 35.1875 33.0625ZM35.1875 28.8125H30.9674C30.3956 28.8125 29.9049 28.3729 29.8763 27.8011C29.8694 27.6575 29.8917 27.5139 29.9419 27.3791C29.9921 27.2443 30.0692 27.1212 30.1684 27.017C30.2676 26.9129 30.3869 26.83 30.5191 26.7734C30.6513 26.7167 30.7937 26.6875 30.9375 26.6875H35.1576C35.7294 26.6875 36.2201 27.1271 36.2487 27.6989C36.2556 27.8425 36.2333 27.9861 36.1831 28.1209C36.1329 28.2557 36.0558 28.3788 35.9566 28.483C35.8574 28.5871 35.7381 28.67 35.6059 28.7266C35.4737 28.7833 35.3313 28.8125 35.1875 28.8125ZM35.1875 24.5625H30.9674C30.3956 24.5625 29.9049 24.1229 29.8763 23.5511C29.8694 23.4075 29.8917 23.2639 29.9419 23.1291C29.9921 22.9943 30.0692 22.8712 30.1684 22.767C30.2676 22.6629 30.3869 22.58 30.5191 22.5234C30.6513 22.4667 30.7937 22.4375 30.9375 22.4375H35.1576C35.7294 22.4375 36.2201 22.8771 36.2487 23.4489C36.2556 23.5925 36.2333 23.7361 36.1831 23.8709C36.1329 24.0057 36.0558 24.1288 35.9566 24.233C35.8574 24.3371 35.7381 24.42 35.6059 24.4766C35.4737 24.5333 35.3313 24.5625 35.1875 24.5625Z" fill="black"/>
</svg>
