<svg width="35" height="35" viewBox="0 0 35 35" fill="none" xmlns="http://www.w3.org/2000/svg">
<g clip-path="url(#clip0_7730_11652)">
<path fill-rule="evenodd" clip-rule="evenodd" d="M17.5022 3.25055C11.9158 3.25055 7.38707 7.77923 7.38707 13.3656C7.38707 18.9521 11.9158 23.4807 17.5022 23.4807C23.0886 23.4807 27.6173 18.9521 27.6173 13.3656C27.6173 7.77923 23.0886 3.25055 17.5022 3.25055ZM4.95944 13.3656C4.95944 6.43849 10.575 0.822922 17.5022 0.822922C24.4293 0.822922 30.0449 6.43849 30.0449 13.3656C30.0449 14.8885 29.7735 16.3481 29.2764 17.6984L32.9781 21.5312C33.3946 21.9624 33.7415 22.3216 34.0006 22.6209C34.256 22.9157 34.5177 23.2529 34.6723 23.6446C35.2119 25.0119 34.7778 26.6301 33.4763 27.4269C33.102 27.656 32.6757 27.751 32.3093 27.8123C31.9346 27.875 31.4584 27.9254 30.8966 27.9848L30.8589 27.9888C30.1158 28.0674 29.9746 28.0924 29.8787 28.1292C29.5905 28.2397 29.3537 28.4751 29.2364 28.8031C29.1952 28.9185 29.17 29.083 29.0947 29.8461L29.0911 29.8821C29.0335 30.4665 28.9852 30.9563 28.9252 31.3406C28.8667 31.7151 28.7776 32.1409 28.5641 32.5149C27.8045 33.8451 26.2032 34.344 24.8143 33.7563C24.4234 33.5909 24.0924 33.314 23.8098 33.0516C23.5205 32.7831 23.1736 32.4238 22.7573 31.9928L22.7256 31.96L17.5022 26.4576L12.2715 31.9675L12.247 31.9928C11.8307 32.4238 11.4838 32.7831 11.1946 33.0516C10.9119 33.314 10.581 33.5909 10.19 33.7563C8.80109 34.344 7.19986 33.8451 6.44027 32.5149C6.22671 32.1409 6.13765 31.7151 6.07918 31.3406C6.01916 30.9563 5.97085 30.4665 5.9132 29.8821L5.90966 29.8461C5.83437 29.083 5.80917 28.9185 5.7679 28.8031C5.65062 28.4751 5.41387 28.2397 5.12561 28.1292C5.0297 28.0924 4.88851 28.0674 4.14539 27.9888L4.10772 27.9848C3.54589 27.9254 3.06977 27.875 2.69503 27.8123C2.32859 27.751 1.9023 27.656 1.52807 27.4269C0.226552 26.6301 -0.207536 25.0119 0.332052 23.6446C0.486665 23.2529 0.748376 22.9157 1.0037 22.6209C1.26289 22.3216 1.60981 21.9624 2.02633 21.5311L5.72794 17.6984C5.23085 16.3481 4.95944 14.8885 4.95944 13.3656ZM6.86527 20.0153L3.79666 23.1926C3.34979 23.6553 3.04952 23.9668 2.83882 24.2101C2.6414 24.4381 2.59526 24.5263 2.59042 24.5356C2.44431 24.9062 2.5894 25.2199 2.78203 25.3478C2.79647 25.3525 2.87883 25.3817 3.09586 25.418C3.38908 25.4671 3.79101 25.5101 4.40072 25.5746C4.4415 25.5789 4.48196 25.5832 4.5221 25.5874C5.07094 25.6448 5.56035 25.696 5.99448 25.8624C6.9639 26.234 7.70549 27.0115 8.05381 27.9858C8.20961 28.4215 8.25762 28.913 8.31364 29.4863C8.31756 29.5264 8.32152 29.5669 8.32555 29.6078C8.38768 30.2375 8.42963 30.658 8.47774 30.9661C8.51891 31.2298 8.55207 31.3142 8.55322 31.3193C8.6824 31.5367 8.9479 31.6443 9.2409 31.5219C9.2409 31.5219 9.32183 31.4777 9.54285 31.2725C9.77694 31.0552 10.0767 30.7455 10.5216 30.2848L10.5253 30.281L14.9274 25.6438C11.5354 24.9361 8.64627 22.8582 6.86527 20.0153ZM20.077 25.6438C23.469 24.9361 26.3581 22.8582 28.1391 20.0153L31.2077 23.1926C31.6545 23.6553 31.9548 23.9668 32.1655 24.2101C32.3629 24.4381 32.4091 24.5263 32.4139 24.5356C32.56 24.9061 32.4149 25.2199 32.2223 25.3478C32.2079 25.3525 32.1255 25.3817 31.9085 25.418C31.6152 25.4671 31.2133 25.5101 30.6036 25.5746C30.5628 25.5789 30.5224 25.5832 30.4822 25.5874C29.9334 25.6448 29.444 25.696 29.0099 25.8624C28.0404 26.234 27.2988 27.0115 26.9505 27.9858C26.7947 28.4215 26.7467 28.913 26.6907 29.4863C26.6868 29.5264 26.6828 29.5669 26.6788 29.6078C26.6167 30.2375 26.5747 30.658 26.5266 30.9661C26.4854 31.2297 26.4523 31.3142 26.4511 31.3193C26.3215 31.5375 26.0545 31.6451 25.7602 31.5206L25.7636 31.522C25.7636 31.522 25.6825 31.4777 25.4615 31.2725C25.2274 31.0552 24.9277 30.7455 24.4827 30.2848L24.479 30.281L20.077 25.6438ZM17.5022 10.1846C17.4081 10.3475 17.3035 10.5351 17.1802 10.7563L17.0211 11.0417C17.0098 11.0618 16.9978 11.0838 16.9849 11.1074C16.8578 11.3398 16.6473 11.7247 16.2964 11.9911C15.9381 12.2631 15.5071 12.3567 15.2551 12.4114C15.2299 12.4169 15.2064 12.422 15.185 12.4268L14.8761 12.4967C14.5926 12.5609 14.3616 12.6132 14.1642 12.6629C14.2926 12.821 14.4595 13.0173 14.6765 13.271L14.8871 13.5173C14.902 13.5348 14.9183 13.5535 14.9356 13.5735C15.1103 13.7747 15.3923 14.0995 15.5227 14.5189C15.6516 14.9334 15.6072 15.3602 15.5791 15.6295C15.5763 15.6564 15.5737 15.6817 15.5714 15.7052L15.5396 16.0339C15.51 16.3385 15.4871 16.5817 15.4718 16.7795C15.6404 16.7052 15.8323 16.6169 16.0602 16.512L16.3495 16.3788C16.3694 16.3696 16.3912 16.3593 16.4148 16.3482C16.6471 16.2387 17.0512 16.0481 17.5022 16.0481C17.9532 16.0481 18.3573 16.2387 18.5895 16.3482C18.6131 16.3593 18.6349 16.3696 18.6548 16.3788L18.9441 16.512C19.1721 16.6169 19.3639 16.7052 19.5325 16.7795C19.5173 16.5817 19.4943 16.3385 19.4648 16.0339L19.4329 15.7052C19.4307 15.6817 19.428 15.6564 19.4252 15.6295C19.3972 15.3602 19.3527 14.9334 19.4816 14.5189C19.612 14.0995 19.8941 13.7747 20.0687 13.5735C20.086 13.5535 20.1023 13.5348 20.1172 13.5173L20.3279 13.271C20.5449 13.0173 20.7117 12.821 20.8402 12.6629C20.6427 12.6132 20.4118 12.5609 20.1283 12.4967L19.8193 12.4268C19.7979 12.422 19.7744 12.4169 19.7492 12.4114C19.4972 12.3567 19.0662 12.2631 18.7079 11.9911C18.357 11.7247 18.1465 11.3398 18.0194 11.1074C18.0065 11.0838 17.9945 11.0618 17.9833 11.0417L17.8242 10.7563C17.7009 10.5351 17.5963 10.3475 17.5022 10.1846ZM15.9056 8.18612C16.1842 7.82226 16.6902 7.29659 17.5022 7.29659C18.3141 7.29659 18.8201 7.82226 19.0987 8.18612C19.3647 8.5334 19.6325 9.01412 19.9071 9.50696C19.9196 9.52937 19.9321 9.5518 19.9446 9.57424L20.1037 9.85966C20.1406 9.92585 20.1696 9.97793 20.1951 10.0225C20.2393 10.0329 20.2907 10.0445 20.355 10.0591L20.664 10.129C20.6893 10.1347 20.7146 10.1404 20.7399 10.1461C21.2704 10.266 21.7977 10.3852 22.2024 10.5447C22.6493 10.7208 23.2551 11.0638 23.4886 11.8146C23.718 12.5521 23.4285 13.1769 23.1758 13.5784C22.9418 13.95 22.5863 14.3656 22.2223 14.7911C22.2058 14.8103 22.1893 14.8295 22.1729 14.8488L21.9622 15.0951C21.9064 15.1604 21.8644 15.2096 21.8289 15.2522C21.8338 15.311 21.8404 15.3795 21.8492 15.4711L21.8811 15.7997C21.8835 15.8248 21.886 15.8498 21.8884 15.8748C21.9437 16.4444 21.9971 16.9948 21.9775 17.4351C21.957 17.8968 21.8462 18.5956 21.2196 19.0713C20.5732 19.562 19.8593 19.455 19.4066 19.3253C18.9894 19.2058 18.4966 18.9787 18.0002 18.75C17.9764 18.739 17.9526 18.7281 17.9288 18.7171L17.6395 18.5839C17.5854 18.559 17.5409 18.5385 17.5022 18.521C17.4634 18.5385 17.4189 18.559 17.3648 18.5839L17.0755 18.7171C17.0517 18.7281 17.028 18.739 17.0042 18.75C16.5078 18.9787 16.0149 19.2058 15.5978 19.3253C15.1451 19.455 14.4312 19.562 13.7848 19.0713C13.1582 18.5956 13.0474 17.8968 13.0268 17.4351C13.0072 16.9948 13.0606 16.4444 13.116 15.8748C13.1184 15.8498 13.1208 15.8248 13.1232 15.7997L13.1551 15.4711C13.164 15.3795 13.1706 15.311 13.1754 15.2522C13.14 15.2096 13.0979 15.1604 13.0421 15.0951L12.8315 14.8488C12.815 14.8295 12.7985 14.8103 12.7821 14.7911C12.4181 14.3656 12.0625 13.95 11.8286 13.5784C11.5758 13.1769 11.2864 12.5521 11.5157 11.8146C11.7492 11.0638 12.355 10.7208 12.8019 10.5447C13.2066 10.3852 13.7339 10.266 14.2645 10.1461C14.2897 10.1404 14.3151 10.1347 14.3403 10.129L14.6493 10.0591C14.7136 10.0445 14.7651 10.0329 14.8093 10.0225C14.8347 9.97793 14.8637 9.92586 14.9006 9.85966L15.0597 9.57424C15.0723 9.5518 15.0848 9.52936 15.0972 9.50696C15.3718 9.01411 15.6396 8.5334 15.9056 8.18612Z" fill="#BD9251" stroke="#1C1F21" stroke-width="0.4"/>
</g>
<defs>
<clipPath id="clip0_7730_11652">
<rect width="35" height="35" rx="5" fill="white"/>
</clipPath>
</defs>
</svg>
