<svg width="35" height="35" viewBox="0 0 35 35" fill="none" xmlns="http://www.w3.org/2000/svg">
<path fill-rule="evenodd" clip-rule="evenodd" d="M17.5714 1.82291H17.4273C16.4578 1.82286 15.6223 1.82281 14.9533 1.91276C14.2364 2.00915 13.5491 2.22653 12.9917 2.78397C12.4342 3.34141 12.2168 4.02867 12.1204 4.74564C12.0305 5.41464 12.0305 6.25007 12.0306 7.21966L12.0306 10.7596C11.6885 10.6387 11.3204 10.5729 10.9368 10.5729H6.56185C4.74967 10.5729 3.2806 12.042 3.2806 13.8542V30.9896H2.91602C2.31195 30.9896 1.82227 31.4793 1.82227 32.0833C1.82227 32.6874 2.31195 33.1771 2.91602 33.1771H32.0827C32.6867 33.1771 33.1764 32.6874 33.1764 32.0833C33.1764 31.4793 32.6867 30.9896 32.0827 30.9896H31.7181V21.1458C31.7181 19.3336 30.249 17.8646 28.4368 17.8646H24.0618C23.6783 17.8646 23.3102 17.9304 22.9681 18.0513L22.9681 7.21967C22.9682 6.25007 22.9682 5.41465 22.8783 4.74564C22.7819 4.02867 22.5645 3.34141 22.007 2.78397C21.4496 2.22653 20.7623 2.00915 20.0454 1.91276C19.3764 1.82281 18.5409 1.82286 17.5714 1.82291ZM29.5306 30.9896V21.1458C29.5306 20.5418 29.0409 20.0521 28.4368 20.0521H24.0618C23.4578 20.0521 22.9681 20.5418 22.9681 21.1458V30.9896H29.5306ZM20.7806 30.9896V7.29166C20.7806 6.22955 20.7783 5.54299 20.7103 5.03712C20.6465 4.56272 20.5435 4.41403 20.4602 4.33077C20.377 4.24751 20.2283 4.14453 19.7539 4.08075C19.248 4.01274 18.5615 4.01041 17.4993 4.01041C16.4372 4.01041 15.7507 4.01274 15.2448 4.08075C14.7704 4.14453 14.6217 4.24751 14.5385 4.33077C14.4552 4.41403 14.3522 4.56272 14.2884 5.03712C14.2204 5.54299 14.2181 6.22955 14.2181 7.29166V30.9896H20.7806ZM12.0306 30.9896V13.8542C12.0306 13.2501 11.5409 12.7604 10.9368 12.7604H6.56185C5.95779 12.7604 5.4681 13.2501 5.4681 13.8542V30.9896H12.0306Z" fill="#BD9251"/>
</svg>
