<svg width="51" height="50" viewBox="0 0 51 50" fill="none" xmlns="http://www.w3.org/2000/svg">
<path fill-rule="evenodd" clip-rule="evenodd" d="M25.2971 2.60425H25.0805C23.2086 2.60419 21.6478 2.60415 20.4086 2.77073C19.1007 2.94658 17.9199 3.3334 16.971 4.28229C16.0221 5.23119 15.6353 6.41202 15.4594 7.71992C15.34 8.60819 15.3062 10.7323 15.2967 12.5535C11.0837 12.6911 8.55413 13.183 6.79624 14.9409C4.35547 17.3816 4.35547 21.3101 4.35547 29.1667C4.35547 37.0234 4.35547 40.952 6.79624 43.3926C9.23701 45.8334 13.1654 45.8334 21.0221 45.8334H29.3555C37.2121 45.8334 41.1407 45.8334 43.5813 43.3926C46.0221 40.952 46.0221 37.0234 46.0221 29.1667C46.0221 21.3101 46.0221 17.3816 43.5813 14.9409C41.8234 13.183 39.294 12.6911 35.0809 12.5535C35.0713 10.7323 35.0375 8.60819 34.9182 7.71992C34.7423 6.41202 34.3555 5.23119 33.4065 4.28229C32.4578 3.3334 31.2769 2.94658 29.969 2.77073C28.7298 2.60415 27.169 2.60419 25.2971 2.60425ZM31.9553 12.504C31.9459 10.7401 31.9159 8.8419 31.8211 8.13633C31.6917 7.17494 31.4684 6.7635 31.1969 6.492C30.9255 6.2205 30.514 5.99712 29.5525 5.86788C28.5463 5.73258 27.1971 5.72925 25.1888 5.72925C23.1805 5.72925 21.8313 5.73258 20.825 5.86788C19.8637 5.99712 19.4522 6.2205 19.1807 6.492C18.9092 6.7635 18.6858 7.17494 18.5566 8.13633C18.4617 8.8419 18.4317 10.7401 18.4223 12.504C19.2378 12.5001 20.1031 12.5001 21.0221 12.5001H29.3555C30.2746 12.5001 31.1398 12.5001 31.9553 12.504ZM25.1888 19.2709C26.0517 19.2709 26.7513 19.9705 26.7513 20.8334V20.8547C29.0196 21.4261 30.918 23.2147 30.918 25.6945C30.918 26.5574 30.2184 27.257 29.3555 27.257C28.4925 27.257 27.793 26.5574 27.793 25.6945C27.793 24.8945 26.9059 23.7849 25.1888 23.7849C23.4717 23.7849 22.5846 24.8945 22.5846 25.6945C22.5846 26.4947 23.4717 27.6042 25.1888 27.6042C28.074 27.6042 30.918 29.6038 30.918 32.639C30.918 35.1188 29.0196 36.9074 26.7513 37.4788V37.5001C26.7513 38.363 26.0517 39.0626 25.1888 39.0626C24.3259 39.0626 23.6263 38.363 23.6263 37.5001V37.4788C21.358 36.9074 19.4596 35.1188 19.4596 32.639C19.4596 31.7761 20.1592 31.0765 21.0221 31.0765C21.885 31.0765 22.5846 31.7761 22.5846 32.639C22.5846 33.439 23.4717 34.5486 25.1888 34.5486C26.9059 34.5486 27.793 33.439 27.793 32.639C27.793 31.8388 26.9059 30.7292 25.1888 30.7292C22.3036 30.7292 19.4596 28.7299 19.4596 25.6945C19.4596 23.2147 21.358 21.4261 23.6263 20.8547V20.8334C23.6263 19.9705 24.3259 19.2709 25.1888 19.2709Z" fill="#B1A38B"/>
</svg>
