<svg width="35" height="35" viewBox="0 0 35 35" fill="none" xmlns="http://www.w3.org/2000/svg">
<path d="M28.0408 12.8224C27.5065 12.8203 26.9842 12.9811 26.5437 13.2836C26.3625 12.7606 26.0234 12.3068 25.5732 11.9848C25.1231 11.6628 24.5841 11.4884 24.0307 11.4857C23.4963 11.4835 22.9741 11.6444 22.5335 11.9468C22.3523 11.4239 22.0132 10.9701 21.5631 10.6481C21.1129 10.326 20.574 10.1516 20.0205 10.1489C19.5493 10.1509 19.0875 10.2802 18.6838 10.5232V4.13368C18.6841 3.73651 18.5958 3.34426 18.4255 2.98545C18.2552 2.62664 18.0071 2.31028 17.6993 2.05937C17.3914 1.80845 17.0315 1.62929 16.6457 1.53491C16.2599 1.44052 15.8579 1.43327 15.4689 1.5137C14.8546 1.65215 14.3069 1.99847 13.9184 2.49411C13.53 2.98975 13.3245 3.60432 13.3369 4.23394V19.7333L11.5056 17.6413C10.9392 16.9987 10.1477 16.5981 9.29445 16.5222C8.44123 16.4463 7.59145 16.701 6.92058 17.2336L6.45273 17.6079C6.07182 17.9026 5.81332 18.3277 5.72696 18.8015C5.64059 19.2753 5.73245 19.7642 5.98487 20.1744L10.7503 27.8606C11.6653 29.5342 13.0024 30.9392 14.6287 31.9358C16.255 32.9325 18.1139 33.4861 20.0205 33.5416C22.8567 33.5416 25.5767 32.415 27.5822 30.4095C29.5876 28.404 30.7143 25.684 30.7143 22.8478V15.4958C30.7143 14.7868 30.4326 14.1068 29.9313 13.6054C29.4299 13.1041 28.7499 12.8224 28.0408 12.8224ZM20.0205 32.2049C18.346 32.1488 16.7153 31.6554 15.2907 30.7736C13.866 29.8919 12.697 28.6525 11.8999 27.1788L7.14782 19.4526C7.07082 19.3243 7.04262 19.1727 7.0684 19.0254C7.09418 18.878 7.17221 18.745 7.28818 18.6505L7.75603 18.2762C8.15862 17.9582 8.6678 17.8066 9.17879 17.8526C9.68978 17.8986 10.1637 18.1387 10.503 18.5235L13.504 21.9522C13.5937 22.054 13.7123 22.126 13.844 22.1588C13.9756 22.1915 14.1141 22.1834 14.2411 22.1355C14.368 22.0876 14.4774 22.0023 14.5547 21.8907C14.6319 21.7792 14.6734 21.6468 14.6736 21.5111V4.23394C14.6584 3.90969 14.755 3.59005 14.9472 3.32849C15.1394 3.06692 15.4156 2.87928 15.7296 2.79696C15.927 2.7545 16.1315 2.75732 16.3276 2.80521C16.5238 2.85309 16.7066 2.94479 16.8622 3.07342C17.0179 3.20205 17.1423 3.36428 17.2263 3.54791C17.3103 3.73154 17.3516 3.93181 17.347 4.13368V17.5009C17.347 17.6782 17.4175 17.8482 17.5428 17.9735C17.6681 18.0989 17.8381 18.1693 18.0154 18.1693C18.1927 18.1693 18.3627 18.0989 18.488 17.9735C18.6133 17.8482 18.6838 17.6782 18.6838 17.5009V12.8224C18.6838 12.4679 18.8246 12.1279 19.0753 11.8772C19.326 11.6265 19.666 11.4857 20.0205 11.4857C20.375 11.4857 20.715 11.6265 20.9657 11.8772C21.2164 12.1279 21.3572 12.4679 21.3572 12.8224V17.5009C21.3572 17.6782 21.4276 17.8482 21.553 17.9735C21.6783 18.0989 21.8483 18.1693 22.0256 18.1693C22.2028 18.1693 22.3728 18.0989 22.4982 17.9735C22.6235 17.8482 22.6939 17.6782 22.6939 17.5009V14.1591C22.6939 13.8046 22.8348 13.4646 23.0855 13.2139C23.3361 12.9632 23.6761 12.8224 24.0307 12.8224C24.3852 12.8224 24.7252 12.9632 24.9759 13.2139C25.2266 13.4646 25.3674 13.8046 25.3674 14.1591V17.5009C25.3674 17.6782 25.4378 17.8482 25.5632 17.9735C25.6885 18.0989 25.8585 18.1693 26.0358 18.1693C26.213 18.1693 26.383 18.0989 26.5084 17.9735C26.6337 17.8482 26.7041 17.6782 26.7041 17.5009V15.4958C26.7041 15.1413 26.845 14.8013 27.0956 14.5506C27.3463 14.3 27.6863 14.1591 28.0408 14.1591C28.3954 14.1591 28.7354 14.3 28.9861 14.5506C29.2367 14.8013 29.3776 15.1413 29.3776 15.4958V22.8478C29.3776 25.3295 28.3917 27.7095 26.6369 29.4643C24.8822 31.2191 22.5021 32.2049 20.0205 32.2049Z" fill="#BD9251" stroke="#BD9251" stroke-width="0.5"/>
</svg>
