<svg width="490" height="172" viewBox="0 0 490 172" fill="none" xmlns="http://www.w3.org/2000/svg">
<path d="M474 0.5C482.56 0.5 489.5 7.43959 489.5 16V132.312C489.5 140.872 482.56 147.812 474 147.812H460.688C454.424 147.812 449.345 152.89 449.345 159.155C449.345 165.973 443.818 171.5 437 171.5H16C7.43959 171.5 0.5 164.56 0.5 156V16L0.504883 15.5996C0.717249 7.22424 7.57345 0.5 16 0.5H474Z" stroke="#A7A9AC" stroke-opacity="0.4"/>
<path d="M464.97 164.437C464.97 166.086 463.635 167.426 461.983 167.426C460.331 167.426 459 166.089 459 164.437C459 162.784 460.335 161.447 461.987 161.447C463.639 161.447 464.974 162.787 464.974 164.437" fill="#A7A9AC"/>
<path fill-rule="evenodd" clip-rule="evenodd" d="M468.465 156.342C468.165 155.36 467.665 154.594 465.981 154.571C464.393 154.547 462.815 155.962 463.075 157.985C463.35 160.121 465.006 159.75 466.362 160.641C468.084 161.773 466.862 163.532 467.246 165.446C467.876 168.575 473.206 167.83 472.994 164.416C472.998 164.358 472.994 164.477 472.994 164.416C472.994 163.426 472.353 162.586 471.452 162.253C471.43 162.243 469.951 161.552 469.757 161.44C468.51 160.709 468.598 159.009 468.574 157.539C468.574 157.539 468.623 156.88 468.461 156.346" fill="#A7A9AC"/>
</svg>
