<svg width="35" height="35" viewBox="0 0 35 35" fill="none" xmlns="http://www.w3.org/2000/svg">
<path d="M26.671 4.21424C25.1724 4.01275 23.1968 4.01042 20.416 4.01042C19.812 4.01042 19.3223 3.52073 19.3223 2.91667C19.3223 2.31261 19.812 1.82292 20.416 1.82292H20.4983C23.1784 1.8229 25.3012 1.82288 26.9625 2.04624C28.6723 2.27612 30.0562 2.76046 31.1475 3.85182C32.1457 4.84996 32.6908 5.79929 32.9466 7.26541C33.1766 8.58333 33.1765 10.3607 33.1764 12.9845L33.1764 13.125C33.1764 13.7291 32.6868 14.2188 32.0827 14.2188C31.4786 14.2188 30.9889 13.7291 30.9889 13.125C30.9889 10.3263 30.9847 8.74796 30.7917 7.64144C30.6203 6.65972 30.3112 6.10902 29.6007 5.39862C28.9836 4.78143 28.1383 4.4115 26.671 4.21424Z" fill="#BD9251"/>
<path d="M4.00977 21.875C4.00977 21.2709 3.52008 20.7813 2.91602 20.7813C2.31196 20.7813 1.82227 21.2709 1.82227 21.875L1.82227 22.0155C1.8222 24.6392 1.82215 26.4167 2.05212 27.7346C2.30795 29.2007 2.85303 30.1501 3.85117 31.1482C4.94253 32.2396 6.32642 32.7239 8.0362 32.9538C9.69755 33.1771 11.8204 33.1771 14.5004 33.1771H14.5827C15.1868 33.1771 15.6764 32.6874 15.6764 32.0833C15.6764 31.4793 15.1868 30.9896 14.5827 30.9896C11.8019 30.9896 9.82635 30.9873 8.32768 30.7858C6.86046 30.5885 6.01515 30.2186 5.39797 29.6014C4.68756 28.891 4.37837 28.3403 4.20706 27.3586C4.01398 26.2521 4.00977 24.6737 4.00977 21.875Z" fill="#BD9251"/>
<path d="M33.1764 21.875C33.1764 21.2709 32.6868 20.7813 32.0827 20.7813C31.4786 20.7813 30.9889 21.2709 30.9889 21.875C30.9889 24.6737 30.9847 26.2521 30.7917 27.3586C30.6203 28.3403 30.3112 28.891 29.6007 29.6014C28.9836 30.2186 28.1383 30.5885 26.671 30.7858C25.1724 30.9873 23.1968 30.9896 20.416 30.9896C19.812 30.9896 19.3223 31.4793 19.3223 32.0833C19.3223 32.6874 19.812 33.1771 20.416 33.1771H20.4983C23.1784 33.1771 25.3012 33.1771 26.9625 32.9538C28.6723 32.7239 30.0562 32.2396 31.1475 31.1482C32.1457 30.1501 32.6908 29.2007 32.9466 27.7346C33.1766 26.4167 33.1765 24.6393 33.1764 22.0155L33.1764 21.875Z" fill="#BD9251"/>
<path d="M14.5827 1.82292H14.5004C11.8204 1.8229 9.69755 1.82288 8.0362 2.04624C6.32642 2.27612 4.94253 2.76046 3.85117 3.85182C2.85303 4.84996 2.30795 5.79929 2.05212 7.26541C1.82215 8.58332 1.8222 10.3607 1.82227 12.9845L1.82227 13.125C1.82227 13.7291 2.31196 14.2188 2.91602 14.2188C3.52008 14.2188 4.00977 13.7291 4.00977 13.125C4.00977 10.3263 4.01398 8.74796 4.20706 7.64144C4.37837 6.65972 4.68756 6.10902 5.39797 5.39862C6.01515 4.78143 6.86046 4.4115 8.32768 4.21424C9.82635 4.01275 11.8019 4.01042 14.5827 4.01042C15.1868 4.01042 15.6764 3.52073 15.6764 2.91667C15.6764 2.31261 15.1868 1.82292 14.5827 1.82292Z" fill="#BD9251"/>
<path fill-rule="evenodd" clip-rule="evenodd" d="M17.4994 13.4896C15.2845 13.4896 13.4889 15.2851 13.4889 17.5C13.4889 19.7149 15.2845 21.5104 17.4994 21.5104C19.7143 21.5104 21.5098 19.7149 21.5098 17.5C21.5098 15.2851 19.7143 13.4896 17.4994 13.4896ZM15.6764 17.5C15.6764 16.4932 16.4926 15.6771 17.4994 15.6771C18.5061 15.6771 19.3223 16.4932 19.3223 17.5C19.3223 18.5068 18.5061 19.3229 17.4994 19.3229C16.4926 19.3229 15.6764 18.5068 15.6764 17.5Z" fill="#BD9251"/>
<path fill-rule="evenodd" clip-rule="evenodd" d="M7.76407 13.782C9.6161 11.6337 12.7982 9.11459 17.4994 9.11459C22.2005 9.11459 25.3826 11.6337 27.2346 13.782L27.2817 13.8365C27.6769 14.2946 28.0834 14.7657 28.3626 15.3301C28.6749 15.9612 28.8014 16.6387 28.8014 17.5C28.8014 18.3613 28.6749 19.0388 28.3626 19.6699C28.0834 20.2344 27.6769 20.7054 27.2817 21.1635L27.2346 21.218C25.3826 23.3663 22.2005 25.8854 17.4994 25.8854C12.7982 25.8854 9.6161 23.3663 7.76407 21.218L7.717 21.1635C7.32178 20.7054 6.91536 20.2344 6.63607 19.6699C6.3238 19.0388 6.19727 18.3613 6.19727 17.5C6.19727 16.6387 6.3238 15.9612 6.63607 15.3301C6.91536 14.7657 7.32177 14.2946 7.717 13.8365L7.76407 13.782ZM17.4994 11.3021C13.6625 11.3021 11.0337 13.3395 9.42088 15.2103C8.96303 15.7414 8.74013 16.0103 8.5967 16.3002C8.47516 16.5458 8.38477 16.8671 8.38477 17.5C8.38477 18.1329 8.47516 18.4542 8.5967 18.6998C8.74013 18.9897 8.96303 19.2586 9.42088 19.7897C11.0337 21.6605 13.6625 23.6979 17.4994 23.6979C21.3362 23.6979 23.965 21.6605 25.5778 19.7897C26.0357 19.2586 26.2586 18.9897 26.402 18.6998C26.5236 18.4542 26.6139 18.1329 26.6139 17.5C26.6139 16.8671 26.5236 16.5458 26.402 16.3002C26.2586 16.0103 26.0357 15.7414 25.5778 15.2103C23.965 13.3395 21.3362 11.3021 17.4994 11.3021Z" fill="#BD9251"/>
</svg>
