<svg width="50" height="50" viewBox="0 0 50 50" fill="none" xmlns="http://www.w3.org/2000/svg">
<path d="M19.7891 4.1665C18.0632 4.1665 16.6641 5.56561 16.6641 7.2915V9.37484C16.6641 11.1007 18.0632 12.4998 19.7891 12.4998H30.2057C31.9316 12.4998 33.3307 11.1007 33.3307 9.37484V7.2915C33.3307 5.56561 31.9316 4.1665 30.2057 4.1665H19.7891Z" fill="#B1A38B"/>
<path fill-rule="evenodd" clip-rule="evenodd" d="M13.5417 8.40967C10.921 8.55669 9.26662 8.97429 8.08058 10.1603C6.25 11.9909 6.25 14.9372 6.25 20.8297V33.3298C6.25 39.2223 6.25 42.1686 8.08058 43.9992C9.91117 45.8298 12.8574 45.8298 18.75 45.8298H31.25C37.1425 45.8298 40.0887 45.8298 41.9194 43.9992C43.75 42.1686 43.75 39.2223 43.75 33.3298V20.8297C43.75 14.9372 43.75 11.9909 41.9194 10.1603C40.7333 8.97429 39.079 8.55669 36.4583 8.40967V9.37504C36.4583 12.8268 33.6602 15.625 30.2083 15.625H19.7917C16.3399 15.625 13.5417 12.8268 13.5417 9.37504V8.40967ZM14.5833 20.3125C13.7204 20.3125 13.0208 21.0121 13.0208 21.875C13.0208 22.738 13.7204 23.4375 14.5833 23.4375H15.625C16.4879 23.4375 17.1875 22.738 17.1875 21.875C17.1875 21.0121 16.4879 20.3125 15.625 20.3125H14.5833ZM21.875 20.3125C21.0121 20.3125 20.3125 21.0121 20.3125 21.875C20.3125 22.738 21.0121 23.4375 21.875 23.4375H35.4167C36.2796 23.4375 36.9792 22.738 36.9792 21.875C36.9792 21.0121 36.2796 20.3125 35.4167 20.3125H21.875ZM14.5833 27.6042C13.7204 27.6042 13.0208 28.3038 13.0208 29.1667C13.0208 30.0296 13.7204 30.7292 14.5833 30.7292H15.625C16.4879 30.7292 17.1875 30.0296 17.1875 29.1667C17.1875 28.3038 16.4879 27.6042 15.625 27.6042H14.5833ZM21.875 27.6042C21.0121 27.6042 20.3125 28.3038 20.3125 29.1667C20.3125 30.0296 21.0121 30.7292 21.875 30.7292H35.4167C36.2796 30.7292 36.9792 30.0296 36.9792 29.1667C36.9792 28.3038 36.2796 27.6042 35.4167 27.6042H21.875ZM14.5833 34.8959C13.7204 34.8959 13.0208 35.5955 13.0208 36.4584C13.0208 37.3213 13.7204 38.0209 14.5833 38.0209H15.625C16.4879 38.0209 17.1875 37.3213 17.1875 36.4584C17.1875 35.5955 16.4879 34.8959 15.625 34.8959H14.5833ZM21.875 34.8959C21.0121 34.8959 20.3125 35.5955 20.3125 36.4584C20.3125 37.3213 21.0121 38.0209 21.875 38.0209H35.4167C36.2796 38.0209 36.9792 37.3213 36.9792 36.4584C36.9792 35.5955 36.2796 34.8959 35.4167 34.8959H21.875Z" fill="#B1A38B"/>
</svg>
