<svg width="64" height="64" viewBox="0 0 64 64" fill="none" xmlns="http://www.w3.org/2000/svg">
<rect width="64" height="64" rx="32" fill="#F7F7F7"/>
<path d="M32.2197 21.02C38.8353 21.02 46.9659 31.2473 46.9658 39.5669C46.9658 42.7528 45.841 45.3079 43.6211 47.1597C41.1026 49.2612 37.2659 50.3257 32.2197 50.3257C27.1551 50.3257 23.308 49.2694 20.7842 47.1851C18.5589 45.3466 17.4307 42.808 17.4307 39.6392C17.4307 31.2871 25.5855 21.0201 32.2197 21.02ZM32.0791 28.8774C31.386 28.8774 30.8235 29.3888 30.8232 30.02V30.0356C29.0012 30.4538 27.4768 31.7626 27.4766 33.5767C27.4766 35.7975 29.7612 37.2612 32.0791 37.2612C33.4582 37.2613 34.1706 38.0723 34.1709 38.6577C34.1709 39.243 33.4585 40.0551 32.0791 40.0552C30.6996 40.0552 29.9873 39.243 29.9873 38.6577C29.9871 38.0265 29.4246 37.5151 28.7314 37.5151C28.0384 37.5152 27.4768 38.0266 27.4766 38.6577C27.4766 40.4719 29.0011 41.7805 30.8232 42.1987V42.2144C30.8232 42.8457 31.3858 43.3579 32.0791 43.3579C32.7723 43.3578 33.334 42.8457 33.334 42.2144V42.1987C35.1563 41.7806 36.6816 40.4721 36.6816 38.6577C36.6814 36.4373 34.3969 34.9742 32.0791 34.9741C30.6996 34.9741 29.9873 34.1621 29.9873 33.5767C29.9876 32.9914 30.6999 32.1802 32.0791 32.1802C33.4582 32.1802 34.1706 32.9914 34.1709 33.5767C34.1709 34.208 34.7335 34.7202 35.4268 34.7202C36.1199 34.7201 36.6816 34.2079 36.6816 33.5767C36.6814 31.7625 35.1562 30.4537 33.334 30.0356V30.02C33.3337 29.3889 32.7721 28.8775 32.0791 28.8774Z" fill="black"/>
<path d="M38.7028 15.2115C38.1537 14.9299 37.4792 15.1148 37.152 15.6385C36.6554 16.4345 35.9631 16.634 35.4697 16.661C34.6111 16.7221 33.7486 16.2859 33.1508 15.531C32.2519 14.3947 30.8294 13.7434 29.2492 13.7434C27.669 13.7434 26.2466 14.3947 25.3477 15.5309C25.0801 15.8681 25.0166 16.3229 25.1807 16.7213C25.3135 17.0434 25.966 18.5463 27.0492 20.0445C28.7576 19.1539 30.5136 18.6441 32.2194 18.6441C33.9248 18.6441 35.6807 19.1542 37.3886 20.0456C38.4725 18.547 39.1253 17.0433 39.2582 16.7211C39.4933 16.1497 39.2519 15.4938 38.7028 15.2115Z" fill="black"/>
</svg>
