<svg width="266" height="53" viewBox="0 0 266 53" fill="none" xmlns="http://www.w3.org/2000/svg">
<g clip-path="url(#clip0_5711_4738)">
<path d="M155.237 7.06995C164.534 7.06995 172.717 13.7114 172.717 23.4841C172.717 33.2568 164.534 39.9642 155.237 39.9642C145.94 39.9642 137.757 33.3887 137.757 23.4841C137.757 13.5796 145.998 7.06995 155.237 7.06995ZM155.237 32.095C159.823 32.095 163.728 28.4034 163.728 23.4841C163.728 18.5648 159.823 14.9392 155.237 14.9392C150.651 14.9392 146.746 18.5648 146.746 23.4841C146.746 28.4034 150.717 32.095 155.237 32.095Z" fill="white"/>
<path d="M175.143 7.06995H184.381V12.0469C187.048 8.35539 190.396 7.06995 194.243 7.06995C203.174 7.06995 205.592 14.1399 205.592 22.1328V39.2885H196.353V22.314C196.353 17.9468 194.741 14.6261 190.463 14.6261C186.184 14.6261 184.389 18.0045 184.389 22.3717V39.2803H175.151V7.06995H175.143Z" fill="white"/>
<path d="M219.01 7.14418H227.816V14.3377H219.01V29.7054C219.01 31.0568 219.566 32.4741 221.369 32.4741C223.172 32.4741 223.787 30.9991 223.787 29.5242C223.787 28.6013 223.538 27.3076 223.355 26.8214H230.674C231.231 27.9915 231.422 29.4665 231.422 30.5706C231.422 35.2428 228.323 39.9808 220.821 39.9808C215.238 39.9808 209.788 38.0114 209.788 28.8485L209.729 0.00830078H219.026V7.15242L219.01 7.14418Z" fill="white"/>
<path d="M9.23859 7.06995H0V39.2885H9.23859V7.06995Z" fill="white"/>
<path d="M37.5109 7.06995C34.4702 7.06995 29.8841 7.74563 27.4665 12.3601C25.8547 9.16292 22.5647 7.06995 17.7294 7.06995C15.561 7.06995 13.8661 7.72915 12.3125 8.8086V15.0793C12.7944 14.8486 13.5255 14.6343 14.5058 14.6343C18.6017 14.6343 19.8396 18.0127 19.8396 22.3223V39.2968H29.0118V22.3882C29.0118 18.1446 30.2497 14.6426 34.2791 14.6426C38.3085 14.6426 39.6129 18.021 39.6129 22.3305V39.305H48.8515V22.1492C48.8515 14.1564 46.4338 7.08643 37.5026 7.08643L37.5109 7.06995Z" fill="white"/>
<path d="M96.3987 7.06995H87.1602V39.2885H96.3987V7.06995Z" fill="white"/>
<path d="M124.663 7.06995C121.623 7.06995 117.036 7.74563 114.619 12.3601C113.007 9.16292 109.717 7.06995 104.882 7.06995C102.713 7.06995 101.018 7.72915 99.4648 8.8086V15.0793C99.9467 14.8486 100.678 14.6343 101.658 14.6343C105.754 14.6343 106.992 18.0127 106.992 22.3223V39.2968H116.164V22.3882C116.164 18.1446 117.402 14.6426 121.431 14.6426C125.461 14.6426 126.765 18.021 126.765 22.3305V39.305H136.004V22.1492C136.004 14.1564 133.586 7.08643 124.655 7.08643L124.663 7.06995Z" fill="white"/>
<path d="M63.4239 21.7372L56.9769 7.06995H47.7383L58.705 32.268L63.4239 21.7372Z" fill="white"/>
<path d="M74.5152 7.06995L53.9277 53H63.1912L83.7787 7.06995H74.5152Z" fill="white"/>
<path d="M245.646 21.7372L239.199 7.06995H229.96L240.935 32.268L245.646 21.7372Z" fill="white"/>
<path d="M256.737 7.06995L236.158 53H245.422L266.001 7.06995H256.737Z" fill="white"/>
</g>
<defs>
<clipPath id="clip0_5711_4738">
<rect width="266" height="53" fill="white"/>
</clipPath>
</defs>
</svg>
