<svg width="284" height="72" viewBox="0 0 284 72" fill="none" xmlns="http://www.w3.org/2000/svg">
<path d="M85.2187 20.5947H91.7545L98.6127 44.7824H98.7974L112.413 20.5947H118.952L114.429 52.5426H110.04L113.74 26.2805H113.649L99.0225 52.5443H96.0965L88.8738 26.2822H88.7848L85.0844 52.5426H80.6953M119.501 31.155H124.255L128.32 47.8512H128.414L136.913 31.155H141.304L127.362 57.1467C126.875 58.0806 126.38 58.9305 125.878 59.6998C125.374 60.4641 124.809 61.1192 124.186 61.66C123.56 62.2026 122.836 62.6208 122.013 62.9232C121.19 63.2222 120.215 63.3733 119.087 63.3733C118.477 63.3733 117.867 63.3347 117.256 63.2608C116.648 63.1869 116.083 63.029 115.566 62.7905L116.527 59.0884C117.288 59.4193 118.096 59.5856 118.949 59.5856C119.587 59.5856 120.145 59.5016 120.617 59.337C121.087 59.169 121.5 58.9305 121.85 58.6147C122.199 58.299 122.518 57.9294 122.807 57.5095C123.098 57.0896 123.378 56.6075 123.655 56.065L125.436 52.682L119.496 31.1567L119.501 31.155Z" fill="white"/>
<path d="M170.474 40.2254C170.474 42.1201 170.18 43.8653 169.601 45.4593C169.025 47.055 168.163 48.4374 167.021 49.6115C165.879 50.7873 164.454 51.7028 162.748 52.3663C161.041 53.0247 159.076 53.3573 156.852 53.3573C154.594 53.3573 152.616 53.0247 150.909 52.3663C149.204 51.7028 147.778 50.784 146.636 49.6115C145.494 48.4358 144.632 47.055 144.054 45.4593C143.476 43.867 143.188 42.1201 143.188 40.2254V20.5947H150.318V39.9533C150.318 40.9443 150.476 41.8648 150.797 42.708C151.116 43.5478 151.564 44.2785 152.144 44.8949C152.723 45.5114 153.417 45.9935 154.227 46.3395C155.029 46.6855 155.906 46.8602 156.852 46.8602C157.798 46.8602 158.666 46.6855 159.455 46.3395C160.252 45.9935 160.937 45.5131 161.515 44.8949C162.093 44.2785 162.543 43.5478 162.862 42.7063C163.181 41.8664 163.342 40.946 163.342 39.9516V20.5981H170.474V40.2287V40.2254ZM191.222 28.402C190.642 27.6797 189.858 27.1455 188.867 26.8012C187.876 26.4552 186.94 26.2805 186.055 26.2805C185.538 26.2805 185.004 26.3427 184.456 26.4653C183.907 26.5829 183.388 26.7727 182.902 27.028C182.415 27.285 182.017 27.6226 181.713 28.0425C181.407 28.4624 181.256 28.9747 181.256 29.5778C181.256 30.5402 181.622 31.2776 182.353 31.7882C183.085 32.3006 184.006 32.7373 185.12 33.0984C186.232 33.4579 187.427 33.8207 188.709 34.1818C189.986 34.5396 191.183 35.0519 192.297 35.7137C193.406 36.3755 194.329 37.2624 195.062 38.376C195.792 39.4897 196.157 40.9796 196.157 42.844C196.157 44.6195 195.821 46.1698 195.149 47.4918C194.481 48.8187 193.573 49.9139 192.431 50.7873C191.289 51.6608 189.962 52.3075 188.455 52.7274C186.947 53.1507 185.355 53.3623 183.68 53.3623C181.577 53.3623 179.627 53.0432 177.83 52.4133C176.032 51.78 174.358 50.7588 172.804 49.3445L177.877 43.8401C178.609 44.8009 179.53 45.5467 180.643 46.0741C181.755 46.5982 182.906 46.8636 184.093 46.8636C184.671 46.8636 185.257 46.7964 185.852 46.6586C186.445 46.5243 186.977 46.3227 187.451 46.0489C187.921 45.7768 188.303 45.4325 188.593 45.0108C188.882 44.5909 189.027 44.0937 189.027 43.521C189.027 42.5585 188.652 41.8009 187.906 41.2416C187.16 40.6873 186.226 40.2119 185.096 39.8206C183.971 39.4292 182.75 39.0395 181.439 38.6448C180.129 38.2551 178.911 37.7293 177.783 37.0659C176.657 36.4057 175.717 35.534 174.972 34.4489C174.223 33.3655 173.852 31.9361 173.852 30.1606C173.852 28.4473 174.195 26.9423 174.88 25.6473C175.565 24.3539 176.479 23.2705 177.623 22.3987C178.765 21.5253 180.082 20.8702 181.575 20.4335C183.07 20.0001 184.609 19.7817 186.195 19.7817C188.022 19.7817 189.789 20.0387 191.496 20.5494C193.201 21.0617 194.741 21.9183 196.112 23.1227L191.22 28.3969L191.222 28.402Z" fill="white"/>
<path d="M221.482 36.8368C220.844 36.0574 220.138 35.4628 219.362 35.0563C218.586 34.6498 217.622 34.4466 216.468 34.4466C215.343 34.4466 214.332 34.6481 213.435 35.0563C212.539 35.4594 211.755 36.0188 211.088 36.7259C210.42 37.4314 209.879 38.2444 209.471 39.1615C209.059 40.0803 208.779 41.0344 208.627 42.0271C208.473 43.0215 208.507 43.9587 208.718 44.849C208.931 45.7342 209.294 46.5119 209.81 47.1703C210.327 47.8321 210.989 48.3511 211.792 48.7257C212.598 49.102 213.532 49.2901 214.597 49.2901C215.751 49.2901 216.767 49.0885 217.651 48.6804C218.531 48.2772 219.364 47.6843 220.154 46.8999L222.661 49.789C221.412 50.9614 220.048 51.8046 218.571 52.3152C217.093 52.8259 215.561 53.0829 213.977 53.0829C212.301 53.0829 210.808 52.8141 209.498 52.2716C208.187 51.7307 207.104 50.9715 206.252 49.9939C205.396 49.0197 204.791 47.8439 204.421 46.4749C204.057 45.1076 203.997 43.5942 204.24 41.9397C204.452 40.2852 204.932 38.7651 205.68 37.381C206.425 36.0003 207.371 34.8111 208.513 33.8201C209.655 32.8257 210.959 32.053 212.422 31.4953C213.883 30.9377 215.469 30.6605 217.175 30.6605C218.761 30.6605 220.233 30.936 221.588 31.4937C222.944 32.0513 224.079 32.8996 224.993 34.0418L221.482 36.8435V36.8368ZM228.833 41.849C228.678 42.9324 228.703 43.9318 228.9 44.849C229.098 45.7678 229.454 46.5488 229.975 47.1955C230.495 47.8439 231.171 48.3545 232.007 48.7307C232.847 49.1087 233.815 49.2968 234.913 49.2968C236.008 49.2968 237.021 49.112 237.953 48.7324C238.881 48.3595 239.695 47.8472 240.396 47.1989C241.096 46.5522 241.682 45.7711 242.159 44.8523C242.63 43.9352 242.942 42.9375 243.095 41.8524C243.246 40.769 243.226 39.7696 243.028 38.8524C242.83 37.9353 242.463 37.1526 241.931 36.5059C241.397 35.8609 240.722 35.3469 239.898 34.9723C239.075 34.5977 238.115 34.4079 237.018 34.4079C235.921 34.4079 234.908 34.5977 233.977 34.974C233.049 35.3503 232.224 35.8642 231.508 36.5092C230.794 37.1576 230.208 37.9404 229.75 38.8575C229.291 39.7729 228.987 40.7723 228.834 41.8574M224.447 41.8574C224.659 40.2953 225.162 38.834 225.955 37.4801C226.745 36.1263 227.736 34.9387 228.928 33.9141C230.114 32.8895 231.448 32.0866 232.926 31.5004C234.404 30.9125 235.949 30.6202 237.565 30.6202C239.178 30.6202 240.643 30.9125 241.954 31.5004C243.265 32.0883 244.37 32.8945 245.268 33.9141C246.169 34.9387 246.814 36.1263 247.212 37.4801C247.607 38.834 247.699 40.2936 247.486 41.8574C247.242 43.4195 246.73 44.8893 245.954 46.2582C245.178 47.6255 244.195 48.8114 243.008 49.8226C241.818 50.8304 240.485 51.6282 239.01 52.2144C237.532 52.8023 235.983 53.0946 234.369 53.0946C232.751 53.0946 231.283 52.8023 229.958 52.2144C228.631 51.6265 227.529 50.8304 226.644 49.8226C225.76 48.8147 225.112 47.6272 224.702 46.2565C224.291 44.8876 224.205 43.4212 224.45 41.8557M251.868 31.1544H255.708L255.251 34.4936H255.343C255.494 34.1946 255.783 33.8167 256.212 33.3682C256.637 32.9147 257.186 32.4864 257.854 32.0816C258.526 31.6734 259.277 31.3257 260.115 31.0401C260.955 30.7546 261.859 30.6118 262.833 30.6118C265.969 30.6118 268.023 31.9354 268.998 34.5826C269.91 33.2557 271.05 32.2646 272.417 31.6028C273.785 30.941 275.122 30.6118 276.432 30.6118C278.102 30.6118 279.432 30.8806 280.42 31.4231C281.407 31.9606 282.136 32.6779 282.608 33.5647C283.079 34.455 283.352 35.4628 283.431 36.5882C283.505 37.717 283.451 38.8827 283.268 40.0853L281.579 52.5403H277.463L279.155 40.6262C279.272 39.8132 279.328 39.0305 279.313 38.278C279.296 37.5271 279.166 36.867 278.926 36.2926C278.681 35.7215 278.276 35.2629 277.714 34.9152C277.149 34.5709 276.366 34.3979 275.362 34.3979C273.38 34.3979 271.878 34.9992 270.86 36.2019C269.836 37.4062 269.191 38.9566 268.915 40.8496L267.269 52.5369H263.157L264.709 41.3468C264.86 40.3222 264.944 39.3916 264.961 38.5484C264.978 37.7086 264.871 36.9779 264.642 36.3614C264.414 35.745 264.026 35.2646 263.476 34.9169C262.927 34.5709 262.149 34.3962 261.145 34.3962C260.413 34.3962 259.684 34.539 258.95 34.8262C258.219 35.1117 257.559 35.5417 256.964 36.1112C256.37 36.6856 255.859 37.4146 255.432 38.2998C255.006 39.1901 254.7 40.2315 254.519 41.4358L252.963 52.5386H248.851L251.868 31.151V31.1544Z" fill="white"/>
<path d="M52.8383 43.9842C55.3293 50.4712 57.5079 57.1363 59.3606 63.9223L42.4796 71.5649C38.4937 65.7431 34.8135 59.7801 31.4356 53.6711L52.8383 43.9842ZM43.6 19.2137C50.1122 16.7882 56.7772 14.7087 63.6052 12.9652L71.7283 29.7656C65.8711 33.7246 59.8696 37.3746 53.7286 40.7172L43.6 19.2137ZM28.9362 0.437988C32.9507 6.2296 36.4949 11.8264 39.871 17.9119L18.4649 27.5987C15.9622 21.0983 13.9633 14.8935 12.0653 8.10918L28.9362 0.437988ZM17.7376 31.1093L27.7033 52.6834C21.1693 55.1744 14.4807 57.358 7.65272 59.2342L0 42.2189C5.75297 38.1708 11.6622 34.4721 17.7376 31.1093Z" fill="#D13239"/>
<path d="M9.82057 12.1158C11.1878 17.81 12.8608 23.3581 14.8429 28.7667C9.84409 31.6171 4.99984 34.8002 0.306753 38.3158C-0.902632 28.5467 2.65497 18.7473 9.82226 12.1158M59.6842 11.1349C53.906 12.4198 48.2622 14.0072 42.7629 15.9052C39.9309 10.9384 36.7613 6.11929 33.2558 1.44973C43.1609 0.364639 53.0477 3.98607 59.6842 11.1349ZM61.253 60.2191C59.8874 54.5249 58.2127 48.9752 56.2307 43.5665C61.2312 40.7161 66.0771 37.5331 70.7685 34.0174C71.9779 43.7883 68.4203 53.5893 61.253 60.2208M11.4633 61.6502C17.2079 60.2225 22.808 58.4924 28.257 56.4566C31.2132 61.3529 34.5055 66.0913 38.1336 70.6719C28.257 72.0022 18.2795 68.6294 11.4633 61.6502ZM203.063 49.8385C203.063 51.4561 201.733 52.7696 200.09 52.7696C198.453 52.7696 197.122 51.4561 197.122 49.8369C197.122 48.2159 198.449 46.9024 200.09 46.9024C201.731 46.9024 203.063 48.2159 203.063 49.8352" fill="#276092"/>
</svg>
