<svg width="64" height="65" viewBox="0 0 64 65" fill="none" xmlns="http://www.w3.org/2000/svg">
<rect y="0.5" width="64" height="64" rx="32" fill="#F7F7F7"/>
<g clip-path="url(#clip0_5751_16304)">
<path d="M27.9087 43.6614C29.0351 43.6614 32.1665 43.6614 32.1665 43.6614C32.1665 43.6614 35.2973 43.6614 36.4243 43.6614C37.5502 43.6614 38.0613 42.0233 37.4097 40.8655C36.9189 39.993 36.1147 39.0037 34.806 38.4419C34.0569 38.9663 33.1469 39.2747 32.1665 39.2747C31.1849 39.2747 30.2761 38.9663 29.527 38.4419C28.2178 39.0037 27.4141 39.993 26.9228 40.8655C26.2717 42.0233 26.7823 43.6614 27.9087 43.6614Z" fill="black"/>
<path d="M32.1668 38.1786C34.0902 38.1786 35.6485 36.621 35.6485 34.6975V33.8635C35.6485 31.9401 34.0902 30.3813 32.1668 30.3813C30.2433 30.3813 28.6846 31.9401 28.6846 33.8635V34.6975C28.6846 36.621 30.2433 38.1786 32.1668 38.1786Z" fill="black"/>
<path d="M42.5051 18.8433H37.242V19.9713C37.242 22.1481 35.4706 23.9196 33.2938 23.9196H31.0376C28.8608 23.9196 27.0894 22.1481 27.0894 19.9713V18.8433H21.8264C20.0605 18.8433 18.6289 20.2748 18.6289 22.0407V47.2316C18.6289 48.9975 20.0605 50.429 21.8264 50.429H42.505C44.2709 50.429 45.7024 48.9975 45.7024 47.2316V22.0407C45.7025 20.2748 44.2709 18.8433 42.5051 18.8433ZM42.3183 47.0448H22.0131V25.3296H42.3183V47.0448Z" fill="black"/>
<path d="M31.0379 22.792H33.2941C34.8491 22.792 36.1142 21.5268 36.1142 19.9718V17.7157C36.1142 16.1607 34.849 14.8955 33.2941 14.8955H31.0379C29.483 14.8955 28.2178 16.1607 28.2178 17.7157V19.9718C28.2178 21.5267 29.483 22.792 31.0379 22.792ZM30.4739 17.7157C30.4739 17.4039 30.7262 17.1516 31.0379 17.1516H33.2941C33.6059 17.1516 33.8581 17.4039 33.8581 17.7157V18.8437C33.8581 19.1555 33.6059 19.4078 33.2941 19.4078H31.0379C30.7262 19.4078 30.4739 19.1555 30.4739 18.8437V17.7157Z" fill="black"/>
</g>
<defs>
<clipPath id="clip0_5751_16304">
<rect width="35.534" height="35.534" fill="white" transform="translate(14.3975 14.896)"/>
</clipPath>
</defs>
</svg>
