<svg width="122" height="141" viewBox="0 0 122 141" fill="none" xmlns="http://www.w3.org/2000/svg">
<g filter="url(#filter0_d_5878_7429)">
<path d="M105.898 75.7471C103.347 63.8542 91.2181 57.4172 85.154 52.4912C83.6036 51.2352 80.856 50.4895 77.4216 50.1362C82.1906 48.0756 86.3903 45.5047 87.7445 42.6786C90.9434 36.0061 92.847 28.6074 93.4947 22.9946C94.1423 17.3621 93.4947 10.6896 93.4947 10.6896L45.2952 19.1284L26.4746 22.9946C26.4746 22.9946 27.7502 32.4932 30.6155 39.8722C33.4808 47.2513 33.8144 49.1157 38.603 51.353C40.6048 52.2754 43.9214 53.1389 47.4736 53.7865C46.3157 54.179 45.2363 54.6108 44.3139 55.0425C34.4228 59.6937 24.8457 67.6223 20.3712 75.7667C15.8966 83.9112 13.993 88.7194 12.7173 99.9646C11.4417 111.21 12.7173 124.751 12.7173 124.751C12.7173 124.751 75.5965 118.255 85.8016 117.549C96.0067 116.842 109.097 116.842 109.097 116.842C109.097 116.842 109.097 110.17 109.097 103.693C109.097 97.2171 108.469 87.6596 105.898 75.7471Z" fill="#7267FE"/>
<path d="M12.7178 124.751L8.19141 125.178L8.62109 129.745L13.1846 129.274L12.7178 124.751ZM12.7178 124.751L13.1855 129.274H13.1875C13.1894 129.273 13.1926 129.273 13.1963 129.273C13.2038 129.272 13.2149 129.27 13.2295 129.269C13.2597 129.266 13.3057 129.261 13.3652 129.255C13.4844 129.243 13.6615 129.224 13.8926 129.2C14.3553 129.153 15.0353 129.083 15.9043 128.993C17.6429 128.814 20.1387 128.558 23.165 128.248C29.2179 127.628 37.3943 126.794 45.8887 125.939C62.932 124.221 81.1037 122.431 86.1152 122.084L88.0186 121.963C92.522 121.697 97.4085 121.553 101.364 121.476C103.617 121.432 105.555 121.41 106.928 121.4C107.614 121.394 108.159 121.391 108.531 121.39C108.717 121.389 108.86 121.389 108.955 121.389H113.644V103.693C113.644 97.1349 113.027 87.6569 110.584 75.9298L110.342 74.7882C108.781 67.5192 104.337 62.1489 99.8906 58.1329C97.657 56.1153 95.3393 54.3655 93.2754 52.8585C91.2177 51.356 89.5612 50.1946 88.1992 49.1036C89.6507 47.8857 90.9975 46.4117 91.8447 44.6437L91.8438 44.6427C95.2749 37.4853 97.3093 29.5951 98.0107 23.5157L98.0117 23.5138C98.3726 20.3749 98.3655 17.0442 98.2812 14.5753C98.2385 13.3238 98.1749 12.2564 98.1211 11.4982C98.0942 11.119 98.0698 10.8154 98.0518 10.6027C98.0427 10.4962 98.0347 10.4119 98.0293 10.3527C98.0266 10.3231 98.0241 10.2995 98.0225 10.2823C98.0217 10.274 98.021 10.2671 98.0205 10.2618C98.0203 10.2593 98.0207 10.2568 98.0205 10.255L98.0195 10.2521V10.2511C98.012 10.2514 97.8321 10.2686 93.4951 10.6896L98.0195 10.2501L97.5459 5.36438L92.7109 6.21106L44.5107 14.6505L44.4453 14.6613L44.3799 14.6749L25.5596 18.5411L21.4043 19.3947L21.9688 23.5997L26.4746 22.9943C21.9687 23.5994 21.9687 23.6002 21.9688 23.6007V23.6017C21.9689 23.6025 21.9696 23.6035 21.9697 23.6046C21.97 23.6069 21.9702 23.61 21.9707 23.6134C21.9716 23.6203 21.9731 23.6294 21.9746 23.6407C21.9778 23.6636 21.9816 23.6959 21.9873 23.7365C21.9987 23.8176 22.0153 23.9335 22.0371 24.0812C22.0807 24.3764 22.1452 24.7995 22.2314 25.3273C22.4037 26.3816 22.6644 27.8615 23.0176 29.5812C23.7157 32.9805 24.8105 37.4835 26.377 41.5177L27.3076 43.9435C28.2044 46.2821 29.0281 48.3391 30.0303 49.9464C31.411 52.1607 33.1061 53.5893 35.3281 54.7931C27.449 59.7408 20.3084 66.4394 16.3867 73.5773C14.1044 77.7314 12.3519 81.2576 11.0264 85.2804C9.78264 89.0551 8.96458 93.1116 8.3252 98.382L8.2002 99.4523C7.52615 105.394 7.5328 111.843 7.69531 116.726C7.77716 119.185 7.89932 121.284 8.00195 122.773C8.05331 123.517 8.09986 124.111 8.13379 124.522C8.15073 124.727 8.16501 124.887 8.1748 124.997C8.17971 125.053 8.18377 125.096 8.18652 125.126C8.18788 125.141 8.18866 125.153 8.18945 125.161C8.18985 125.166 8.19018 125.169 8.19043 125.172V125.177L12.7178 124.751Z" stroke="white" stroke-width="9.09276"/>
</g>
<defs>
<filter id="filter0_d_5878_7429" x="0.025722" y="0.0400391" width="121.195" height="140.76" filterUnits="userSpaceOnUse" color-interpolation-filters="sRGB">
<feFlood flood-opacity="0" result="BackgroundImageFix"/>
<feColorMatrix in="SourceAlpha" type="matrix" values="0 0 0 0 0 0 0 0 0 0 0 0 0 0 0 0 0 0 127 0" result="hardAlpha"/>
<feOffset dy="3.03092"/>
<feGaussianBlur stdDeviation="1.51546"/>
<feComposite in2="hardAlpha" operator="out"/>
<feColorMatrix type="matrix" values="0 0 0 0 0 0 0 0 0 0 0 0 0 0 0 0 0 0 0.1 0"/>
<feBlend mode="normal" in2="BackgroundImageFix" result="effect1_dropShadow_5878_7429"/>
<feBlend mode="normal" in="SourceGraphic" in2="effect1_dropShadow_5878_7429" result="shape"/>
</filter>
</defs>
</svg>
