<svg width="262" height="725" viewBox="0 0 262 725" fill="none" xmlns="http://www.w3.org/2000/svg">
<g clip-path="url(#clip0_1119_2932)">
<path d="M221.756 438.626C92.826 323.089 67.973 215.112 78.548 188.265" stroke="#7367FF" stroke-width="22.793" stroke-linecap="round" stroke-linejoin="round"/>
<path d="M57.7187 323.513C48.2947 354.711 63.6297 387.831 98.8917 399.178" stroke="#47A58B" stroke-width="22.793" stroke-linecap="round" stroke-linejoin="round"/>
<path d="M92.9648 134.065C93.3958 100.995 90.2278 70.1679 127.908 27.1006" stroke="#83C7E8" stroke-width="22.793" stroke-linecap="round" stroke-linejoin="round"/>
<path d="M-276.266 489.842C-199.701 458.214 -131.726 551.712 -91.543 602.393C-51.359 653.075 42.574 796.53 148.772 648.23" stroke="#FBC760" stroke-width="22.793" stroke-linecap="round" stroke-linejoin="round"/>
<path d="M-213.844 440.059C-116.082 474.298 -61.8793 533.297 -46.1573 578.306C-26.2383 635.327 21.1578 663.536 56.4518 653.421C132.827 631.533 137.674 531.311 51.7078 492.759C-34.2592 454.207 -29.2702 510.965 -195.51 348.391" stroke="#F98BB0" stroke-width="22.793" stroke-linecap="round" stroke-linejoin="round"/>
<path d="M189.256 608.627C196.517 571.396 193.37 503.556 67.0753 439.395C-90.7937 359.194 -197.095 306.769 -197.095 226.597" stroke="#47A58B" stroke-width="22.793" stroke-linecap="round" stroke-linejoin="round"/>
<path d="M7.05136 590.691C15.5234 608.033 43.3714 612.118 53.3304 594.704C65.7794 572.937 68.7904 529.1 -16.9316 521.42" stroke="#7367FF" stroke-width="22.793" stroke-linecap="round" stroke-linejoin="round"/>
<path d="M250.292 119.69C227.724 112.446 212.478 90.1509 166.412 109.908C120.347 129.665 130.634 215.6 183.311 289.111C199.131 311.187 212.672 328.254 224.863 341.914" stroke="#E95942" stroke-width="22.793" stroke-linecap="round" stroke-linejoin="round"/>
<path d="M-168.306 62.9338C-138.923 235.071 -87.8867 283.729 -55.2827 309C-22.6787 334.27 30.0413 319.652 36.9843 241.265C40.3803 202.919 34.2363 112.385 46.0463 57.3838C49.3473 42.0124 52.9143 26.7155 56.1243 11.6265M-60.7337 51.9338C-62.4777 36.3014 -65.4927 22.9584 -69.4447 11.6265" stroke="#F98BB0" stroke-width="22.793" stroke-linecap="round" stroke-linejoin="round"/>
</g>
<defs>
<clipPath id="clip0_1119_2932">
<rect width="262" height="725" fill="white"/>
</clipPath>
</defs>
</svg>
