<svg width="141" height="141" viewBox="0 0 141 141" fill="none" xmlns="http://www.w3.org/2000/svg">
<g filter="url(#filter0_d_5878_7426)">
<path d="M76.9852 9.31536C73.0602 9.09948 70.1949 11.062 63.6597 16.2627C46.1344 30.2358 35.3405 40.3232 35.3405 40.3232C15.892 58.5157 11.8688 60.6156 12.2417 65.9341C12.4183 68.4853 13.38 68.3283 25.9597 84.107C34.634 94.9597 34.3985 95.3522 39.2852 100.533C44.9961 106.597 49.7651 110.483 55.2994 114.997C63.8167 121.944 68.0754 125.418 70.7052 125.693C75.7685 126.242 78.3982 123.2 99.0636 104.203C99.0636 104.203 101.988 101.515 119.435 83.2827C124.576 77.9054 128.148 74.0589 127.873 68.976C127.657 65.2472 125.361 62.009 122.28 57.6522C119.572 53.8057 115.725 49.861 115.392 49.5078C114.646 48.7424 114.077 48.1929 113.881 48.0162C108.523 42.7763 99.2991 30.962 96.5908 27.5668C87.0726 15.615 82.3036 9.62936 76.9852 9.31536Z" fill="#F68231"/>
<path d="M77.2354 4.776H77.2441L77.2529 4.77698C81.6343 5.03566 85.1749 7.62736 88.4189 10.8531C91.6978 14.1136 95.4613 18.8507 100.147 24.735H100.146C102.983 28.2912 111.94 39.752 117.04 44.7467C117.284 44.9737 117.657 45.3348 118.099 45.778L118.648 46.3346L118.673 46.36L118.697 46.3864C118.71 46.3992 119.128 46.8344 119.544 47.278C120.015 47.7806 120.641 48.4586 121.345 49.2516C122.735 50.8172 124.498 52.906 125.992 55.027L127.068 56.5475C129.507 60.0123 131.962 63.7956 132.375 68.2194L132.412 68.7135L132.413 68.7223V68.7301C132.619 72.534 131.332 75.7237 129.477 78.528C127.707 81.2017 125.22 83.8104 122.721 86.4244L122.719 86.4264C113.987 95.5511 108.877 100.799 105.942 103.773C104.475 105.26 103.547 106.184 102.979 106.742C102.694 107.021 102.497 107.211 102.366 107.337C102.301 107.399 102.251 107.447 102.215 107.481C102.197 107.498 102.182 107.512 102.17 107.523C102.164 107.529 102.158 107.534 102.153 107.539C102.151 107.541 102.149 107.543 102.146 107.545L102.143 107.548L99.0635 104.203L102.141 107.549V107.55C91.9393 116.928 85.9034 122.638 81.8555 125.842C79.8059 127.465 77.9399 128.717 76.0322 129.468C73.9578 130.285 72.0908 130.413 70.2324 130.214V130.214C70.2288 130.214 70.2253 130.213 70.2217 130.213C70.2194 130.212 70.2171 130.213 70.2148 130.213V130.212C68.7546 130.056 67.4169 129.508 66.2754 128.91C65.1003 128.294 63.8584 127.477 62.5527 126.536C60.606 125.133 58.2508 123.258 55.4189 120.959L52.4258 118.52C46.8878 114.003 41.9121 109.953 35.9775 103.652V103.653C30.9291 98.3004 30.8218 97.4724 22.4082 86.9459L22.4053 86.941C16.1074 79.0416 12.8768 75.3279 10.9248 72.9323C10.0299 71.8339 9.22076 70.7966 8.66992 69.7526C7.97834 68.4415 7.77943 67.3076 7.70605 66.2516L7.68457 65.8698C7.60263 63.9598 7.92428 62.1058 8.91113 60.1764C9.8627 58.3161 11.3362 56.5877 13.1094 54.776C16.58 51.2301 22.7253 45.8975 32.2344 37.0026L32.2363 37.0016L35.0693 40.0328L35.168 40.1383L32.2373 37.0006C32.2379 37.0001 32.2393 36.9995 32.2402 36.9987C32.2421 36.9969 32.2439 36.9938 32.2471 36.9908C32.2534 36.985 32.2629 36.9771 32.2744 36.9664C32.2975 36.945 32.3303 36.9132 32.374 36.8727C32.4616 36.7915 32.5908 36.6727 32.7598 36.5172C33.098 36.206 33.5977 35.7484 34.25 35.1578C35.5546 33.9767 37.4723 32.2612 39.9385 30.108C44.8708 25.8019 52.0023 19.7422 60.8252 12.7076L60.8291 12.7057L63.0615 10.9401C68.0959 7.01252 72.0132 4.48878 77.2354 4.776Z" stroke="white" stroke-width="9.09276"/>
</g>
<defs>
<filter id="filter0_d_5878_7426" x="0.0960345" y="0.207703" width="139.915" height="140.698" filterUnits="userSpaceOnUse" color-interpolation-filters="sRGB">
<feFlood flood-opacity="0" result="BackgroundImageFix"/>
<feColorMatrix in="SourceAlpha" type="matrix" values="0 0 0 0 0 0 0 0 0 0 0 0 0 0 0 0 0 0 127 0" result="hardAlpha"/>
<feOffset dy="3.03092"/>
<feGaussianBlur stdDeviation="1.51546"/>
<feComposite in2="hardAlpha" operator="out"/>
<feColorMatrix type="matrix" values="0 0 0 0 0 0 0 0 0 0 0 0 0 0 0 0 0 0 0.1 0"/>
<feBlend mode="normal" in2="BackgroundImageFix" result="effect1_dropShadow_5878_7426"/>
<feBlend mode="normal" in="SourceGraphic" in2="effect1_dropShadow_5878_7426" result="shape"/>
</filter>
</defs>
</svg>
