<svg width="687" height="949" viewBox="0 0 687 949" fill="none" xmlns="http://www.w3.org/2000/svg">
<g clip-path="url(#clip0_96_13)">
<g opacity="0.1">
<path d="M240.395 113.623L212.75 206.5" stroke="#DB0032" stroke-width="18.668" stroke-linecap="round" stroke-linejoin="round"/>
<path d="M254.755 229.63C235.526 245.475 192.717 264.47 175.324 213.695" stroke="#DB0032" stroke-width="18.668" stroke-linecap="round" stroke-linejoin="round"/>
<path d="M149.259 203.214C132.198 215.205 94.3017 239.447 79.2077 240.49L69.9072 175.038L-5.46452 187.484" stroke="#DB0032" stroke-width="18.668" stroke-linecap="round" stroke-linejoin="round"/>
<path d="M123.333 277.363L38.3402 289.861L48.5968 351.118" stroke="#DB0032" stroke-width="18.668" stroke-linecap="round" stroke-linejoin="round"/>
<path d="M193.795 407.946C167.112 398.205 110.762 391.639 98.8174 443.305C86.8728 494.971 106.908 509.661 118.418 510.549" stroke="#DB0032" stroke-width="18.668" stroke-linecap="square" stroke-linejoin="round"/>
<path d="M74.2118 512.26L31.3609 499.775L21.6254 570.779" stroke="#DB0032" stroke-width="18.668" stroke-linecap="round" stroke-linejoin="round"/>
<path d="M152.752 560.964C133.516 570.713 88.8178 581.643 63.9199 547.375" stroke="#DB0032" stroke-width="18.668" stroke-linecap="round" stroke-linejoin="round"/>
<path d="M489.683 721.647C493.415 697.774 485.326 634.654 399.878 570.713" stroke="#DB0032" stroke-width="18.668" stroke-linecap="round" stroke-linejoin="round"/>
<path d="M-14.4658 247.889L39.5111 226.84" stroke="#DB0032" stroke-width="18.668" stroke-linecap="round" stroke-linejoin="round"/>
<path d="M361.041 494.403L294.955 425.858L267.536 503.078L198.784 436.787L201.824 546.162" stroke="#DB0032" stroke-width="18.668" stroke-linecap="round" stroke-linejoin="round"/>
<path d="M144.013 718.565C131.027 706.307 97.1194 683.562 65.372 690.641" stroke="#DB0032" stroke-width="18.668" stroke-linecap="round" stroke-linejoin="round"/>
<path d="M181.202 646.56C173.098 621.809 145.218 581.288 98.5352 617.204" stroke="#DB0032" stroke-width="18.668" stroke-linecap="round" stroke-linejoin="round"/>
<path d="M269.31 805.958C297.414 818.538 357.129 826.923 371.162 759.834" stroke="#DB0032" stroke-width="18.668" stroke-linecap="round" stroke-linejoin="round"/>
<path d="M-11.499 583.726C-23.4004 605.354 -63.7403 639.29 -129.89 602.018" stroke="#DB0032" stroke-width="18.668" stroke-linecap="round" stroke-linejoin="round"/>
<path d="M622.402 372.352C598.313 350.888 534.052 315.518 469.721 345.743" stroke="#DB0032" stroke-width="18.668" stroke-linecap="round" stroke-linejoin="round"/>
<path d="M36.5439 617.201L42.1846 663.351" stroke="#DB0032" stroke-width="18.668" stroke-linecap="round" stroke-linejoin="round"/>
<path d="M106.295 736.377L123.942 803.201L167.156 767.308L187.221 833.807L222.492 766.774" stroke="#DB0032" stroke-width="18.668" stroke-linecap="round" stroke-linejoin="round"/>
<path d="M346.553 59.7695L364.2 126.594L407.414 90.7004L427.479 157.2L462.749 90.1666" stroke="#DB0032" stroke-width="18.668" stroke-linecap="round" stroke-linejoin="round"/>
<path d="M47.9482 25.0898C54.5598 46.3901 63.6183 92.3326 46.9587 105.703" stroke="#DB0032" stroke-width="18.668" stroke-linecap="round" stroke-linejoin="round"/>
<path d="M605.058 176.727C605.272 171.793 601.581 167.506 596.609 167.036C591.639 166.567 587.21 170.087 586.496 174.974L586.44 175.449L583.267 209.043L544.702 205.334C539.57 204.841 535.011 208.6 534.517 213.731C534.023 218.862 537.783 223.423 542.915 223.916L581.511 227.627L578.31 261.494L578.277 261.973C578.062 266.907 581.753 271.195 586.724 271.665C591.696 272.135 596.126 268.613 596.838 263.727L596.895 263.25L600.093 229.414L639.99 233.25L640.469 233.284C645.402 233.508 649.697 229.824 650.175 224.853C650.669 219.722 646.908 215.162 641.778 214.669L601.848 210.829L605.025 177.205L605.058 176.727Z" fill="#DB0032"/>
<path d="M364.803 853.333C365.017 848.399 361.326 844.111 356.356 843.642C351.384 843.172 346.955 846.693 346.242 851.579L346.185 852.056L343.011 885.647L304.447 881.939C299.316 881.446 294.756 885.205 294.262 890.336C293.769 895.468 297.529 900.029 302.66 900.522L341.256 904.233L338.055 938.1L338.022 938.579C337.808 943.513 341.498 947.8 346.469 948.271C351.441 948.74 355.871 945.219 356.583 940.333L356.64 939.856L359.838 906.019L399.735 909.856L400.215 909.89C405.147 910.113 409.443 906.429 409.921 901.458C410.414 896.327 406.654 891.767 401.522 891.274L361.595 887.433L364.771 853.811L364.803 853.333Z" fill="#DB0032"/>
<path d="M407.721 472.162C405.743 467.637 400.542 465.413 395.871 467.179C391.049 469.003 388.618 474.389 390.441 479.211L400.991 507.099L385.885 514.631L385.461 514.857C381.159 517.281 379.468 522.682 381.698 527.152C383.926 531.62 389.256 533.519 393.781 531.541L394.216 531.338L407.629 524.649L415.222 544.724C417.046 549.545 422.433 551.976 427.254 550.152C432.075 548.328 434.505 542.941 432.681 538.119L424.42 516.276L434.896 511.052L435.321 510.825C439.623 508.401 441.312 503.001 439.085 498.532C436.855 494.063 431.525 492.165 427 494.142L426.565 494.345L417.782 498.725L407.903 472.607L407.721 472.162Z" fill="#DB0032"/>
<path d="M451.546 233C447.269 230.532 441.761 231.826 439.05 236.019C436.251 240.348 437.491 246.126 441.82 248.926L517.744 298.025C522.072 300.824 527.85 299.583 530.649 295.255C533.448 290.927 532.208 285.148 527.88 282.35L451.957 233.25L451.546 233ZM468.701 201.736C464.357 199.388 458.887 200.835 456.293 205.101C453.698 209.369 454.931 214.891 459.015 217.667L459.419 217.927L535.32 264.084C539.724 266.762 545.466 265.363 548.145 260.959C550.824 256.555 549.423 250.812 545.019 248.133L469.119 201.976L468.701 201.736Z" fill="#DB0032"/>
<path d="M305.06 345.849C300.658 343.49 295.211 345.021 292.661 349.25L292.423 349.667L258.435 413.086C256 417.629 257.708 423.286 262.252 425.721C266.795 428.156 272.454 426.447 274.888 421.903L308.877 358.486L309.093 358.057C311.202 353.592 309.461 348.209 305.06 345.849ZM272.663 334.558C268.12 332.483 262.781 334.357 260.505 338.739L260.295 339.171L236.296 391.732L236.107 392.176C234.287 396.766 236.368 402.027 240.91 404.101C245.453 406.174 250.791 404.301 253.068 399.919L253.277 399.487L277.276 346.926L277.464 346.484C279.286 341.894 277.205 336.633 272.663 334.558Z" fill="#DB0032"/>
<path d="M381.23 239.173C376.866 236.745 371.396 238.19 368.78 242.378L368.536 242.792L368.11 243.54C358.852 259.509 328.662 291.638 280.449 293.297C275.297 293.474 271.265 297.795 271.442 302.947C271.62 308.098 275.94 312.132 281.092 311.955C337.505 310.014 372.801 272.711 384.318 252.803L384.849 251.868L385.072 251.442C387.251 247.011 385.594 241.6 381.23 239.173ZM417.44 202.911C415.646 201.102 413.189 200.104 410.642 200.151L332.781 201.577L332.301 201.599C327.375 201.94 323.528 206.089 323.62 211.081C323.711 216.074 327.707 220.08 332.643 220.239L333.123 220.243L401.223 218.995L399.409 287.187C399.273 292.34 403.339 296.629 408.492 296.766C413.645 296.902 417.934 292.835 418.071 287.683L420.144 209.732L420.144 209.255C420.085 206.878 419.122 204.607 417.44 202.911Z" fill="#DB0032"/>
<path d="M300.091 668.902C295.589 666.74 290.216 668.51 287.855 672.847L287.636 673.275L261.173 728.382L209.037 699.797L208.61 699.577C204.165 697.425 198.765 699.116 196.365 703.495C193.887 708.015 195.542 713.688 200.062 716.166L260.834 749.486C263.081 750.718 265.736 750.971 268.176 750.188C270.463 749.454 272.374 747.867 273.517 745.769L273.736 745.341L304.464 681.355L304.661 680.918C306.571 676.364 304.593 671.063 300.091 668.902ZM240.912 626.886C239.174 622.262 234.096 619.766 229.339 621.285C224.429 622.853 221.718 628.103 223.285 633.015L244.347 699.01L244.505 699.463C246.241 704.086 251.319 706.581 256.077 705.063C260.988 703.496 263.699 698.244 262.131 693.333L241.07 627.34L240.912 626.886Z" fill="#DB0032"/>
<mask id="mask0_96_13" style="mask-type:luminance" maskUnits="userSpaceOnUse" x="122" y="255" width="120" height="120">
<g opacity="0.1">
<path d="M158.118 255.375L237.912 283.709C240.733 284.711 242.208 287.811 241.207 290.632L212.872 370.426C211.871 373.247 208.771 374.722 205.95 373.72L126.156 345.386C123.335 344.384 121.86 341.285 122.862 338.464L151.196 258.67C152.198 255.848 155.297 254.374 158.118 255.375Z" fill="white"/>
</g>
</mask>
<g mask="url(#mask0_96_13)">
<path d="M158.118 255.373L237.912 283.708C240.733 284.709 242.208 287.809 241.207 290.63L212.872 370.424C211.871 373.245 208.771 374.72 205.95 373.718L126.156 345.384C123.335 344.382 121.86 341.283 122.862 338.462L151.196 258.668C152.198 255.847 155.297 254.372 158.118 255.373Z" stroke="#DB0032" stroke-width="37.336" stroke-linejoin="round"/>
</g>
<mask id="mask1_96_13" style="mask-type:luminance" maskUnits="userSpaceOnUse" x="79" y="98" width="86" height="86">
<g opacity="0.1">
<path d="M117.457 99.6214L162.049 129.193C164.544 130.848 165.225 134.212 163.57 136.707L133.998 181.299C132.344 183.794 128.98 184.476 126.485 182.821L81.8926 153.249C79.3975 151.594 78.7162 148.23 80.3709 145.735L109.943 101.143C111.598 98.648 114.962 97.9667 117.457 99.6214Z" fill="white"/>
</g>
</mask>
<g mask="url(#mask1_96_13)">
<path d="M117.456 99.6194L162.048 129.191C164.543 130.846 165.224 134.21 163.569 136.705L133.997 181.297C132.343 183.792 128.979 184.474 126.484 182.819L81.8916 153.247C79.3966 151.592 78.7153 148.228 80.3699 145.733L109.942 101.141C111.597 98.6461 114.961 97.9648 117.456 99.6194Z" stroke="#DB0032" stroke-width="37.336" stroke-linejoin="round"/>
</g>
<mask id="mask2_96_13" style="mask-type:luminance" maskUnits="userSpaceOnUse" x="239" y="515" width="122" height="122">
<g opacity="0.1">
<path d="M324.672 518.668L360.294 593.515C361.58 596.219 360.432 599.453 357.728 600.74L282.88 636.361C280.177 637.647 276.943 636.499 275.656 633.796L240.035 558.948C238.748 556.245 239.897 553.01 242.6 551.724L317.448 516.102C320.151 514.816 323.386 515.964 324.672 518.668Z" fill="white"/>
</g>
</mask>
<g mask="url(#mask2_96_13)">
<path d="M324.673 518.666L360.295 593.513C361.581 596.217 360.433 599.451 357.729 600.738L282.881 636.359C280.178 637.645 276.944 636.497 275.657 633.794L240.036 558.946C238.749 556.243 239.898 553.008 242.601 551.722L317.449 516.1C320.152 514.814 323.387 515.962 324.673 518.666Z" stroke="#DB0032" stroke-width="37.336" stroke-linejoin="round"/>
</g>
<path d="M20.574 446.412C3.58496 440.38 -5.29695 421.717 0.735717 404.728C6.76838 387.739 25.4312 378.857 42.4202 384.889C59.4093 390.922 68.2912 409.585 62.2585 426.574C56.2259 443.563 37.5631 452.445 20.574 446.412Z" stroke="#DB0032" stroke-width="18.668" stroke-linejoin="round"/>
<path d="M366.572 406.102C345.79 398.722 334.924 375.892 342.304 355.109C349.684 334.326 372.514 323.461 393.297 330.841C414.08 338.221 424.945 361.051 417.565 381.834C410.186 402.617 387.355 413.482 366.572 406.102Z" stroke="#DB0032" stroke-width="18.668" stroke-linejoin="round"/>
<path d="M289.597 185.74C271.038 179.15 261.335 158.763 267.925 140.204C274.515 121.645 294.903 111.942 313.462 118.532C332.02 125.123 341.723 145.51 335.133 164.069C328.543 182.628 308.156 192.33 289.597 185.74Z" stroke="#DB0032" stroke-width="18.668" stroke-linejoin="round"/>
<path d="M489.544 586.991C464.706 578.171 451.72 550.886 460.54 526.048C469.36 501.21 496.645 488.224 521.483 497.044C546.322 505.864 559.307 533.149 550.487 557.987C541.667 582.826 514.382 595.811 489.544 586.991Z" stroke="#DB0032" stroke-width="18.668" stroke-linejoin="round"/>
<path d="M174.287 88.3902C143.533 90.0684 117.241 66.4977 115.563 35.7434C113.885 4.98913 137.456 -21.3026 168.21 -22.9808C198.964 -24.6591 225.256 -1.08827 226.934 29.666C228.612 60.4203 205.042 86.712 174.287 88.3902Z" stroke="#DB0032" stroke-width="18.668" stroke-linejoin="round"/>
<path d="M342.012 709.587L405.554 703L368.078 651.263L342.012 709.587Z" stroke="#DB0032" stroke-width="18.668" stroke-linejoin="round"/>
<path d="M677.103 268.081L613.561 274.669L651.037 326.405L677.103 268.081Z" stroke="#DB0032" stroke-width="18.668" stroke-linejoin="round"/>
<path d="M452.606 453L506.84 430.851L460.542 394.957L452.606 453Z" stroke="#DB0032" stroke-width="18.668" stroke-linejoin="round"/>
<path d="M297.392 255.828C292.029 253.924 289.224 248.032 291.129 242.668C293.034 237.305 298.926 234.5 304.289 236.405C309.653 238.31 312.457 244.202 310.552 249.565C308.648 254.929 302.756 257.733 297.392 255.828Z" fill="#DB0032"/>
<path d="M90.0817 347.656C84.718 345.752 81.9139 339.86 83.8185 334.496C85.7231 329.133 91.6151 326.329 96.9787 328.233C102.342 330.138 105.146 336.03 103.242 341.393C101.337 346.757 95.4453 349.561 90.0817 347.656Z" fill="#DB0032"/>
<path d="M508.811 393.018C503.448 391.113 500.643 385.221 502.548 379.858C504.453 374.494 510.345 371.69 515.708 373.594C521.072 375.499 523.876 381.391 521.971 386.755C520.067 392.118 514.175 394.922 508.811 393.018Z" fill="#DB0032"/>
<path d="M501.171 176.356C495.808 174.451 493.004 168.559 494.908 163.195C496.813 157.832 502.705 155.028 508.069 156.932C513.432 158.837 516.236 164.729 514.332 170.093C512.427 175.456 506.535 178.26 501.171 176.356Z" fill="#DB0032"/>
<path d="M260.917 852.963C255.553 851.059 252.749 845.167 254.653 839.803C256.558 834.439 262.45 831.635 267.814 833.54C273.177 835.444 275.981 841.336 274.077 846.7C272.172 852.064 266.28 854.868 260.917 852.963Z" fill="#DB0032"/>
<path d="M321.363 766.306C323.113 771.722 320.142 777.531 314.726 779.282C309.31 781.032 303.5 778.06 301.75 772.644C300 767.228 302.972 761.419 308.387 759.669C313.803 757.918 319.613 760.89 321.363 766.306Z" fill="#DB0032"/>
<path d="M128.856 664.522C123.492 662.617 120.688 656.725 122.593 651.361C124.497 645.998 130.39 643.194 135.753 645.098C141.117 647.003 143.921 652.895 142.016 658.259C140.112 663.622 134.22 666.426 128.856 664.522Z" fill="#DB0032"/>
<path d="M41.8502 746.145C36.4866 744.24 33.6825 738.348 35.587 732.985C37.4916 727.621 43.3837 724.817 48.7473 726.721C54.1109 728.626 56.915 734.518 55.0104 739.882C53.1059 745.245 47.2138 748.049 41.8502 746.145Z" fill="#DB0032"/>
<path d="M192.15 601.457C186.786 599.553 183.982 593.661 185.887 588.297C187.791 582.933 193.683 580.129 199.047 582.034C204.411 583.938 207.215 589.83 205.31 595.194C203.406 600.558 197.514 603.362 192.15 601.457Z" fill="#DB0032"/>
<path d="M412.372 652.475C407.008 650.57 404.204 644.678 406.109 639.315C408.013 633.951 413.905 631.147 419.269 633.051C424.632 634.956 427.437 640.848 425.532 646.212C423.627 651.575 417.735 654.379 412.372 652.475Z" fill="#DB0032"/>
<path d="M150.335 474.436C144.971 472.531 142.167 466.639 144.071 461.276C145.976 455.912 151.868 453.108 157.232 455.012C162.595 456.917 165.399 462.809 163.495 468.173C161.59 473.536 155.698 476.34 150.335 474.436Z" fill="#DB0032"/>
</g>
</g>
<defs>
<clipPath id="clip0_96_13">
<rect width="687" height="949" fill="white"/>
</clipPath>
</defs>
</svg>
