<svg width="196" height="730" viewBox="0 0 196 730" fill="none" xmlns="http://www.w3.org/2000/svg">
<g clip-path="url(#clip0_1145_2910)">
<path d="M154.756 441.626C25.826 326.089 0.973047 218.112 11.548 191.265" stroke="#7367FF" stroke-width="22.793" stroke-linecap="round" stroke-linejoin="round"/>
<path d="M-9.2813 326.513C-18.7053 357.711 -3.3703 390.831 31.8917 402.178" stroke="#47A58B" stroke-width="22.793" stroke-linecap="round" stroke-linejoin="round"/>
<path d="M25.9648 137.065C26.3958 103.995 23.2278 73.1679 60.9078 30.1006" stroke="#83C7E8" stroke-width="22.793" stroke-linecap="round" stroke-linejoin="round"/>
<path d="M-343.266 492.842C-266.701 461.214 -198.726 554.712 -158.543 605.393C-118.359 656.075 -24.426 799.53 81.772 651.23" stroke="#FBC760" stroke-width="22.793" stroke-linecap="round" stroke-linejoin="round"/>
<path d="M-280.844 443.059C-183.082 477.298 -128.879 536.297 -113.157 581.306C-93.2383 638.327 -45.8422 666.536 -10.5482 656.421C65.8268 634.533 70.6738 534.311 -15.2922 495.759C-101.259 457.207 -96.2702 513.965 -262.51 351.391" stroke="#F98BB0" stroke-width="22.793" stroke-linecap="round" stroke-linejoin="round"/>
<path d="M122.256 611.627C129.517 574.396 126.37 506.556 0.0752869 442.395C-157.794 362.194 -264.095 309.769 -264.095 229.597" stroke="#47A58B" stroke-width="22.793" stroke-linecap="round" stroke-linejoin="round"/>
<path d="M-59.9486 593.691C-51.4766 611.033 -23.6286 615.118 -13.6696 597.704C-1.22065 575.937 1.79036 532.1 -83.9316 524.42" stroke="#7367FF" stroke-width="22.793" stroke-linecap="round" stroke-linejoin="round"/>
<path d="M183.292 122.69C160.724 115.446 145.478 93.1509 99.4117 112.908C53.3467 132.665 63.6337 218.6 116.311 292.111C132.131 314.187 145.672 331.254 157.863 344.914" stroke="#E95942" stroke-width="22.793" stroke-linecap="round" stroke-linejoin="round"/>
<path d="M-235.306 65.9338C-205.923 238.071 -154.887 286.729 -122.283 312C-89.6787 337.27 -36.9587 322.652 -30.0157 244.265C-26.6197 205.919 -32.7637 115.385 -20.9537 60.3838C-17.6527 45.0124 -14.0857 29.7155 -10.8757 14.6265M-127.734 54.9338C-129.478 39.3014 -132.493 25.9584 -136.445 14.6265" stroke="#F98BB0" stroke-width="22.793" stroke-linecap="round" stroke-linejoin="round"/>
</g>
<defs>
<clipPath id="clip0_1145_2910">
<rect width="196" height="730" fill="white"/>
</clipPath>
</defs>
</svg>
