<svg width="141" height="122" viewBox="0 0 141 122" fill="none" xmlns="http://www.w3.org/2000/svg">
<g filter="url(#filter0_d_5878_7424)">
<path d="M119.974 102.758C117.992 104.741 114.519 106.742 105 106.742C88.3583 106.723 82.8043 100.521 60.7456 96.0465C56.6047 95.2027 50.6779 94.0055 42.5923 93.3186C27.9519 92.0626 23.4381 95.183 18.5907 91.6505C11.9377 86.7834 12.3106 75.5186 12.5265 68.8068C13.0171 53.6954 19.5523 53.0674 18.6692 39.84C18.3159 34.5019 16.9029 29.2424 18.2767 20.6465C19.2579 14.4646 20.7102 12.6983 21.6718 11.8152C25.3614 8.40041 31.3471 9.18542 39.2756 10.8339C51.0311 13.2675 56.8991 14.4842 65.279 17.8794C97.3662 30.8713 121.623 19.0373 127.452 31.2834C129.453 35.5028 128.531 41.0175 127.295 48.2003C125.725 57.4634 123.114 57.9148 122.428 65.2546C121.584 74.3018 125.352 75.6167 124.999 86.2732C124.822 91.4935 124.508 98.2642 119.974 102.758Z" fill="#97C6FF"/>
<path d="M28.8467 4.87921C32.3377 4.85023 36.2506 5.56281 40.1963 6.38312L40.1973 6.38214C51.9227 8.80944 58.1737 10.0949 66.9863 13.6653H66.9854C82.1882 19.8209 95.5353 20.1203 106.295 20.3157C111.515 20.4106 116.641 20.4734 120.797 21.4163C125.065 22.3849 129.04 24.4445 131.34 28.8919L131.557 29.3294L131.56 29.3343L131.817 29.9114C133.043 32.8052 133.272 35.8749 133.129 38.8489C132.978 41.9859 132.381 45.4534 131.775 48.972C130.904 54.1045 129.706 56.9061 128.711 59.2347C127.844 61.2653 127.232 62.7041 126.954 65.678C126.611 69.3588 127.16 71.303 127.902 73.9193C128.744 76.8857 129.742 80.4053 129.542 86.4241V86.4271C129.377 91.3122 129.187 100.012 123.188 105.972L123.189 105.973C120.024 109.139 115.157 111.288 105 111.288H104.995C95.9767 111.278 89.8977 109.56 83.4434 107.37C77.109 105.222 70.5222 102.669 59.8418 100.502L59.8379 100.501C55.7407 99.6663 50.0221 98.5128 42.207 97.8489L42.2041 97.848C35.2639 97.2526 30.8323 97.6917 27.1504 97.8792C23.5868 98.0607 19.9411 98.0869 16.2686 95.5755L15.9131 95.3245L15.9062 95.3196C11.1599 91.8473 9.28453 86.3818 8.49805 81.6683C7.70098 76.891 7.87653 71.9529 7.98242 68.6605V68.6595L8.0127 67.8821C8.38091 59.9695 10.3273 55.5762 11.9336 51.8265C13.3929 48.4199 14.5056 45.727 14.1328 40.1429V40.14C13.8309 35.5777 12.3058 29.1981 13.7871 19.929C14.8569 13.1929 16.5995 10.308 18.584 8.4798V8.47882C21.5674 5.71762 25.2706 4.90896 28.8467 4.87921Z" stroke="white" stroke-width="9.09276"/>
</g>
<defs>
<filter id="filter0_d_5878_7424" x="0.310878" y="0.332397" width="140.433" height="121.564" filterUnits="userSpaceOnUse" color-interpolation-filters="sRGB">
<feFlood flood-opacity="0" result="BackgroundImageFix"/>
<feColorMatrix in="SourceAlpha" type="matrix" values="0 0 0 0 0 0 0 0 0 0 0 0 0 0 0 0 0 0 127 0" result="hardAlpha"/>
<feOffset dy="3.03092"/>
<feGaussianBlur stdDeviation="1.51546"/>
<feComposite in2="hardAlpha" operator="out"/>
<feColorMatrix type="matrix" values="0 0 0 0 0 0 0 0 0 0 0 0 0 0 0 0 0 0 0.1 0"/>
<feBlend mode="normal" in2="BackgroundImageFix" result="effect1_dropShadow_5878_7424"/>
<feBlend mode="normal" in="SourceGraphic" in2="effect1_dropShadow_5878_7424" result="shape"/>
</filter>
</defs>
</svg>
