<svg width="143" height="124" viewBox="0 0 143 124" fill="none" xmlns="http://www.w3.org/2000/svg">
<g filter="url(#filter0_d_103_198)">
<path d="M115.497 9.25805C122.43 8.64752 138.665 46.9137 126.032 75.3678C120.966 86.7822 112.266 94.3564 111.803 94.7592C103.591 101.786 95.3743 104.352 90.9237 105.699C77.9052 109.624 66.819 108.387 61.9206 107.576C55.2107 106.477 35.4976 102.094 23.1013 85.4171C15.3389 74.9576 10.7551 60.8916 14.138 58.3225C15.9452 56.9372 19.1718 59.5496 26.9494 62.8001C26.9494 62.8001 36.9378 66.9672 50.3773 69.2071C54.4934 69.8974 58.8738 69.85 63.3083 69.2253C69.1941 68.3643 75.1863 66.4315 80.8251 63.6646C82.6631 62.7551 84.4617 61.7621 86.2001 60.6852C86.7025 60.3865 87.2054 60.0671 87.6876 59.7473C92.907 56.3307 97.6052 52.2002 101.324 47.5315C115.709 29.5069 110.55 9.68542 115.497 9.25805Z" fill="#EBC964"/>
<path d="M8.47674 62.3542C8.42728 61.1429 8.50106 59.8266 8.85681 58.5629C9.21403 57.2941 9.94047 55.8017 11.3884 54.7021L11.3893 54.7031C13.0937 53.4049 14.9848 53.2616 16.4772 53.4836C17.8036 53.6809 19.0969 54.2022 20.1433 54.6648C21.2269 55.1438 22.545 55.7938 23.8804 56.4317C25.2713 57.096 26.8558 57.8338 28.7025 58.6055C28.7045 58.6063 28.7074 58.6074 28.7103 58.6086C28.7232 58.614 28.7458 58.6228 28.7771 58.6355C28.8403 58.6612 28.9407 58.7019 29.0763 58.7555C29.3478 58.8628 29.7607 59.023 30.3025 59.2242C31.3871 59.6269 32.9856 60.1926 34.9956 60.8286C39.0229 62.103 44.6667 63.646 51.1251 64.7224L51.129 64.7235C54.6945 65.3215 58.5905 65.2969 62.6503 64.727L63.659 64.5677C68.709 63.7163 73.8825 62.006 78.8092 59.59L79.4503 59.2682C80.7289 58.6174 81.9811 57.9245 83.1995 57.1906L83.8055 56.8202L83.8411 56.7985L83.8768 56.7778C84.0901 56.651 84.3062 56.5172 84.5234 56.38L85.1745 55.9588L85.1864 55.9512L85.1973 55.9436C89.7647 52.9539 93.8481 49.4135 97.1235 45.4887L97.7672 44.6991L97.7702 44.6953L98.3654 43.9329C104.388 36.0358 106.419 27.7883 107.457 21.0986C107.727 19.3566 107.927 17.7483 108.122 16.2254C108.311 14.7518 108.505 13.2765 108.759 11.9983C108.998 10.795 109.372 9.29541 110.13 7.99548C110.996 6.51093 112.596 4.94777 115.098 4.72887L115.37 4.71049C118.166 4.58028 120.351 6.26591 121.613 7.48242C123.109 8.9244 124.508 10.8686 125.773 13.0399C128.326 17.4207 130.751 23.4437 132.506 30.2843C135.994 43.8874 137.07 61.7089 130.187 77.2122L130.188 77.2122C124.707 89.5605 115.386 97.6689 114.786 98.1903L114.758 98.2131C105.806 105.874 96.8395 108.659 92.2414 110.051L92.2365 110.052C78.2941 114.255 66.435 112.932 61.1784 112.062C54.194 110.917 32.9497 106.287 19.4528 88.1294L19.4509 88.1264L18.6784 87.0621C14.8723 81.6911 11.8526 75.5916 10.1215 70.3321C9.20491 67.5471 8.57574 64.7774 8.47674 62.3542Z" stroke="white" stroke-width="9.09276"/>
</g>
<defs>
<filter id="filter0_d_103_198" x="0.886074" y="0.15625" width="141.942" height="123.419" filterUnits="userSpaceOnUse" color-interpolation-filters="sRGB">
<feFlood flood-opacity="0" result="BackgroundImageFix"/>
<feColorMatrix in="SourceAlpha" type="matrix" values="0 0 0 0 0 0 0 0 0 0 0 0 0 0 0 0 0 0 127 0" result="hardAlpha"/>
<feOffset dy="3.03092"/>
<feGaussianBlur stdDeviation="1.51546"/>
<feComposite in2="hardAlpha" operator="out"/>
<feColorMatrix type="matrix" values="0 0 0 0 0 0 0 0 0 0 0 0 0 0 0 0 0 0 0.1 0"/>
<feBlend mode="normal" in2="BackgroundImageFix" result="effect1_dropShadow_103_198"/>
<feBlend mode="normal" in="SourceGraphic" in2="effect1_dropShadow_103_198" result="shape"/>
</filter>
</defs>
</svg>
