<svg width="125" height="142" viewBox="0 0 125 142" fill="none" xmlns="http://www.w3.org/2000/svg">
<g filter="url(#filter0_d_5878_7421)">
<path d="M112.304 110.592C113.068 117.51 75.1714 134.59 46.4441 122.591C34.9202 117.779 27.155 109.249 26.742 108.795C19.5343 100.741 16.7876 92.5831 15.3419 88.1635C11.1289 75.2353 12.1202 64.1244 12.8224 59.2091C13.7724 52.4765 17.7169 32.6711 34.1148 19.908C44.3996 11.9156 58.3605 7.02104 61.004 10.346C62.429 12.1221 59.8887 15.4058 56.8116 23.2537C56.8116 23.2537 52.867 33.3319 50.9257 46.8178C50.3268 50.9483 50.4713 55.3265 51.1942 59.7461C52.1855 65.6113 54.2507 71.5592 57.142 77.1353C58.092 78.9527 59.1246 80.7287 60.2398 82.4429C60.5496 82.9385 60.88 83.4342 61.2105 83.9092C64.742 89.0516 68.9757 93.657 73.7257 97.2711C92.0649 111.253 111.767 105.656 112.304 110.592Z" fill="#EBC964"/>
<path d="M56.8477 4.77563C58.0576 4.69932 59.3752 4.74389 60.6465 5.07153C61.9228 5.40053 63.431 6.09369 64.5625 7.51685L64.5615 7.51782C65.8972 9.19303 66.0824 11.0805 65.8936 12.5774C65.7257 13.9079 65.2332 15.2124 64.7939 16.2688C64.3391 17.3627 63.7184 18.6949 63.1104 20.0442C62.477 21.4495 61.7746 23.05 61.0439 24.9133C61.0432 24.9153 61.0422 24.9182 61.041 24.9211C61.036 24.9342 61.0276 24.957 61.0156 24.9885C60.9913 25.0523 60.9529 25.1536 60.9023 25.2903C60.8011 25.5641 60.6501 25.9805 60.4609 26.5266C60.0824 27.6199 59.5523 29.2305 58.9609 31.2542C57.7762 35.3087 56.3587 40.9853 55.4258 47.4661L55.4248 47.47C54.906 51.0479 55.017 54.9423 55.6768 58.9885L55.8584 59.9934C56.8216 65.0233 58.6462 70.1576 61.1709 75.0295L61.5068 75.6633C62.1858 76.9272 62.9063 78.1637 63.667 79.3655L64.0508 79.9631L64.0732 79.9983L64.0947 80.0334C64.2263 80.2439 64.3648 80.457 64.5068 80.6711L64.9424 81.3127L64.9502 81.3245L64.958 81.3352C68.0483 85.8351 71.6783 89.839 75.6748 93.0266L76.4785 93.6526L76.4824 93.6555L77.2578 94.2336C85.2865 100.079 93.577 101.927 100.288 102.817C102.036 103.048 103.648 103.212 105.175 103.373C106.652 103.529 108.132 103.691 109.415 103.916C110.623 104.128 112.131 104.469 113.447 105.198C114.951 106.031 116.548 107.596 116.822 110.093H116.823C117.146 113.013 115.441 115.337 114.215 116.667C112.806 118.195 110.894 119.636 108.751 120.949C104.428 123.599 98.4601 126.157 91.6602 128.063C78.1377 131.852 60.3445 133.323 44.6924 126.785V126.786C32.2257 121.581 23.9127 112.442 23.3779 111.854L23.3545 111.826C15.9877 103.594 12.9063 95.2552 11.3193 90.4827L11.0205 89.5774L11.0195 89.5725C6.5075 75.7268 7.56782 63.8412 8.32129 58.5667C9.31095 51.5585 13.4687 30.2168 31.3223 16.3206L31.3252 16.3186L32.3721 15.5227C37.6574 11.5984 43.6884 8.44416 48.9082 6.59692C51.6722 5.61877 54.4273 4.92834 56.8477 4.77563Z" stroke="white" stroke-width="9.09276"/>
</g>
<defs>
<filter id="filter0_d_5878_7421" x="0.0667377" y="0.197449" width="124.374" height="141.708" filterUnits="userSpaceOnUse" color-interpolation-filters="sRGB">
<feFlood flood-opacity="0" result="BackgroundImageFix"/>
<feColorMatrix in="SourceAlpha" type="matrix" values="0 0 0 0 0 0 0 0 0 0 0 0 0 0 0 0 0 0 127 0" result="hardAlpha"/>
<feOffset dy="3.03092"/>
<feGaussianBlur stdDeviation="1.51546"/>
<feComposite in2="hardAlpha" operator="out"/>
<feColorMatrix type="matrix" values="0 0 0 0 0 0 0 0 0 0 0 0 0 0 0 0 0 0 0.1 0"/>
<feBlend mode="normal" in2="BackgroundImageFix" result="effect1_dropShadow_5878_7421"/>
<feBlend mode="normal" in="SourceGraphic" in2="effect1_dropShadow_5878_7421" result="shape"/>
</filter>
</defs>
</svg>
