<svg width="141" height="114" viewBox="0 0 141 114" fill="none" xmlns="http://www.w3.org/2000/svg">
<g filter="url(#filter0_d_5878_7428)">
<path d="M52.9207 34.0435C52.9207 34.0435 55.5898 23.3282 50.0162 16.8519C44.4427 10.3756 42.2054 9.04105 36.1805 9.92418C30.1555 10.8073 23.4633 12.1615 19.656 17.2836C15.8488 22.4058 11.178 34.6912 12.5321 49.7633C13.8862 64.8355 15.2011 73.7649 23.4633 79.7899C31.7255 85.8148 54.9421 95.6274 63.852 96.5302C72.7815 97.4133 78.5905 100.318 87.9517 97.6488C97.3326 94.9798 110.501 81.5758 116.958 70.4287C123.414 59.2816 129.91 36.9481 127.889 28.9214C125.887 20.8947 124.533 19.1088 117.39 17.3229C110.246 15.537 100.688 17.735 95.9981 22.4254C91.3076 27.1159 87.2845 34.7108 87.2845 34.7108C87.2845 34.7108 95.3308 19.0891 83.0454 13.0642C70.7601 7.03928 55.8253 18.8536 52.9207 34.0435Z" fill="#DFED44"/>
<path d="M36.1592 5.33807C39.3366 4.9313 42.3183 5.02899 45.3457 6.58514C48.2459 8.07599 50.7202 10.7001 53.4619 13.8859L53.8105 14.3049C54.6403 15.3344 55.315 16.4205 55.8633 17.5285C57.6348 15.3855 59.6329 13.492 61.79 11.9221C68.3685 7.13442 76.9776 5.02541 85.0469 8.9826L85.4209 9.1701C89.2399 11.142 91.7154 13.9802 93.0811 17.2238C93.258 17.6441 93.4124 18.067 93.5498 18.4894C96.6039 15.7761 100.672 13.978 104.73 13.0207C109.173 11.9729 114.095 11.813 118.492 12.9123L119.179 13.0881C122.589 13.9836 125.66 15.1592 127.971 17.7678C130.288 20.3846 131.324 23.909 132.297 27.8107H132.298C133.016 30.6609 132.897 34.2498 132.453 37.7912C131.994 41.4572 131.117 45.5676 129.988 49.7023C127.815 57.6636 124.588 66.1406 121.219 72.1349L120.892 72.7072C117.423 78.6956 112.239 85.1617 106.705 90.4924C101.287 95.7111 94.9884 100.374 89.1963 102.022L89.1953 102.021C83.7615 103.57 79.3124 103.489 75.1338 102.927C73.1282 102.657 71.1197 102.266 69.2529 101.926C67.3365 101.577 65.4465 101.257 63.4043 101.055L63.3936 101.054V101.053C58.1948 100.526 49.6021 97.5908 41.6631 94.2766C33.8935 91.033 25.882 87.0603 21.2246 83.7785L20.7842 83.4631C11.2386 76.502 9.51671 66.2233 8.25293 52.8801L8.00391 50.1701C6.56005 34.0992 11.4684 20.6775 16.0068 14.5715L16.248 14.2551C21.3511 7.69879 29.8044 6.26397 35.5215 5.42596L36.1592 5.33807Z" stroke="white" stroke-width="9.09276"/>
</g>
<defs>
<filter id="filter0_d_5878_7428" x="0.170253" y="0.587219" width="140.218" height="113.318" filterUnits="userSpaceOnUse" color-interpolation-filters="sRGB">
<feFlood flood-opacity="0" result="BackgroundImageFix"/>
<feColorMatrix in="SourceAlpha" type="matrix" values="0 0 0 0 0 0 0 0 0 0 0 0 0 0 0 0 0 0 127 0" result="hardAlpha"/>
<feOffset dy="3.03092"/>
<feGaussianBlur stdDeviation="1.51546"/>
<feComposite in2="hardAlpha" operator="out"/>
<feColorMatrix type="matrix" values="0 0 0 0 0 0 0 0 0 0 0 0 0 0 0 0 0 0 0.1 0"/>
<feBlend mode="normal" in2="BackgroundImageFix" result="effect1_dropShadow_5878_7428"/>
<feBlend mode="normal" in="SourceGraphic" in2="effect1_dropShadow_5878_7428" result="shape"/>
</filter>
</defs>
</svg>
