<svg width="158" height="132" viewBox="0 0 158 132" fill="none" xmlns="http://www.w3.org/2000/svg">
<g filter="url(#filter0_d_5878_7425)">
<path d="M30.5016 115.44C30.5016 115.44 29.4835 111.016 26.407 100.797C23.3305 90.5773 15.5176 66.0246 15.5176 66.0246C15.5176 66.0246 18.2399 65.4273 19.6122 64.2108C20.9844 63.0163 25.0569 62.3306 25.0569 62.3306L35.9685 100.111C35.9685 100.111 32.228 56.8671 30.8557 49.3906C29.4835 41.8921 28.1334 28.6204 28.1334 28.6204H34.5962C34.5962 28.6204 38.6908 57.5528 40.0409 61.3131C41.4132 65.0513 46.1718 97.3901 46.1718 97.3901C46.1718 97.3901 47.1899 46.6699 47.876 37.8221C48.5621 28.9743 47.876 11.9422 47.876 11.9422H57.0833C57.0833 11.9422 59.1196 26.9172 59.4737 37.1364C59.8278 47.3556 61.8641 82.747 62.8822 88.8741C62.8822 88.8741 68.681 39.5032 70.3853 32.3586C72.0895 25.2139 72.4215 11.9422 72.4215 11.9422L78.7737 13.3136C78.7737 13.3136 77.8662 26.9393 77.1801 35.7871C76.494 44.6349 75.8079 86.8612 75.8079 86.8612C75.8079 86.8612 82.2707 60.2956 85.0152 49.7446C87.7597 39.1935 92.5183 16.4325 92.5183 16.4325L102.035 19.1089C102.035 19.1089 99.6451 36.8046 98.627 42.2681C97.6089 47.7096 92.8281 74.607 92.1641 78.6991C91.478 82.7912 91.146 88.2326 91.146 88.2326L112.615 26.4969L118.746 28.6425C118.746 28.6425 114.319 42.9317 112.947 48.3953C111.575 53.8367 106.816 69.8512 106.13 73.5895C105.444 77.3277 102.39 91.9708 102.39 91.9708C102.39 91.9708 121.136 51.116 124.191 42.2681C127.267 33.4203 127.267 33.4203 127.267 33.4203L131.362 34.4378C131.362 34.4378 128.639 50.4303 124.213 60.3177C119.786 70.183 111.619 95.3772 111.619 95.3772C111.619 95.3772 133.088 63.7241 134.792 59.3002C136.497 54.8763 141.255 46.7142 141.255 46.7142L144.332 50.8063C144.332 50.8063 133.774 78.0355 131.052 84.1626C128.329 90.2897 115.05 115.484 115.05 115.484C83.5101 115.948 72.3772 115.749 69.7877 115.329C69.4557 115.285 66.7776 114.82 63.0371 114.489C63.0371 114.489 61.687 114.356 60.2926 114.267C56.7735 114.024 45.6185 114.378 30.5016 115.44Z" fill="#C6025F"/>
<path d="M14.5283 61.5867L9.67383 62.6522L11.1855 67.4031V67.4041C11.1858 67.4048 11.1861 67.4058 11.1865 67.407C11.1875 67.41 11.1886 67.4149 11.1904 67.4207C11.1942 67.4325 11.2006 67.4501 11.208 67.4734C11.2228 67.5201 11.2445 67.5896 11.2734 67.6805C11.3313 67.8625 11.4167 68.1311 11.5264 68.4764C11.7458 69.1669 12.0632 70.1648 12.4531 71.3943C13.2331 73.8541 14.3047 77.2404 15.4727 80.9451C17.8117 88.3648 20.5253 97.0304 22.0537 102.107C23.5797 107.176 24.5906 110.792 25.2168 113.128C25.5299 114.295 25.7468 115.143 25.8838 115.691C25.9522 115.965 26.0007 116.165 26.0312 116.292C26.0465 116.355 26.0569 116.401 26.0635 116.429C26.0667 116.442 26.0691 116.452 26.0703 116.457L26.0713 116.462L26.9424 120.247L30.8203 119.974C46.0077 118.908 56.8347 118.585 59.9795 118.803L60.0049 118.805C60.6554 118.846 61.3043 118.898 61.7959 118.94C62.0403 118.961 62.243 118.98 62.3828 118.993C62.4523 118.999 62.5062 119.005 62.542 119.009C62.5599 119.01 62.5736 119.012 62.582 119.013C62.5861 119.013 62.5891 119.012 62.5908 119.013L62.5928 119.013L62.6357 119.017C66.0104 119.317 68.3378 119.709 69.0596 119.816V119.817C70.7811 120.097 74.6183 120.242 81.5342 120.285C88.6311 120.33 99.3361 120.262 115.116 120.03L117.813 119.99L119.071 117.604L115.05 115.484L119.071 117.603L119.072 117.602C119.073 117.602 119.074 117.601 119.074 117.599C119.076 117.596 119.078 117.591 119.081 117.585C119.088 117.572 119.098 117.554 119.11 117.53C119.136 117.482 119.174 117.41 119.223 117.317C119.321 117.13 119.465 116.856 119.649 116.505C120.019 115.802 120.549 114.792 121.194 113.561C122.484 111.1 124.232 107.753 126.066 104.213C129.696 97.2071 133.777 89.2281 135.207 86.0086C136.618 82.832 139.982 74.3786 142.943 66.8514C144.435 63.0589 145.842 59.4588 146.875 56.8074C147.392 55.4818 147.816 54.3933 148.11 53.6356C148.258 53.2567 148.373 52.9601 148.451 52.7586C148.49 52.6581 148.52 52.581 148.54 52.5291C148.55 52.5031 148.557 52.4828 148.562 52.4695C148.565 52.4631 148.567 52.4582 148.568 52.4549C148.569 52.4532 148.57 52.4518 148.57 52.451V52.45L149.484 50.0936L147.966 48.074L144.889 43.9822L140.775 38.5106L137.327 44.4246V44.4256L137.326 44.4266C137.325 44.428 137.324 44.4301 137.322 44.4324C137.319 44.4372 137.316 44.4443 137.311 44.4529C137.301 44.4702 137.286 44.4951 137.268 44.5272C137.23 44.5916 137.176 44.6856 137.107 44.8055C136.969 45.0452 136.771 45.3901 136.529 45.8172C136.046 46.6703 135.383 47.8559 134.664 49.1854C133.265 51.7724 131.519 55.1508 130.55 57.6658C130.546 57.674 130.525 57.7262 130.474 57.8328C130.416 57.9531 130.337 58.1112 130.231 58.3104C130.02 58.7107 129.735 59.22 129.378 59.8338C129.343 59.8935 129.306 59.9532 129.271 60.0145C131.233 55.0731 132.786 49.3195 133.872 44.7127C134.505 42.0284 134.995 39.6632 135.328 37.9666C135.495 37.1174 135.623 36.4328 135.709 35.9578C135.752 35.7204 135.785 35.535 135.808 35.407C135.819 35.3431 135.828 35.2932 135.834 35.2586C135.837 35.2416 135.839 35.2282 135.841 35.2186C135.842 35.2138 135.842 35.2097 135.843 35.2068C135.843 35.2054 135.843 35.2039 135.843 35.2029L135.844 35.202L131.361 34.4383L135.844 35.201L136.552 31.0428L132.458 30.0252L128.363 29.0086L124.336 28.0076L122.973 31.9276V31.9295H122.972V31.9315L122.971 31.9324V31.9344L122.97 31.9354V31.9373L122.969 31.9383V31.9402H122.968V31.9432H122.967V31.9451L122.966 31.9461V31.949L122.965 31.95V31.951L122.964 31.952V31.9539L122.963 31.9549V31.9568L122.962 31.9588V31.9598L122.961 31.9608V31.9617L122.96 31.9637V31.9647L122.959 31.9666V31.9676L122.958 31.9695V31.9705L122.957 31.9725V31.9734L122.956 31.9754V31.9764L122.954 31.9803V31.9822L122.953 31.9832L122.952 31.9852V31.9871L122.95 31.991V31.993L122.948 31.9969V31.9988L122.947 32.0018L122.944 32.0076V32.0106L122.942 32.0145L122.941 32.0174L122.94 32.0193L122.938 32.0252V32.0272L122.936 32.0359L122.935 32.0379L122.931 32.0496C122.93 32.0506 122.929 32.0516 122.929 32.0526L122.928 32.0555C122.927 32.0565 122.927 32.0583 122.927 32.0594L122.925 32.0652C122.924 32.0663 122.924 32.0681 122.924 32.0692C122.923 32.0701 122.923 32.0711 122.923 32.0721C122.922 32.0731 122.921 32.0739 122.921 32.075C122.921 32.0761 122.92 32.0778 122.92 32.0789C122.92 32.0799 122.919 32.0809 122.919 32.0818C122.919 32.083 122.918 32.0846 122.918 32.0858C122.918 32.0869 122.916 32.0885 122.916 32.0897C122.916 32.0906 122.915 32.0916 122.915 32.0926L122.913 32.1004C122.913 32.1017 122.912 32.103 122.911 32.1043C122.911 32.1055 122.911 32.107 122.91 32.1082C122.91 32.1095 122.909 32.1108 122.908 32.1121L122.906 32.1199C122.906 32.1212 122.905 32.1225 122.904 32.1238C122.904 32.1251 122.904 32.1265 122.903 32.1277C122.903 32.1291 122.902 32.1312 122.901 32.1326C122.901 32.1339 122.901 32.1353 122.9 32.1365C122.9 32.1378 122.899 32.1391 122.898 32.1404C122.898 32.1419 122.898 32.1439 122.897 32.1453C122.897 32.1467 122.896 32.1479 122.896 32.1492C122.895 32.1507 122.894 32.1526 122.894 32.1541C122.893 32.1556 122.893 32.1575 122.893 32.159C122.892 32.1604 122.891 32.1615 122.891 32.1629C122.89 32.1644 122.89 32.1663 122.89 32.1678L122.884 32.1824C122.883 32.184 122.883 32.1858 122.883 32.1873L122.877 32.202C122.876 32.2037 122.876 32.2061 122.875 32.2078C122.874 32.2094 122.875 32.2111 122.874 32.2127C122.873 32.2143 122.873 32.216 122.872 32.2176C122.871 32.2194 122.871 32.2217 122.87 32.2234C122.87 32.2251 122.869 32.2267 122.868 32.2283L122.864 32.2401C122.864 32.2417 122.863 32.2433 122.862 32.2449L122.853 32.2742C122.852 32.2762 122.85 32.2781 122.85 32.2801C122.849 32.2821 122.848 32.2849 122.848 32.2869L122.844 32.2986C122.843 32.3007 122.843 32.3034 122.842 32.3055C122.841 32.3075 122.84 32.3093 122.839 32.3113L122.835 32.325C122.834 32.327 122.833 32.3288 122.832 32.3309L122.828 32.3445C122.827 32.3468 122.826 32.3491 122.825 32.3514C122.824 32.3536 122.824 32.356 122.823 32.3582C122.822 32.3605 122.821 32.3627 122.82 32.3651C122.82 32.3673 122.819 32.3697 122.818 32.3719C122.818 32.3742 122.816 32.3773 122.815 32.3797C122.815 32.3819 122.814 32.3843 122.813 32.3865C122.813 32.3888 122.811 32.391 122.811 32.3934C122.81 32.3958 122.808 32.3987 122.808 32.4012C122.807 32.4034 122.806 32.4058 122.806 32.408C122.805 32.4105 122.804 32.4133 122.803 32.4158C122.802 32.4183 122.802 32.4211 122.801 32.4236L122.789 32.4549C122.788 32.4574 122.788 32.4602 122.787 32.4627L122.781 32.4783C122.78 32.481 122.779 32.4844 122.778 32.4871C122.777 32.4897 122.776 32.4923 122.775 32.4949C122.774 32.4977 122.773 32.5009 122.772 32.5037C122.772 32.5063 122.77 32.5089 122.77 32.5115L122.755 32.5555C122.754 32.5584 122.752 32.5613 122.751 32.5643L122.745 32.5818C122.744 32.5849 122.743 32.5885 122.742 32.5916C122.741 32.5946 122.739 32.5974 122.738 32.6004L122.732 32.6199C122.731 32.6229 122.73 32.6257 122.729 32.6287C122.727 32.6318 122.727 32.6353 122.726 32.6385C122.724 32.6417 122.723 32.645 122.722 32.6483C122.721 32.6514 122.72 32.6548 122.719 32.658C122.718 32.6613 122.716 32.6645 122.715 32.6678C122.714 32.6711 122.713 32.6752 122.712 32.6785C122.711 32.6817 122.709 32.6851 122.708 32.6883C122.707 32.6915 122.706 32.6948 122.705 32.6981C122.704 32.7015 122.702 32.7054 122.701 32.7088C122.7 32.7121 122.698 32.7152 122.697 32.7186C122.696 32.722 122.696 32.7258 122.694 32.7293L122.687 32.7508C122.685 32.7541 122.684 32.7572 122.683 32.7606C122.681 32.7641 122.68 32.7687 122.679 32.7723C122.678 32.7757 122.677 32.7796 122.676 32.783L122.668 32.8045C122.667 32.8082 122.665 32.8125 122.664 32.8162C122.663 32.8198 122.661 32.8234 122.66 32.827C122.659 32.8307 122.658 32.8349 122.656 32.8387C122.655 32.8423 122.654 32.8458 122.652 32.8494C122.651 32.8531 122.65 32.8574 122.648 32.8611C122.647 32.865 122.645 32.869 122.644 32.8729L122.636 32.8963C122.634 32.9003 122.633 32.905 122.632 32.909C122.63 32.9129 122.629 32.9168 122.628 32.9207C122.627 32.9247 122.624 32.9284 122.623 32.9324C122.622 32.9365 122.621 32.941 122.619 32.9451C122.618 32.9491 122.616 32.9528 122.614 32.9568L122.606 32.9822C122.605 32.9864 122.603 32.9907 122.602 32.9949C122.6 32.9991 122.599 33.0035 122.598 33.0076L122.588 33.033C122.586 33.0372 122.585 33.0415 122.584 33.0457C122.582 33.0501 122.581 33.055 122.579 33.0594C122.578 33.0637 122.576 33.0678 122.574 33.0721C122.573 33.0765 122.572 33.0813 122.57 33.0858L122.536 33.1815L122.526 33.2108C122.525 33.2153 122.523 33.2198 122.521 33.2244L122.507 33.2684C122.505 33.2733 122.503 33.2781 122.501 33.283C122.499 33.2878 122.498 33.2928 122.496 33.2977C122.494 33.3027 122.493 33.3083 122.491 33.3133C122.489 33.3182 122.487 33.323 122.485 33.3279C122.484 33.333 122.482 33.3385 122.48 33.3436C122.479 33.3486 122.476 33.3541 122.475 33.3592C122.473 33.364 122.471 33.369 122.47 33.3738C122.468 33.3789 122.466 33.3843 122.464 33.3895C122.462 33.3945 122.461 33.4 122.459 33.4051C122.457 33.4103 122.455 33.4164 122.453 33.4217C122.451 33.4268 122.45 33.4321 122.448 33.4373C122.446 33.4425 122.444 33.4477 122.442 33.4529C122.441 33.4583 122.438 33.4642 122.437 33.4695C122.435 33.4748 122.432 33.4799 122.431 33.4852C122.429 33.4905 122.428 33.4964 122.426 33.5018L122.402 33.5682C122.4 33.5738 122.398 33.5801 122.396 33.5858C122.395 33.5913 122.393 33.5968 122.391 33.6024C122.389 33.6081 122.387 33.6142 122.385 33.6199C122.383 33.6255 122.381 33.631 122.379 33.6365C122.377 33.6423 122.374 33.6483 122.372 33.6541L122.354 33.7068C122.352 33.7127 122.35 33.7186 122.348 33.7244C122.346 33.7304 122.344 33.737 122.342 33.743C122.34 33.7489 122.337 33.7546 122.335 33.7606C122.333 33.7666 122.331 33.7731 122.329 33.7791C122.327 33.7852 122.324 33.7915 122.322 33.7977C122.32 33.8037 122.319 33.8101 122.316 33.8162L122.303 33.8533C122.301 33.8594 122.299 33.8657 122.297 33.8719C122.295 33.8782 122.292 33.8851 122.29 33.8914C122.288 33.8976 122.285 33.9037 122.283 33.91L122.27 33.949C122.267 33.9551 122.266 33.9614 122.264 33.9676C122.261 33.9739 122.259 33.9808 122.257 33.9871C122.255 33.9937 122.252 34.001 122.25 34.0076C122.248 34.0141 122.245 34.0206 122.243 34.0272C122.241 34.0337 122.238 34.0401 122.235 34.0467L122.222 34.0877C122.219 34.0942 122.217 34.1007 122.215 34.1072C122.213 34.1139 122.21 34.121 122.208 34.1277C122.206 34.1345 122.203 34.1415 122.2 34.1483C122.198 34.1551 122.196 34.1628 122.193 34.1697C122.191 34.1765 122.188 34.1834 122.186 34.1902C122.183 34.197 122.181 34.2039 122.179 34.2108C122.176 34.2177 122.174 34.2252 122.172 34.2322L122.156 34.2752C122.154 34.282 122.152 34.2889 122.149 34.2957C122.147 34.3029 122.144 34.311 122.142 34.3182C122.139 34.3253 122.136 34.3325 122.134 34.3397C122.131 34.3467 122.129 34.354 122.127 34.3611C122.124 34.3685 122.122 34.3763 122.119 34.3836C122.117 34.3908 122.114 34.3979 122.111 34.4051L122.08 34.4949C122.077 34.5025 122.075 34.5108 122.072 34.5184C122.07 34.5258 122.067 34.5333 122.064 34.5408C122.062 34.5485 122.058 34.5566 122.056 34.5643L122.04 34.6111C122.037 34.6188 122.034 34.6269 122.031 34.6346L122.016 34.6815C122.013 34.6893 122.01 34.6971 122.007 34.7049C122.004 34.7129 122.001 34.7213 121.998 34.7293C121.995 34.7373 121.993 34.7457 121.99 34.7537C121.987 34.7618 121.984 34.7701 121.981 34.7781C121.979 34.7862 121.976 34.7945 121.974 34.8026L121.956 34.8514C121.953 34.8596 121.95 34.8685 121.947 34.8768C121.944 34.8849 121.941 34.893 121.938 34.9012L121.895 35.0281C121.892 35.0367 121.889 35.0459 121.886 35.0545C121.883 35.0629 121.88 35.0714 121.877 35.0799C121.874 35.0885 121.87 35.0976 121.867 35.1063C121.864 35.115 121.861 35.1239 121.858 35.1326C121.855 35.1414 121.852 35.1502 121.849 35.159C121.846 35.1677 121.843 35.1766 121.84 35.1854C121.837 35.1942 121.834 35.2038 121.831 35.2127C121.828 35.2215 121.824 35.2302 121.821 35.2391C121.818 35.2481 121.815 35.2574 121.812 35.2664C121.808 35.2754 121.806 35.2848 121.803 35.2938L121.764 35.4031C121.76 35.4124 121.758 35.4222 121.755 35.4315C121.752 35.4408 121.748 35.4504 121.745 35.4598C121.742 35.4689 121.739 35.478 121.735 35.4871C121.732 35.4965 121.728 35.5069 121.725 35.5164L121.695 35.6014C121.692 35.6109 121.689 35.6211 121.686 35.6307C121.682 35.6403 121.678 35.6503 121.675 35.66C121.671 35.6696 121.668 35.6796 121.665 35.6893C121.662 35.699 121.658 35.7088 121.654 35.7186C121.651 35.7283 121.648 35.7381 121.645 35.7479C121.641 35.7577 121.637 35.7682 121.634 35.7781C121.63 35.7878 121.627 35.7977 121.624 35.8074L121.592 35.8983C121.588 35.9082 121.586 35.9185 121.582 35.9285C121.579 35.9386 121.575 35.9487 121.571 35.9588L121.55 36.0213C121.546 36.0314 121.543 36.0414 121.539 36.0516C121.535 36.0619 121.531 36.0724 121.527 36.0828C121.524 36.0933 121.52 36.1046 121.517 36.1151L121.495 36.1776C121.491 36.1882 121.487 36.1991 121.483 36.2098L121.462 36.2742L121.438 36.3387C121.435 36.3496 121.432 36.361 121.428 36.3719C121.424 36.3827 121.42 36.3933 121.416 36.4041C121.412 36.4151 121.408 36.4263 121.404 36.4373C121.4 36.4483 121.397 36.4595 121.394 36.4705L121.37 36.5369L121.347 36.6053C121.343 36.6163 121.339 36.6274 121.335 36.6385C121.331 36.6498 121.326 36.6613 121.322 36.6727C121.318 36.684 121.315 36.6955 121.311 36.7068C121.307 36.7183 121.303 36.7305 121.299 36.742C121.295 36.7534 121.291 36.7648 121.287 36.7762C121.283 36.7878 121.278 36.7997 121.274 36.8113C121.27 36.8229 121.267 36.8349 121.263 36.8465C121.259 36.8581 121.254 36.87 121.25 36.8817C121.246 36.8932 121.242 36.9052 121.238 36.9168C121.234 36.9285 121.23 36.9402 121.226 36.952C121.221 36.9638 121.217 36.9762 121.213 36.9881C121.209 36.9997 121.205 37.0116 121.201 37.0233L121.163 37.1317C121.159 37.1438 121.155 37.1566 121.15 37.1688C121.146 37.1808 121.142 37.1928 121.138 37.2049L121.1 37.3162C121.095 37.3286 121.09 37.3409 121.086 37.3533C121.082 37.3657 121.078 37.3781 121.073 37.3904C121.069 37.403 121.064 37.4159 121.06 37.4285C121.055 37.4411 121.051 37.454 121.047 37.4666C121.042 37.4792 121.038 37.4921 121.033 37.5047C121.029 37.5173 121.025 37.5301 121.021 37.5428C121.016 37.5555 121.011 37.5681 121.007 37.5809C121.002 37.5937 120.998 37.6071 120.993 37.6199C120.989 37.6325 120.985 37.6454 120.98 37.658L120.939 37.7752C120.935 37.7883 120.93 37.8021 120.926 37.8152C120.921 37.8282 120.917 37.8413 120.912 37.8543C120.908 37.8675 120.903 37.8811 120.898 37.8943C120.894 37.9076 120.888 37.921 120.884 37.9344L120.856 38.0145C120.852 38.0279 120.847 38.042 120.842 38.0555C120.837 38.0688 120.833 38.0822 120.828 38.0955C120.823 38.1091 120.818 38.1229 120.813 38.1365C120.809 38.1501 120.805 38.1639 120.8 38.1776C120.795 38.1911 120.79 38.2049 120.785 38.2186C120.78 38.2323 120.775 38.2467 120.771 38.2606C120.766 38.2742 120.761 38.2878 120.756 38.3016C120.751 38.3154 120.747 38.3297 120.742 38.3436L120.713 38.4276C120.708 38.4416 120.703 38.4564 120.698 38.4705C120.693 38.4846 120.688 38.4984 120.683 38.5125L120.639 38.6414C120.634 38.6557 120.628 38.67 120.623 38.6844C120.618 38.6986 120.613 38.713 120.608 38.7274C120.603 38.7419 120.598 38.7567 120.593 38.7713C120.588 38.7858 120.583 38.8006 120.578 38.8152L120.547 38.9031C120.542 38.9179 120.537 38.9333 120.532 38.9481C120.527 38.9627 120.522 38.9773 120.517 38.992L120.454 39.1717C120.449 39.1868 120.443 39.2024 120.438 39.2176L120.406 39.3094C120.401 39.3246 120.395 39.34 120.39 39.3553C120.384 39.3705 120.379 39.3859 120.374 39.4012C120.369 39.4166 120.363 39.4326 120.357 39.4481C120.352 39.4633 120.347 39.4787 120.342 39.494L120.309 39.5877C120.303 39.6034 120.298 39.6198 120.293 39.6356C120.288 39.6512 120.282 39.6667 120.276 39.6824L120.21 39.8738C120.204 39.8899 120.198 39.9065 120.192 39.9227L120.159 40.0203C120.154 40.0365 120.147 40.0529 120.142 40.0692C120.136 40.0854 120.131 40.1017 120.125 40.118C120.119 40.1344 120.113 40.1513 120.107 40.1678C120.102 40.184 120.096 40.2003 120.091 40.2166L120.056 40.3162C120.05 40.3329 120.044 40.3503 120.038 40.367C120.032 40.3836 120.026 40.4001 120.021 40.4168L119.95 40.6199C119.944 40.637 119.939 40.6546 119.933 40.6717C119.927 40.6888 119.92 40.7062 119.914 40.7234L119.896 40.7752L119.894 40.785C119.787 41.0941 119.657 41.4465 119.51 41.8397C119.907 40.4876 120.316 39.1054 120.715 37.7781C121.351 35.6605 121.945 33.7114 122.38 32.2918C122.597 31.5823 122.774 31.0054 122.897 30.6063C122.959 30.4067 123.007 30.2513 123.039 30.1463C123.055 30.0939 123.068 30.0538 123.076 30.0272C123.08 30.0141 123.084 30.0045 123.086 29.9979C123.087 29.9945 123.087 29.9917 123.088 29.9901L123.089 29.9881L124.386 25.7996L120.248 24.3514L114.117 22.2059L109.817 20.701L108.321 25.0037L104.039 37.3162C104.425 34.7773 104.839 31.9164 105.214 29.2781C105.577 26.7166 105.91 24.3274 106.15 22.5789C106.271 21.7048 106.368 20.9903 106.436 20.494C106.469 20.2458 106.496 20.0515 106.514 19.9197C106.523 19.854 106.53 19.8033 106.534 19.7693C106.536 19.7527 106.538 19.7399 106.539 19.7313C106.54 19.7272 106.54 19.7237 106.54 19.7215C106.54 19.7204 106.541 19.7191 106.541 19.7186V19.7176L107.07 15.8016L103.267 14.7322L93.749 12.0555L89.0645 10.7381L88.0684 15.5018V15.5027C88.0682 15.5033 88.0676 15.5044 88.0674 15.5057C88.0668 15.5082 88.0655 15.5122 88.0645 15.5174C88.0622 15.5281 88.0592 15.5448 88.0547 15.5662C88.0457 15.609 88.0322 15.6728 88.0146 15.7567C87.9794 15.9248 87.9268 16.1738 87.8594 16.494C87.7244 17.1344 87.5289 18.0618 87.2852 19.2078C86.7974 21.5005 86.1185 24.6669 85.3545 28.1609C84.059 34.0853 82.5301 40.8874 81.2754 45.9783C81.4186 41.5878 81.5657 38.0368 81.7129 36.1385L81.9795 32.619C82.2519 28.9483 82.5349 24.9328 82.7695 21.5467C82.926 19.2875 83.0613 17.305 83.1572 15.8875C83.2052 15.1789 83.2433 14.6111 83.2695 14.2205C83.2826 14.0255 83.293 13.8746 83.2998 13.7723C83.3032 13.7214 83.3059 13.6823 83.3076 13.6561C83.3085 13.643 83.3091 13.6325 83.3096 13.6258V13.616L83.5713 9.69806L79.7334 8.86993L73.3809 7.49786L68.0137 6.33966L67.877 11.8279V11.8289C67.8769 11.8298 67.876 11.8314 67.876 11.8338C67.8758 11.8388 67.8763 11.8471 67.876 11.8582C67.8754 11.8806 67.8744 11.9155 67.873 11.9617C67.8704 12.0547 67.8663 12.1949 67.8604 12.3768C67.8484 12.7406 67.829 13.2726 67.8008 13.9344C67.7443 15.2595 67.6512 17.0984 67.5068 19.1522C67.2302 23.0878 66.7811 27.5325 66.1016 30.6902L65.9629 31.3035C65.5452 33.0545 64.9275 36.9583 64.2246 41.9139C64.1777 40.9134 64.1368 39.9884 64.1016 39.1531L64.0176 36.9793C63.8344 31.6934 63.2213 25.2566 62.665 20.2088C62.3853 17.6706 62.1166 15.4559 61.918 13.8748C61.8186 13.084 61.737 12.4504 61.6797 12.0135C61.651 11.7953 61.6278 11.6261 61.6123 11.5106C61.6046 11.4527 61.5988 11.4081 61.5947 11.3777C61.5927 11.3626 61.5909 11.3506 61.5898 11.3426C61.5893 11.3389 61.5892 11.3359 61.5889 11.3338C61.5887 11.3327 61.589 11.3315 61.5889 11.3309L61.5879 11.3299L61.0537 7.3963H43.1426L43.333 12.1248V12.1268C43.3331 12.1285 43.3338 12.1318 43.334 12.1356C43.3343 12.143 43.3344 12.1545 43.335 12.1697C43.3362 12.2007 43.3385 12.2476 43.3408 12.3094C43.3456 12.4331 43.3518 12.6173 43.3604 12.8553C43.3775 13.3312 43.4022 14.023 43.4287 14.8817C43.4818 16.6002 43.5455 18.9827 43.5879 21.6365C43.6737 27.001 43.6677 33.2807 43.3428 37.4705C43.155 39.8915 42.9478 45.244 42.7432 51.7781C42.2753 49.026 41.7773 45.9146 41.3047 42.8611C40.7111 39.0266 40.1597 35.3062 39.7559 32.5428C39.5541 31.1618 39.3895 30.0206 39.2754 29.2254C39.2184 28.8281 39.1737 28.5168 39.1436 28.3055C39.1285 28.1998 39.1171 28.1184 39.1094 28.0643C39.1056 28.0375 39.1025 28.0173 39.1006 28.0037C39.0996 27.997 39.0991 27.9914 39.0986 27.9881C39.0984 27.9864 39.0978 27.985 39.0977 27.9842V27.9832L38.5449 24.074H23.1006L23.6104 29.0809V29.0838C23.6105 29.0857 23.611 29.0882 23.6113 29.0916C23.612 29.0985 23.6129 29.1088 23.6143 29.1219C23.617 29.1483 23.6217 29.1874 23.627 29.2381C23.6374 29.3395 23.6528 29.4882 23.6729 29.6795C23.713 30.0621 23.771 30.6156 23.8457 31.3026C23.995 32.6759 24.2089 34.5858 24.4658 36.7332C24.9758 40.9961 25.6703 46.3098 26.3838 50.2088V50.2117L26.5107 50.9676C26.7323 52.3839 27.0086 54.6021 27.3174 57.3397L24.3018 57.8475L24.9316 61.5867C24.302 57.8473 24.3013 57.8474 24.3008 57.8475H24.2998L24.2969 57.8484L24.2734 57.8524C24.2601 57.8547 24.2425 57.8575 24.2217 57.8611C24.1797 57.8685 24.1228 57.8785 24.0527 57.8914C23.9125 57.9173 23.7182 57.9554 23.4834 58.0037C23.0182 58.0994 22.3729 58.2428 21.666 58.4334C20.9713 58.6207 20.1436 58.8729 19.3389 59.1981C18.6132 59.4913 17.5432 59.9836 16.627 60.7811L16.6113 60.7947L16.6104 60.7957C16.6007 60.8019 16.5207 60.8598 16.3389 60.952C16.1133 61.0663 15.8349 61.1815 15.5342 61.2879C15.2397 61.3921 14.9686 61.4716 14.7744 61.5242C14.6793 61.55 14.6072 61.5678 14.5654 61.5779C14.5559 61.5802 14.5481 61.5824 14.542 61.5838L14.5381 61.5848M14.5283 61.5867L14.5273 61.5877C14.5292 61.5873 14.5335 61.5861 14.5391 61.5848H14.5381M14.5283 61.5867L14.5342 61.5858L14.5381 61.5848M14.5283 61.5867L14.5381 61.5848" stroke="white" stroke-width="9.09276"/>
</g>
<defs>
<filter id="filter0_d_5878_7425" x="0.79916" y="0.736755" width="156.868" height="130.38" filterUnits="userSpaceOnUse" color-interpolation-filters="sRGB">
<feFlood flood-opacity="0" result="BackgroundImageFix"/>
<feColorMatrix in="SourceAlpha" type="matrix" values="0 0 0 0 0 0 0 0 0 0 0 0 0 0 0 0 0 0 127 0" result="hardAlpha"/>
<feOffset dy="3.03092"/>
<feGaussianBlur stdDeviation="1.51546"/>
<feComposite in2="hardAlpha" operator="out"/>
<feColorMatrix type="matrix" values="0 0 0 0 0 0 0 0 0 0 0 0 0 0 0 0 0 0 0.1 0"/>
<feBlend mode="normal" in2="BackgroundImageFix" result="effect1_dropShadow_5878_7425"/>
<feBlend mode="normal" in="SourceGraphic" in2="effect1_dropShadow_5878_7425" result="shape"/>
</filter>
</defs>
</svg>
