<svg width="138" height="138" viewBox="0 0 138 138" fill="none" xmlns="http://www.w3.org/2000/svg">
<g filter="url(#filter0_d_5878_7422)">
<path d="M124.658 66.0102C125.201 76.3879 125.648 84.5045 121.239 93.1815C117.121 101.317 110.963 105.53 104.67 109.84C98.9202 113.782 85.2261 122.904 65.8211 122.749C59.7413 122.711 47.5428 122.614 36.0241 114.497C27.7494 108.661 23.8645 101.53 20.6983 95.7325C17.4156 89.7223 10.9279 75.6535 12.4235 57.3911C13.0063 50.2988 13.6667 42.2788 19.0667 34.0462C25.2825 24.5575 34.6256 19.7069 40.9579 16.4022C44.1241 14.7596 48.0672 12.6918 53.6615 11.2037C69.5894 6.93286 83.4779 11.1264 89.8296 13.6387C93.9476 15.2621 102.902 18.9145 110.691 27.7269C115.198 32.8094 117.509 37.6021 118.772 40.2883C123.764 50.7239 124.347 59.9228 124.658 66.0102Z" fill="#48A48C"/>
<path d="M52.4844 6.81226C69.7573 2.18087 84.7258 6.73138 91.4971 9.40894L92.3633 9.75366C97.0024 11.6179 106.106 15.6745 114.098 24.7156H114.097C119.02 30.2696 121.551 35.5132 122.873 38.3259L123.365 39.3806C128.308 50.2276 128.891 59.7547 129.198 65.7781H129.197C129.732 75.9836 130.331 85.3175 125.294 95.2341L125.295 95.2351C120.591 104.528 113.487 109.311 107.24 113.589L107.241 113.59C101.334 117.64 86.6555 127.462 65.7852 127.296V127.295C59.6273 127.256 46.1602 127.201 33.4053 118.214L33.4033 118.213C25.3439 112.528 21.0409 105.706 17.9609 100.189L16.708 97.9119C13.2199 91.5256 6.29442 76.5346 7.89258 57.0203V57.0193L8.12598 54.2722C8.71038 47.8967 9.8455 40.2537 14.709 32.4236L15.2646 31.5525C22.2068 20.9564 32.5863 15.643 38.8545 12.3718L38.8643 12.3669L40.1143 11.7195C43.1595 10.1546 47.1375 8.23641 52.4844 6.81323V6.81226Z" stroke="white" stroke-width="9.09276"/>
</g>
<defs>
<filter id="filter0_d_5878_7422" x="0.0784564" y="0.276123" width="137.048" height="137.63" filterUnits="userSpaceOnUse" color-interpolation-filters="sRGB">
<feFlood flood-opacity="0" result="BackgroundImageFix"/>
<feColorMatrix in="SourceAlpha" type="matrix" values="0 0 0 0 0 0 0 0 0 0 0 0 0 0 0 0 0 0 127 0" result="hardAlpha"/>
<feOffset dy="3.03092"/>
<feGaussianBlur stdDeviation="1.51546"/>
<feComposite in2="hardAlpha" operator="out"/>
<feColorMatrix type="matrix" values="0 0 0 0 0 0 0 0 0 0 0 0 0 0 0 0 0 0 0.1 0"/>
<feBlend mode="normal" in2="BackgroundImageFix" result="effect1_dropShadow_5878_7422"/>
<feBlend mode="normal" in="SourceGraphic" in2="effect1_dropShadow_5878_7422" result="shape"/>
</filter>
</defs>
</svg>
