<svg width="1701" height="871" viewBox="0 0 1701 871" fill="none" xmlns="http://www.w3.org/2000/svg">
<g clip-path="url(#clip0_102_4)">
<path d="M968.987 291C1084.52 419.929 1192.5 444.783 1219.35 434.208" stroke="#7367FF" stroke-width="22.793" stroke-linecap="round" stroke-linejoin="round"/>
<path d="M1084.1 455.039C1052.9 464.463 1019.78 449.128 1008.44 413.866" stroke="#47A58B" stroke-width="22.793" stroke-linecap="round" stroke-linejoin="round"/>
<path d="M9.617 -199.851C37.6745 -229.243 150.407 -318.364 160.823 -226.302C170.275 -142.748 43.3205 -80.4646 183.347 60.1978M368.021 120.947C317.084 120.947 276.75 94.9113 263.107 83.6691C158.877 -2.21683 153.642 -212.523 352.748 -296.556" stroke="#2657D4" stroke-width="22.793" stroke-linecap="round" stroke-linejoin="round"/>
<path d="M1273.55 419.791C1306.62 419.36 1337.45 422.528 1380.51 384.848" stroke="#83C7E8" stroke-width="22.793" stroke-linecap="round" stroke-linejoin="round"/>
<path d="M1451.43 626.629C1463.78 633.059 1493.63 639.549 1514.18 614.061" stroke="#47A58B" stroke-width="22.793" stroke-linecap="round" stroke-linejoin="round"/>
<path d="M574.211 813.184C577.312 837.127 519.043 1026.54 392.997 766" stroke="#47A58B" stroke-width="22.793" stroke-linecap="round" stroke-linejoin="round"/>
<path d="M1357 861.082C1348.35 828.04 1434.56 576.765 1701.1 947.601" stroke="#47A58B" stroke-width="22.793" stroke-linecap="round" stroke-linejoin="round"/>
<path d="M917.785 789.021C949.413 712.457 855.915 644.482 805.234 604.298C754.552 564.115 611.097 470.182 759.397 363.984" stroke="#FBC760" stroke-width="22.793" stroke-linecap="round" stroke-linejoin="round"/>
<path d="M967.569 726.599C933.33 628.837 874.33 574.635 829.321 558.913C772.301 538.994 744.092 491.598 754.206 456.304C776.094 379.929 876.316 375.082 914.868 461.048C953.42 547.015 896.663 542.026 1059.24 708.266" stroke="#F98BB0" stroke-width="22.793" stroke-linecap="round" stroke-linejoin="round"/>
<path d="M799.001 323.5C836.231 316.239 904.071 319.386 968.232 445.681C1048.43 603.55 1100.86 709.851 1181.03 709.851" stroke="#47A58B" stroke-width="22.793" stroke-linecap="round" stroke-linejoin="round"/>
<path d="M816.937 505.705C799.594 497.232 795.51 469.385 812.923 459.426C834.69 446.977 878.527 443.966 886.208 529.688" stroke="#7367FF" stroke-width="22.793" stroke-linecap="round" stroke-linejoin="round"/>
<path d="M1287.92 262.463C1295.17 285.031 1317.46 300.278 1297.71 346.343C1277.95 392.409 1192.01 382.122 1118.5 329.445C1096.43 313.625 1079.36 300.084 1065.7 287.893" stroke="#E95942" stroke-width="22.793" stroke-linecap="round" stroke-linejoin="round"/>
<path d="M1344.68 681.062C1172.54 651.679 1123.88 600.643 1098.61 568.039C1073.34 535.435 1087.96 482.714 1166.35 475.772C1204.69 472.376 1295.23 478.52 1350.23 466.71C1365.6 463.409 1380.9 459.842 1395.99 456.632M1355.68 573.49C1371.31 575.233 1384.65 578.248 1395.99 582.201" stroke="#F98BB0" stroke-width="22.793" stroke-linecap="round" stroke-linejoin="round"/>
<path d="M1357.66 527.657C1320.05 527.657 1232.89 525.676 1193.16 521.068C1153.42 516.46 1128.84 556.298 1206.44 587.763C1284.03 619.227 1360.39 617.491 1387.84 635.775" stroke="#F8EA00" stroke-width="22.793" stroke-linecap="round" stroke-linejoin="round"/>
<path d="M525.235 656.685C541.933 503.328 404.283 527.656 366.675 527.656C329.067 527.656 241.908 525.675 202.169 521.067C162.43 516.459 137.853 556.297 215.449 587.762C293.044 619.226 369.4 617.491 396.851 635.775" stroke="#F8EA00" stroke-width="22.793" stroke-linecap="round" stroke-linejoin="round"/>
<path d="M749.351 623.635C743.689 653.231 720.733 691.171 679.882 691.171C652.255 691.171 676.192 647.474 679.882 601.733C684.638 542.769 656.94 470.872 605.804 439.408" stroke="#7367FF" stroke-width="22.793" stroke-linecap="round" stroke-linejoin="round"/>
</g>
<defs>
<clipPath id="clip0_102_4">
<rect width="871" height="1701" fill="white" transform="translate(0 871) rotate(-90)"/>
</clipPath>
</defs>
</svg>
