<svg width="1728" height="185" viewBox="0 0 1728 185" fill="none" xmlns="http://www.w3.org/2000/svg">
<g clip-path="url(#clip0_1739_4213)">
<path d="M1684.23 88.7603C1684.26 84.2272 1685.22 57.6554 1703.73 40.4802C1722.11 23.6269 1744.1 28.3301 1750.54 30.1111C1767.99 34.8754 1779.61 47.2913 1782.97 50.9688C1805.06 75.006 1820.51 121.352 1810.94 149.607C1804.27 169.519 1784.97 181.696 1551.74 180.154C1551.74 180.154 1530.07 180.022 1470.9 171.973C1412.69 164.069 1404.61 158.668 1399.5 150.982C1379.08 120.234 1394.47 36.2707 1438.29 32.0093C1462.5 29.557 1490.71 51.9378 1507.67 86.8108C1508.01 81.7641 1508.89 74.297 1511.8 66.3746C1518.43 47.8869 1530.81 39.298 1539.47 33.5024C1544.21 30.2709 1578.95 7.90012 1623.39 23.5309C1631.9 26.5413 1643.25 30.6956 1655.48 42.0843C1673.35 58.3184 1681.19 79.194 1684.23 88.7603Z" fill="black"/>
<path d="M1261.79 79.9848C1262.8 75.2568 1292.16 45.3198 1325.03 25.4426C1357.62 5.91507 1391.38 8.46882 1401.18 9.637C1427.76 12.7388 1440.6 17.6171 1457.48 26.0507C1498.3 53.3139 1502 95.3956 1480.95 125.865C1466.22 147.329 1423.73 163.942 1055.47 187.244C1055.47 187.244 1021.26 189.42 929.451 187.35C839.117 185.328 757.003 177.008 750.551 169.542C724.742 139.678 766.705 50.5279 836.855 41.4065C875.626 36.2655 985.984 60.1331 1005.47 94.6659C1007.06 89.3702 1010.02 81.4941 1016.28 72.9269C1030.64 52.9508 1052.02 42.6765 1066.92 35.7121C1075.09 31.8378 1134.7 4.81239 1201.64 16.3575C1214.45 18.586 1221.98 20.8947 1238.91 31.4584C1263.73 46.4699 1259 70.3393 1261.79 79.9848Z" fill="black"/>
<rect x="-47" y="134" width="100" height="100" fill="#D9D9D9"/>
<path d="M742.597 107.103C742.94 102.479 763.103 73.7595 786.951 55.0161C810.615 36.6097 837.265 39.9416 845.048 41.3287C866.132 45.0248 876 49.7382 890.636 58.8357C944 92.007 948.499 107.104 918.378 157.542C908.876 178.288 877.188 193.588 591.251 207.539C591.251 207.539 564.688 208.846 492.661 204.578C421.793 200.393 426.751 194.448 421.001 186.951C398.001 156.961 422.456 70.3308 476.485 63.0693C506.337 58.9579 524.011 72.6767 542.5 107.103C543.25 101.935 545.751 102.462 549.844 94.1913C559.206 74.9005 574.969 65.3191 585.969 58.8341C591.999 55.2238 636.097 30.1029 689.553 43.0821C699.791 45.5849 705.899 48.0379 720.136 58.8357C740.962 74.1985 739.506 97.5515 742.597 107.103Z" fill="black"/>
<path d="M98.8793 102.618C98.5368 97.9943 78.3733 69.2751 54.5252 50.5317C30.8618 32.1253 4.21131 35.4572 -3.57153 36.8443C-24.6559 40.5404 -34.5232 45.2538 -49.159 54.3514C-102.524 87.5226 -107.022 102.62 -76.9014 153.058C-67.3993 173.803 -35.7112 189.103 250.225 203.055C250.225 203.055 276.788 204.362 348.816 200.094C419.683 195.909 414.726 189.964 420.476 182.466C443.476 152.476 419.021 65.8465 364.992 58.585C335.14 54.4735 317.466 68.1923 298.977 102.618C298.227 97.4505 295.725 97.9777 291.633 89.7069C282.27 70.4161 266.508 60.8347 255.508 54.3497C249.478 50.7394 205.379 25.6185 151.924 38.5977C141.686 41.1005 135.578 43.5535 121.341 54.3514C100.514 69.7141 101.971 93.0671 98.8793 102.618Z" fill="black"/>
<rect y="141" width="1728" height="44" fill="black"/>
</g>
<defs>
<clipPath id="clip0_1739_4213">
<rect width="1728" height="185" fill="white" transform="matrix(-1 0 0 -1 1728 185)"/>
</clipPath>
</defs>
</svg>
