<svg width="1728" height="177" viewBox="0 0 1728 177" fill="none" xmlns="http://www.w3.org/2000/svg">
<g clip-path="url(#clip0_95_3)">
<mask id="mask0_95_3" style="mask-type:luminance" maskUnits="userSpaceOnUse" x="0" y="0" width="1728" height="185">
<path d="M1728 0H0V185H1728V0Z" fill="white"/>
</mask>
<g mask="url(#mask0_95_3)">
<path d="M43.7685 96.24C43.7352 100.773 42.7821 127.345 24.2684 144.52C5.88764 161.373 -16.0985 156.67 -22.5413 154.889C-39.9922 150.125 -51.6105 137.709 -54.9683 134.031C-77.0607 109.994 -92.5073 63.6484 -82.9426 35.3929C-76.2751 15.4809 -56.9748 3.30454 176.263 4.8458C176.263 4.8458 197.93 4.97817 257.098 13.0269C315.313 20.9317 323.389 26.3318 328.495 34.0188C348.917 64.7664 333.533 148.729 289.709 152.991C265.501 155.443 237.293 133.062 220.325 98.1895C219.987 103.236 219.109 110.703 216.202 118.625C209.571 137.113 197.184 145.702 188.529 151.498C183.788 154.729 149.044 177.1 104.607 161.469C96.0959 158.459 84.7436 154.304 72.5166 142.916C54.6533 126.682 46.8086 105.806 43.7685 96.24Z" fill="#FFFFFF"/>
<path d="M466.211 105.014C465.206 109.742 435.839 139.679 402.971 159.556C370.381 179.084 336.626 176.53 326.819 175.362C300.244 172.26 287.405 167.382 270.525 158.948C229.704 131.685 226 89.6034 247.056 59.134C261.778 37.6695 304.274 21.0567 672.53 -2.24485C672.53 -2.24485 706.742 -4.42073 798.551 -2.35098C888.885 -0.329443 970.999 7.99089 977.451 15.457C1003.26 45.3215 961.297 134.471 891.147 143.592C852.376 148.733 742.018 124.866 722.535 90.3331C720.94 95.6288 717.983 103.505 711.723 112.072C697.358 132.048 675.977 142.322 661.082 149.287C652.91 153.161 593.301 180.187 526.366 168.641C513.548 166.413 506.019 164.104 489.091 153.541C464.276 138.529 469.004 114.66 466.211 105.014Z" fill="#FFFFFF"/>
<path d="M985.405 77.8986C985.062 82.5226 964.899 111.241 941.051 129.985C917.387 148.391 890.737 145.059 882.954 143.672C861.869 139.976 852.002 135.263 837.366 126.165C784.002 92.9943 779.503 77.8971 809.624 27.4588C819.126 6.71339 850.814 -8.58634 1136.75 -22.538C1136.75 -22.538 1163.31 -23.845 1235.34 -19.5768C1306.21 -15.3918 1301.25 -9.44703 1307 -1.94951C1330 28.0406 1305.55 114.67 1251.52 121.932C1221.67 126.043 1203.99 112.324 1185.5 77.8986C1184.75 83.0664 1182.25 82.5392 1178.16 90.81C1168.8 110.1 1153.03 119.682 1142.03 126.167C1136 129.777 1091.9 154.898 1038.45 141.919C1028.21 139.416 1022.1 136.963 1007.87 126.165C987.04 110.802 988.496 87.4498 985.405 77.8986Z" fill="#FFFFFF"/>
<path d="M1629.12 82.381C1629.47 87.005 1649.63 115.724 1673.48 134.467C1697.14 152.874 1723.79 149.542 1731.57 148.155C1752.66 144.459 1762.53 139.745 1777.16 130.648C1830.53 97.4767 1835.02 82.3795 1804.9 31.9412C1795.4 11.1958 1763.71 -4.1039 1477.78 -18.0556C1477.78 -18.0556 1451.21 -19.3626 1379.19 -15.0944C1308.32 -10.9094 1313.28 -4.96459 1307.53 2.53293C1284.53 32.523 1308.98 119.153 1363.01 126.414C1392.86 130.525 1410.54 116.807 1429.03 82.381C1429.78 87.5488 1432.28 87.0216 1436.37 95.2924C1445.73 114.583 1461.49 124.164 1472.49 130.649C1478.52 134.26 1522.62 159.381 1576.08 146.401C1586.32 143.898 1592.42 141.445 1606.66 130.648C1627.49 115.285 1626.03 91.9322 1629.12 82.381Z" fill="#FFFFFF"/>
<path d="M1728 0H0V37H1728V0Z" fill="#FFFFFF"/>
</g>
</g>
<defs>
<clipPath id="clip0_95_3">
<rect width="1728" height="177" fill="white"/>
</clipPath>
</defs>
</svg>
