<svg width="142" height="121" viewBox="0 0 142 121" fill="none" xmlns="http://www.w3.org/2000/svg">
<g filter="url(#filter0_d_5878_7431)">
<path d="M13.8084 97.5996C10.8254 93.3606 13.5336 88.3954 22.5416 64.5312C32.8448 37.2129 36.1615 25.4967 38.9875 26.0265C40.1258 26.2424 40.6164 28.3031 41.7351 36.2709C44.9732 59.1539 44.7966 69.516 46.661 69.7907C48.7216 70.0851 52.6663 57.8194 54.9036 48.0264C54.9036 48.0264 62.2434 15.8607 67.5422 10.3656C67.6599 10.2283 67.9151 10.0124 68.2291 10.0124C70.6233 10.0124 72.1541 22.965 74.5484 36.7419C77.6492 54.542 80.0827 68.4758 83.3601 68.5543C86.3628 68.6329 92.2699 40.0978 95.0763 30.5796C98.2556 19.7661 99.963 19.5502 100.414 19.5895C101.572 19.668 102.298 21.9053 102.534 22.651C107.754 38.6063 115.428 53.7373 119.824 69.9281C126.908 95.9904 131.167 99.5033 127.968 103.428C123.651 108.747 114.564 103.939 84.9694 101.956C72.6644 101.132 60.4379 101.034 50.9393 100.956C23.464 100.74 17.0858 102.251 13.8084 97.5996Z" fill="#EA8FB5"/>
<path d="M68.4619 5.47137C70.8406 5.57157 72.2363 7.18878 72.7734 7.93134C73.4163 8.82007 73.8534 9.843 74.165 10.7038C74.8082 12.4803 75.3522 14.8191 75.8486 17.3288C76.8391 22.3356 77.8656 29.2764 79.0273 35.9616L80.1631 42.4411C81.2436 48.5329 82.2418 53.8351 83.2402 57.9479C83.7758 56.1417 84.3332 54.1312 84.8975 52.0016C87.0155 44.0081 89.3044 34.0805 90.7158 29.2936C92.3345 23.7887 93.6962 20.5408 94.9199 18.5944C95.5345 17.6171 96.2941 16.6736 97.3008 15.9968C98.4806 15.2036 99.6903 14.9812 100.721 15.0534H100.722C100.731 15.054 100.741 15.0547 100.75 15.0554C100.769 15.0568 100.789 15.0586 100.809 15.0602L100.808 15.0612C102.534 15.2048 103.737 16.1079 104.401 16.7663C105.082 17.4412 105.538 18.1853 105.825 18.7194C106.381 19.7546 106.724 20.8233 106.854 21.237L107.34 22.6979C109.8 29.9885 112.754 37.1241 115.709 44.5124C118.833 52.3234 121.937 60.3653 124.21 68.735H124.211C127.707 81.5975 130.469 88.7753 132.063 93.5349C132.818 95.7868 133.489 97.9806 133.583 99.9909C133.697 102.433 132.975 104.476 131.497 106.293L131.498 106.294C129.558 108.683 127.046 109.832 124.214 110.224C121.647 110.58 118.653 110.336 115.403 109.944C108.649 109.13 99.3072 107.473 84.666 106.493H84.665C72.5127 105.679 60.4146 105.58 50.9014 105.502V105.501C37.5162 105.396 28.603 105.716 23.1074 105.483C17.5636 105.248 13.0775 104.456 10.0918 100.218L10.0908 100.216C8.83301 98.4291 8.14347 96.4428 8.10254 94.0788C8.06534 91.9287 8.57079 89.6227 9.3252 87.1149C10.8154 82.1614 13.8642 74.6454 18.2881 62.9255C23.3665 49.4604 26.8674 39.4487 29.3379 33.1706C30.5717 30.0353 31.6913 27.4488 32.7744 25.6413C33.3046 24.7565 34.0101 23.7381 34.9531 22.9391C35.8945 22.1417 37.4541 21.2698 39.4258 21.4977L39.8252 21.5583L39.835 21.5602L40.1641 21.6325C41.7752 22.0384 42.8837 23.0799 43.5654 24.1413C44.1815 25.1006 44.5287 26.1843 44.7656 27.0847C45.2517 28.9318 45.687 31.7209 46.2363 35.6335L46.5332 37.7604C47.45 44.4482 48.0723 50.0182 48.5469 54.4948C49.2534 52.0175 49.9169 49.4419 50.4717 47.0134V47.0124C50.472 47.0111 50.4721 47.0088 50.4727 47.0065C50.4737 47.002 50.4757 46.9952 50.4775 46.987C50.4814 46.9701 50.4868 46.9455 50.4941 46.9138C50.5089 46.8498 50.5304 46.7559 50.5586 46.6345C50.6151 46.3914 50.6985 46.0366 50.8057 45.5847C51.02 44.6807 51.3308 43.3866 51.7207 41.8181C52.4997 38.6842 53.5975 34.4375 54.8652 30.0065C56.1287 25.5908 57.5825 20.9179 59.0801 16.9597C59.8281 14.9826 60.6119 13.115 61.417 11.5163C62.1825 9.99623 63.1231 8.39855 64.2695 7.20966C64.8459 6.60213 66.1842 5.46649 68.2295 5.46649L68.4619 5.47137Z" stroke="white" stroke-width="9.09276"/>
</g>
<defs>
<filter id="filter0_d_5878_7431" x="0.523769" y="0.919617" width="140.648" height="120.085" filterUnits="userSpaceOnUse" color-interpolation-filters="sRGB">
<feFlood flood-opacity="0" result="BackgroundImageFix"/>
<feColorMatrix in="SourceAlpha" type="matrix" values="0 0 0 0 0 0 0 0 0 0 0 0 0 0 0 0 0 0 127 0" result="hardAlpha"/>
<feOffset dy="3.03092"/>
<feGaussianBlur stdDeviation="1.51546"/>
<feComposite in2="hardAlpha" operator="out"/>
<feColorMatrix type="matrix" values="0 0 0 0 0 0 0 0 0 0 0 0 0 0 0 0 0 0 0.1 0"/>
<feBlend mode="normal" in2="BackgroundImageFix" result="effect1_dropShadow_5878_7431"/>
<feBlend mode="normal" in="SourceGraphic" in2="effect1_dropShadow_5878_7431" result="shape"/>
</filter>
</defs>
</svg>
