<svg width="138" height="141" viewBox="0 0 138 141" fill="none" xmlns="http://www.w3.org/2000/svg">
<g filter="url(#filter0_d_5878_7427)">
<path d="M66.8595 9.62367C65.9567 9.7218 65.4269 10.8993 62.1691 23.4791C60.4028 30.2694 58.7739 36.7653 58.6169 36.7457C58.6169 36.7457 58.5973 36.7261 58.5973 36.6672C58.5973 35.7644 56.1441 33.9785 48.5492 28.6209C40.9542 23.2632 38.717 19.4559 38.2656 20.5745C37.8142 21.6932 42.2888 32.1926 43.8588 36.6672C45.4288 41.1417 49.2165 50.9543 49.2165 50.9543C49.2165 50.9543 39.8356 51.8571 34.6938 53.1916C29.552 54.5261 12.1248 56.0765 12.7921 58.7652C13.4593 61.4538 27.982 67.6946 33.1238 70.8347C38.2656 73.9747 45.625 75.9765 45.625 75.9765C45.625 75.9765 35.7928 85.5732 31.7697 90.9505C27.7465 96.3082 20.8188 106.808 23.2719 105.924C25.7251 105.041 59.0094 92.0691 66.8399 87.8301C66.8399 87.8301 69.0771 108.829 70.1958 115.973C71.3144 123.116 71.5303 128.258 74.6703 124.47C77.8104 120.683 83.3839 100.351 85.3857 96.0923C87.3875 91.8532 91.4106 80.2351 91.4106 80.2351C91.4106 80.2351 101.694 85.5928 108.171 88.2815C114.647 90.9701 124.479 98.3296 125.362 96.3278C126.265 94.326 112.625 75.9961 109.505 70.8543C106.385 65.7125 98.1224 53.8785 98.1224 53.8785C98.1224 53.8785 114.215 30.8778 116.668 23.4987C116.845 22.9688 117.041 22.1838 116.629 21.6735C115.098 19.6914 106.856 24.1856 92.3134 30.4264C87.2697 32.5852 83.2073 34.214 80.9308 35.1168C79.5178 32.4478 77.3001 28.1695 74.6703 22.8314C69.8622 13.0188 68.508 9.42742 66.8595 9.62367Z" fill="#500D59"/>
<path d="M66.3682 5.10535C68.7993 4.83489 70.5109 6.15054 71.415 7.11414C72.2729 8.02852 72.9765 9.20654 73.5713 10.2968C74.7781 12.5088 76.4343 16.0979 78.749 20.8221L79.707 22.7567C80.9533 25.2608 82.0876 27.4842 83.0566 29.3612C84.6757 28.7024 86.5809 27.9189 88.6992 27.0233L90.5244 26.2469C97.5213 23.2441 103.575 20.4073 107.637 18.7548C109.694 17.9177 111.671 17.1984 113.348 16.8671C114.181 16.7025 115.245 16.5681 116.355 16.7196C117.511 16.8773 119.032 17.4032 120.164 18.8173H120.166C120.174 18.8271 120.181 18.8377 120.188 18.8475C120.201 18.8634 120.215 18.8783 120.228 18.8944L120.226 18.8954C121.361 20.352 121.462 21.9398 121.407 22.8514C121.351 23.7836 121.105 24.5666 120.981 24.9364C120.203 27.2775 118.511 30.4651 116.668 33.6405C114.761 36.9268 112.473 40.5643 110.289 43.9305C108.1 47.3035 105.992 50.4386 104.433 52.7284C104.154 53.1377 103.89 53.5186 103.648 53.871C104.417 54.984 105.375 56.3741 106.399 57.8768C108.845 61.464 111.759 65.8058 113.392 68.496L113.7 68.993C115.382 71.6526 119.108 76.8743 122.714 82.2294C124.566 84.9796 126.358 87.729 127.642 89.954C128.274 91.0501 128.859 92.1488 129.265 93.1219C129.463 93.5982 129.684 94.1984 129.818 94.8427C129.91 95.2814 130.179 96.671 129.521 98.162L129.521 98.163C129.52 98.166 129.518 98.1687 129.517 98.1718C129.513 98.18 129.511 98.1889 129.507 98.1971L129.505 98.1962C128.283 100.919 125.626 101.258 124.45 101.21C123.303 101.163 122.245 100.797 121.553 100.525C120.059 99.9387 118.278 98.963 116.612 98.0135C113.2 96.0682 109.775 93.9621 106.979 92.7177L106.428 92.4803C103.04 91.0741 98.7354 89.0047 95.3428 87.3231C94.8645 87.086 94.4032 86.8536 93.9619 86.6327C93.7872 87.1162 93.6074 87.6204 93.4189 88.1356C92.1769 91.5319 90.6014 95.6954 89.4971 98.0341L89.4961 98.0331C89.1341 98.8058 88.5004 100.586 87.6221 103.225C86.821 105.633 85.7547 108.946 84.7666 111.9C83.743 114.961 82.657 118.089 81.6133 120.716C80.719 122.967 79.6338 125.45 78.416 127.061L78.1699 127.372C77.6447 128.005 76.9797 128.705 76.1631 129.256C75.3546 129.801 73.9733 130.477 72.2295 130.255C70.4052 130.022 69.2131 128.945 68.5625 128.098C67.947 127.295 67.5927 126.429 67.376 125.799C66.939 124.528 66.6601 122.974 66.4355 121.559C66.3169 120.812 66.2 120.01 66.082 119.2C65.9626 118.381 65.8397 117.541 65.7041 116.676C65.1271 112.991 64.2773 105.854 63.5811 99.7362C63.3767 97.9405 63.1837 96.2212 63.0137 94.6864C57.9317 96.9544 51.1006 99.7805 44.7432 102.35C36.3427 105.746 28.3935 108.847 25.6533 109.888L24.8115 110.202C24.3442 110.37 22.9784 110.81 21.3877 110.241C19.3141 109.499 18.4975 107.721 18.29 106.542C18.1166 105.556 18.2774 104.718 18.3652 104.329C18.4722 103.855 18.624 103.418 18.7627 103.061C19.2856 101.718 20.2307 100.029 21.2031 98.4227C23.2221 95.0886 26.0451 91.0019 28.1289 88.2264L28.5586 87.6639C30.7848 84.7958 34.1644 81.1633 36.9326 78.2919C37.0542 78.1658 37.1752 78.0406 37.2949 77.9169C35.1871 77.0657 32.8445 75.9914 30.7539 74.7147C28.3384 73.2396 23.8367 71.1088 19.166 68.6552C16.9652 67.499 14.7594 66.2825 13.0254 65.1395C12.1663 64.5733 11.295 63.9427 10.5654 63.2704C10.044 62.7898 8.95603 61.7317 8.46875 60.1776L8.37988 59.8602C7.58471 56.6562 9.89125 54.6783 10.6855 54.1102C11.6688 53.407 12.8331 52.9495 13.7617 52.6376C15.7197 51.9798 18.2781 51.4454 20.7539 50.9969C23.2731 50.5406 25.9904 50.1254 28.291 49.7577C30.7009 49.3725 32.5198 49.0587 33.5518 48.7909L34.1006 48.6532C36.7643 48.0068 40.1376 47.4873 42.8828 47.12C42.8805 47.1139 42.8783 47.1075 42.876 47.1014C42.02 44.8457 41.0416 42.2439 40.2656 40.1141L39.5684 38.1727C38.8022 35.989 37.3796 32.4773 36.0527 28.9725C35.419 27.2985 34.8128 25.6379 34.3906 24.2938C34.1832 23.6333 33.9858 22.9414 33.8574 22.3124C33.7943 22.0031 33.7245 21.5997 33.6982 21.163C33.6808 20.8725 33.6276 19.9193 34.0498 18.8729L34.1426 18.6571C34.3873 18.1232 34.8354 17.3913 35.6455 16.7841C36.6638 16.0208 37.8183 15.7791 38.8115 15.8417C40.3489 15.9386 41.4372 16.7619 41.6582 16.9218C42.3649 17.4327 43.2284 18.2743 43.8545 18.8671C45.3544 20.287 47.631 22.4097 51.1699 24.9061C53.1435 26.2983 54.8054 27.4739 56.1816 28.4677C56.6656 26.5947 57.2056 24.5001 57.7676 22.3397L58.8682 18.1346C59.8629 14.3844 60.5584 11.9469 61.1025 10.3798C61.4416 9.40339 61.8661 8.31869 62.4961 7.43054C62.8532 6.92722 63.3794 6.3348 64.1455 5.86218C64.9355 5.37485 65.7102 5.1829 66.3223 5.11121V5.10925C66.3336 5.1079 66.3451 5.10761 66.3564 5.10632C66.3604 5.10589 66.3642 5.1048 66.3682 5.10437V5.10535Z" stroke="white" stroke-width="9.09276"/>
</g>
<defs>
<filter id="filter0_d_5878_7427" x="0.625331" y="0.519897" width="136.904" height="140.387" filterUnits="userSpaceOnUse" color-interpolation-filters="sRGB">
<feFlood flood-opacity="0" result="BackgroundImageFix"/>
<feColorMatrix in="SourceAlpha" type="matrix" values="0 0 0 0 0 0 0 0 0 0 0 0 0 0 0 0 0 0 127 0" result="hardAlpha"/>
<feOffset dy="3.03092"/>
<feGaussianBlur stdDeviation="1.51546"/>
<feComposite in2="hardAlpha" operator="out"/>
<feColorMatrix type="matrix" values="0 0 0 0 0 0 0 0 0 0 0 0 0 0 0 0 0 0 0.1 0"/>
<feBlend mode="normal" in2="BackgroundImageFix" result="effect1_dropShadow_5878_7427"/>
<feBlend mode="normal" in="SourceGraphic" in2="effect1_dropShadow_5878_7427" result="shape"/>
</filter>
</defs>
</svg>
