<svg width="143" height="137" viewBox="0 0 143 137" fill="none" xmlns="http://www.w3.org/2000/svg">
    <g flter="url(#filter0_d_103_134)">
        <path d="M89.6959 120.978C90.5503 120.671 90.7887 119.402 90.9995 106.409C91.1208 99.3934 91.1778 92.6966 91.335 92.6787C91.335 92.6787 91.3587 92.6932 91.3725 92.7504C91.5847 93.6279 94.3888 94.7874 103.03 98.2106C111.671 101.634 114.74 104.809 114.916 103.615C115.092 102.422 108.276 93.2678 105.698 89.2874C103.121 85.3071 97.1338 76.6591 97.1338 76.6591C97.1338 76.6591 106.04 73.5775 110.724 71.0722C115.409 68.5669 131.984 62.9652 130.703 60.5086C129.423 58.052 113.84 55.3982 108.105 53.5542C102.369 51.7102 94.7454 51.4937 94.7454 51.4937C94.7454 51.4937 102.048 39.8554 104.695 33.6833C107.346 27.5304 111.613 15.6971 109.436 17.1319C107.259 18.5667 77.9546 38.9964 71.3394 44.9566C71.3394 44.9566 64.2308 25.0712 61.465 18.3904C58.6992 11.7097 57.2812 6.76255 55.1191 11.182C52.9569 15.6014 52.3166 36.6735 51.3715 41.2832C50.4217 45.874 49.241 58.1121 49.241 58.1121C49.241 58.1121 37.9865 55.3207 31.0597 54.229C24.133 53.1373 12.8468 48.2941 12.4588 50.4473C12.0516 52.6052 29.6161 67.2172 33.8573 71.4818C38.0985 75.7465 48.9099 85.3079 48.9099 85.3079C48.9099 85.3079 38.6721 111.446 38.0214 119.195C37.9742 119.751 37.9679 120.56 38.4884 120.96C40.4421 122.527 47.3979 116.222 60.0667 106.739C64.462 103.455 68.0279 100.917 70.0286 99.5049C72.0292 101.767 75.19 105.405 79.0004 109.975C85.9795 118.384 88.1396 121.556 89.6959 120.978Z" fill="#500D59"/>
        <path d="M91.2351 125.255C88.9356 126.089 86.9628 125.212 85.8575 124.488C84.8088 123.801 83.8481 122.821 83.0138 121.901C81.3211 120.034 78.8679 116.935 75.508 112.887L74.1222 111.231C72.3224 109.09 70.6975 107.196 69.3146 105.599C67.8956 106.62 66.2279 107.829 64.3793 109.197L62.7876 110.381C56.6921 114.943 51.4743 119.123 47.9148 121.684C46.1117 122.981 44.3596 124.144 42.8072 124.861C42.0362 125.216 41.0332 125.597 39.9183 125.711C38.7577 125.829 37.1559 125.675 35.7234 124.567L35.7215 124.567C35.7116 124.559 35.7025 124.551 35.6926 124.543C35.6766 124.53 35.6595 124.519 35.6436 124.506L35.6453 124.505C34.1993 123.356 33.7281 121.836 33.5672 120.937C33.4027 120.018 33.4582 119.199 33.4912 118.811C33.6982 116.352 34.5936 112.856 35.6387 109.337C36.7204 105.694 38.089 101.621 39.4213 97.836C40.7562 94.0433 42.0689 90.5006 43.0466 87.9084C43.2214 87.4451 43.3885 87.0129 43.5404 86.6136C42.5317 85.7123 41.2742 84.5861 39.9252 83.3663C36.7048 80.4542 32.8527 76.9186 30.6337 74.6873C28.6037 72.6461 23.4265 68.1772 18.3456 63.5288C15.8992 61.2907 13.5116 59.0392 11.7408 57.1783C10.8684 56.2615 10.0413 55.331 9.41882 54.4803C9.11417 54.064 8.75798 53.5326 8.47631 52.9379C8.28451 52.5329 7.69589 51.2455 7.9859 49.6415L7.98472 49.6408C7.98532 49.6375 7.98681 49.6344 7.9874 49.6311C7.98902 49.6223 7.98926 49.613 7.99093 49.6041L7.99306 49.6046C8.54104 46.6711 11.0442 45.7173 12.1981 45.4876C13.3239 45.2636 14.4385 45.3707 15.1753 45.4723C16.7651 45.6914 18.7257 46.2213 20.5676 46.7528C24.5933 47.9146 28.6754 49.2508 31.7672 49.7382C35.39 50.3091 40.0608 51.3091 43.7535 52.1464C44.2742 52.2645 44.7771 52.382 45.258 52.4931C45.3142 51.9821 45.3705 51.4497 45.4326 50.9047C45.8419 47.3116 46.395 42.8945 46.9189 40.3618L46.9201 40.3626C47.0904 39.5264 47.2882 37.6476 47.5216 34.8752C47.7345 32.3466 47.9928 28.8765 48.2589 25.7723C48.5347 22.5566 48.8554 19.2616 49.2527 16.4628C49.5931 14.0647 50.0643 11.3959 50.8694 9.54351L51.0357 9.18383C51.3973 8.4447 51.8793 7.60799 52.5437 6.88125C53.2015 6.16175 54.3853 5.17988 56.1324 4.98595C57.9602 4.78312 59.372 5.54995 60.2036 6.22118C60.9904 6.85623 61.5383 7.61511 61.8971 8.17686C62.6204 9.30936 63.2567 10.7546 63.8072 12.0765C64.0983 12.7753 64.4003 13.5277 64.7052 14.2867L65.6657 16.6517C67.0924 20.0977 69.5953 26.8354 71.7095 32.6181C72.3301 34.3155 72.9215 35.9413 73.4475 37.3932C77.8543 33.9946 83.8301 29.6425 89.4057 25.6508C97.8253 19.623 105.763 14.1081 106.935 13.3359C107.349 13.0626 108.574 12.3142 110.253 12.4934C112.443 12.7272 113.655 14.264 114.133 15.3612C114.534 16.2792 114.574 17.131 114.58 17.5299C114.588 18.0157 114.543 18.4765 114.492 18.8553C114.299 20.284 113.778 22.1481 113.21 23.9376C112.031 27.6527 110.247 32.2883 108.873 35.4757L108.588 36.1234C107.098 39.4343 104.666 43.7593 102.65 47.2007C102.562 47.3518 102.474 47.5019 102.386 47.6503C104.635 47.9824 107.165 48.4762 109.497 49.2259C112.191 50.0922 117.067 51.1056 122.184 52.3931C124.595 52.9998 127.025 53.664 128.979 54.3675C129.947 54.7161 130.942 55.1242 131.809 55.6063C132.47 55.9739 133.912 56.8288 134.735 58.4075C136.26 61.335 134.483 63.7994 133.845 64.5383C133.054 65.4528 132.03 66.1711 131.2 66.6925C129.452 67.7919 127.091 68.9125 124.79 69.9301C122.448 70.9656 119.904 72.0076 117.755 72.9056C115.503 73.8462 113.808 74.5786 112.868 75.0814L112.367 75.3442C109.93 76.5983 106.773 77.8958 104.191 78.8979C104.195 78.9033 104.198 78.909 104.202 78.9144C106.018 81.5695 108.191 84.7709 109.515 86.816C110.773 88.7585 112.981 91.8377 115.094 94.9326C116.103 96.4108 117.083 97.8825 117.809 99.0897C118.166 99.683 118.52 100.309 118.793 100.89C118.927 101.176 119.089 101.552 119.217 101.97C119.303 102.249 119.578 103.163 119.414 104.279L119.374 104.51C119.262 105.087 118.998 105.904 118.354 106.684C117.543 107.665 116.478 108.171 115.498 108.344C113.981 108.611 112.729 108.066 112.477 107.963C111.67 107.632 110.633 107.017 109.885 106.588C108.093 105.56 105.382 104.032 101.355 102.437C99.1099 101.548 97.2184 100.795 95.6472 100.153C95.6168 102.087 95.584 104.25 95.5455 106.482L95.4637 110.828C95.378 114.707 95.2747 117.239 95.114 118.891C95.0138 119.919 94.8561 121.073 94.4524 122.085C94.2236 122.658 93.8513 123.357 93.2177 123.997C92.5643 124.656 91.8563 125.025 91.2783 125.238L91.2788 125.24C91.268 125.244 91.257 125.247 91.2462 125.251C91.2425 125.252 91.239 125.254 91.2353 125.255L91.2351 125.255Z" stroke="white" stroke-width="9.09276"/>
    </g>
    <defs>
        <filter id="filter0_d_103_134" x="0.328456" y="0.40625" width="142.604" height="135.945" filterUnits="userSpaceOnUse" color-interpolation-filters="sRGB">
            <feFlood flood-opacity="0" result="BackgroundImageFix"/>
            <feColorMatrix in="SourceAlpha" type="matrix" values="0 0 0 0 0 0 0 0 0 0 0 0 0 0 0 0 0 0 127 0" result="hardAlpha"/>
            <feOffset dy="3.03092"/>
            <feGaussianBlur stdDeviation="1.51546"/>
            <feComposite in2="hardAlpha" operator="out"/>
            <feColorMatrix type="matrix" values="0 0 0 0 0 0 0 0 0 0 0 0 0 0 0 0 0 0 0.1 0"/>
            <feBlend mode="normal" in2="BackgroundImageFix" result="effect1_dropShadow_103_134"/>
            <feBlend mode="normal" in="SourceGraphic" in2="effect1_dropShadow_103_134" result="shape"/>
        </filter>
    </defs>
</svg>
