<svg width="64" height="64" viewBox="0 0 64 64" fill="none" xmlns="http://www.w3.org/2000/svg">
<rect width="64" height="64" rx="32" fill="#F7F7F7"/>
<path d="M44.4219 14.9302C47.0081 14.9302 49.1052 17.0266 49.1055 19.6128V44.4575C49.1055 47.0439 47.0083 49.1411 44.4219 49.1411H19.5771C16.991 49.1409 14.8945 47.0437 14.8945 44.4575V19.6128C14.8948 17.0268 16.9911 14.9304 19.5771 14.9302H44.4219ZM37.5859 25.1938C36.3319 25.1938 34.4404 25.4744 33.4434 27.3931C32.7786 26.0637 31.4218 25.1938 29.4277 25.1938C28.5337 25.1939 27.835 25.4678 27.1943 25.9165V28.5239C27.3931 28.428 27.6945 28.3384 28.0986 28.3384C29.7877 28.3384 30.2979 29.7437 30.2979 31.5356V38.5933H34.0811V31.563C34.0811 29.7985 34.5913 28.3424 36.2529 28.3423C37.9146 28.3423 38.4531 29.7468 38.4531 31.5386V38.5972H42.2627V31.4634C42.2627 28.14 41.2652 25.2007 37.582 25.2007L37.5859 25.1938ZM22.1172 38.5903H25.9268V25.1938H22.1172V38.5903Z" fill="black"/>
</svg>
