<svg width="35" height="35" viewBox="0 0 35 35" fill="none" xmlns="http://www.w3.org/2000/svg">
<path fill-rule="evenodd" clip-rule="evenodd" d="M3.2806 17.5C3.2806 9.6472 9.64655 3.28125 17.4993 3.28125C25.3521 3.28125 31.7181 9.6472 31.7181 17.5V21.5727C31.8321 21.5324 31.9548 21.5104 32.0827 21.5104C32.6867 21.5104 33.1764 22.0001 33.1764 22.6042V25.5208C33.1764 26.1249 32.6867 26.6146 32.0827 26.6146C31.9505 26.6146 31.8238 26.5911 31.7065 26.5482C31.6984 26.8405 31.6849 27.1096 31.662 27.3564C31.6032 27.9913 31.4762 28.5766 31.1623 29.1247C30.9535 29.4894 30.6907 29.82 30.3824 30.1042C29.9151 30.5348 29.3736 30.7796 28.7739 30.9613C28.2072 31.1331 27.5036 31.2719 26.67 31.4362L26.5617 31.4576C25.9925 31.5699 25.4756 31.6719 25.0455 31.7058C24.5826 31.7422 24.0609 31.7168 23.561 31.4354C23.2649 31.2688 23.0063 31.0449 22.798 30.7786C22.452 30.3359 22.3362 29.8305 22.2861 29.3652C22.2389 28.9266 22.2389 28.3856 22.2389 27.7782V20.142C22.2389 19.6259 22.2389 19.1623 22.2759 18.7815C22.3155 18.3753 22.4062 17.9362 22.6736 17.5295C22.8939 17.1944 23.1891 16.9134 23.5385 16.712C23.9689 16.464 24.4174 16.4091 24.8224 16.4064C25.1967 16.4038 25.646 16.4482 26.136 16.4965L26.2382 16.5066C27.0923 16.5908 27.8109 16.6616 28.3932 16.777C28.7922 16.856 29.1705 16.9633 29.5251 17.1333C29.3313 10.6583 24.0214 5.46875 17.4993 5.46875C10.9773 5.46875 5.66742 10.6583 5.47358 17.1333C5.8282 16.9633 6.20647 16.856 6.60554 16.777C7.18785 16.6616 7.90644 16.5908 8.76053 16.5066L8.86272 16.4965C9.35269 16.4482 9.80197 16.4038 10.1763 16.4064C10.5813 16.4091 11.0298 16.464 11.4602 16.712C11.8096 16.9134 12.1048 17.1944 12.3251 17.5295C12.5925 17.9362 12.6832 18.3753 12.7228 18.7815C12.7598 19.1623 12.7598 19.6259 12.7598 20.142V27.7782C12.7598 28.3856 12.7598 28.9266 12.7126 29.3652C12.6625 29.8305 12.5467 30.3359 12.2007 30.7786C11.9924 31.0449 11.7338 31.2688 11.4377 31.4354C10.9378 31.7168 10.4161 31.7422 9.95317 31.7058C9.52306 31.6719 9.00619 31.5699 8.43703 31.4576L8.32873 31.4362C7.49515 31.2719 6.79145 31.1331 6.22475 30.9613C5.62515 30.7796 5.0836 30.5348 4.61629 30.1042C4.30797 29.82 4.04523 29.4894 3.83641 29.1247C3.52252 28.5766 3.3955 27.9913 3.33667 27.3564C3.3138 27.1096 3.30026 26.8405 3.29223 26.5482C3.17493 26.5911 3.04821 26.6146 2.91602 26.6146C2.31195 26.6146 1.82227 26.1249 1.82227 25.5208V22.6042C1.82227 22.0001 2.31195 21.5104 2.91602 21.5104C3.04385 21.5104 3.16657 21.5324 3.2806 21.5727V17.5ZM5.4681 25.0735C5.4681 26.0238 5.46919 26.662 5.51483 27.1546C5.5588 27.6291 5.63739 27.8678 5.73472 28.0377C5.83373 28.2106 5.95684 28.3648 6.09871 28.4956C6.23276 28.6191 6.43079 28.738 6.85932 28.8679C7.30903 29.0042 7.90458 29.1229 8.80386 29.3003C9.44788 29.4273 9.83763 29.5024 10.1251 29.525C10.28 29.5372 10.3507 29.5285 10.3743 29.5236C10.4106 29.5016 10.4453 29.4717 10.4755 29.4336C10.4845 29.4159 10.5152 29.3399 10.5377 29.1309C10.5708 28.8237 10.5723 28.4026 10.5723 27.7235V20.1901C10.5723 19.6107 10.571 19.2553 10.5456 18.9935C10.5278 18.8108 10.5031 18.7445 10.4965 18.73C10.4623 18.6785 10.4202 18.639 10.3754 18.6117C10.3562 18.6066 10.296 18.5947 10.1614 18.5938C9.91658 18.5921 9.58406 18.6235 9.02722 18.6784C8.10742 18.7691 7.49579 18.8306 7.03056 18.9228C6.58473 19.0111 6.37798 19.1096 6.23902 19.2143C6.03509 19.3679 5.86087 19.5661 5.72954 19.7983C5.63553 19.9645 5.55757 20.2039 5.51407 20.6862C5.46913 21.1844 5.4681 21.8311 5.4681 22.7903V25.0735ZM29.5306 22.7903C29.5306 21.8311 29.5296 21.1844 29.4846 20.6862C29.4411 20.2039 29.3632 19.9645 29.2692 19.7983C29.1378 19.5661 28.9636 19.3679 28.7597 19.2143C28.6207 19.1096 28.414 19.0111 27.9681 18.9228C27.5029 18.8306 26.8913 18.7691 25.9715 18.6784C25.4146 18.6235 25.0821 18.5921 24.8373 18.5938C24.7027 18.5947 24.6425 18.6066 24.6233 18.6117C24.5785 18.639 24.5364 18.6785 24.5022 18.73C24.4956 18.7445 24.4709 18.8108 24.4531 18.9935C24.4277 19.2553 24.4264 19.6107 24.4264 20.1901V27.7235C24.4264 28.4026 24.4279 28.8237 24.461 29.1309C24.4835 29.3399 24.5142 29.4159 24.5232 29.4336C24.5534 29.4717 24.5881 29.5017 24.6245 29.5236C24.648 29.5285 24.7187 29.5372 24.8736 29.525C25.1611 29.5024 25.5508 29.4273 26.1948 29.3003C27.0941 29.1229 27.6897 29.0042 28.1394 28.8679C28.5679 28.738 28.7659 28.6191 28.9 28.4956C29.0419 28.3648 29.165 28.2106 29.264 28.0377C29.3613 27.8678 29.4399 27.6291 29.4839 27.1546C29.5295 26.662 29.5306 26.0238 29.5306 25.0735V22.7903Z" fill="#BD9251"/>
</svg>
