<svg width="51" height="50" viewBox="0 0 51 50" fill="none" xmlns="http://www.w3.org/2000/svg">
<path d="M13.2277 44.5592H12.6862C10.722 44.5592 9.73993 44.5592 9.12972 43.949C8.51953 43.3388 8.51953 42.3567 8.51953 40.3925V38.0759C8.51953 36.9956 8.51953 36.4556 8.79699 35.9734C9.07445 35.4909 9.49301 35.2475 10.3302 34.7606C15.8416 31.555 23.6685 29.7506 28.8927 32.8665C29.2435 33.0759 29.5593 33.3286 29.8289 33.6315C30.9916 34.9375 30.907 36.9086 29.567 38.0781C29.2839 38.325 28.9824 38.5125 28.6787 38.5775C28.9283 38.5486 29.1674 38.5154 29.3958 38.479C31.2945 38.1761 32.8883 37.1615 34.3474 36.0592L38.1124 33.2152C39.4397 32.2125 41.4097 32.2123 42.7372 33.2146C43.9324 34.1171 44.2979 35.6029 43.5422 36.814C42.6612 38.2265 41.4197 40.0334 40.2277 41.1373C39.0339 42.2429 37.2568 43.23 35.806 43.9302C34.1987 44.7061 32.4233 45.1529 30.6172 45.4454C26.9545 46.0381 23.1374 45.9477 19.5119 45.2009C17.4623 44.7786 15.3337 44.5592 13.2277 44.5592Z" fill="#B1A38B"/>
<path d="M22.8165 7.00706C23.8719 5.11352 24.3998 4.16675 25.1888 4.16675C25.9778 4.16675 26.5057 5.11352 27.5611 7.00706L27.8342 7.49694C28.1342 8.03502 28.2842 8.30406 28.518 8.48158C28.7519 8.6591 29.0432 8.725 29.6255 8.85679L30.1559 8.97677C32.2057 9.44054 33.2305 9.67244 33.4742 10.4565C33.7182 11.2406 33.0194 12.0576 31.6221 13.6917L31.2605 14.1144C30.8634 14.5788 30.6648 14.811 30.5757 15.0982C30.4863 15.3854 30.5163 15.6952 30.5763 16.3147L30.6309 16.8787C30.8421 19.0589 30.948 20.149 30.3094 20.6336C29.6711 21.1182 28.7115 20.6764 26.7923 19.7927L26.2959 19.5641C25.7505 19.313 25.4778 19.1875 25.1888 19.1875C24.8998 19.1875 24.6271 19.313 24.0817 19.5641L23.5853 19.7927C21.6661 20.6764 20.7064 21.1182 20.0681 20.6336C19.4297 20.149 19.5354 19.0589 19.7466 16.8787L19.8013 16.3147C19.8613 15.6952 19.8913 15.3854 19.802 15.0982C19.7127 14.811 19.5142 14.5788 19.1171 14.1144L18.7555 13.6917C17.3582 12.0576 16.6595 11.2406 16.9033 10.4565C17.1472 9.67244 18.172 9.44054 20.2217 8.97677L20.752 8.85679C21.3344 8.725 21.6257 8.6591 21.8596 8.48158C22.0934 8.30406 22.2434 8.03502 22.5434 7.49694L22.8165 7.00706Z" fill="#B1A38B"/>
<path d="M40.6679 16.0034C41.1958 15.0566 41.4595 14.5833 41.8541 14.5833C42.2487 14.5833 42.5125 15.0566 43.0404 16.0034L43.1768 16.2484C43.3268 16.5174 43.4018 16.6519 43.5187 16.7407C43.6356 16.8294 43.7812 16.8624 44.0725 16.9283L44.3377 16.9883C45.3625 17.2201 45.875 17.3361 45.9968 17.7281C46.1187 18.1202 45.7695 18.5287 45.0708 19.3457L44.89 19.5571C44.6914 19.7893 44.5922 19.9054 44.5475 20.049C44.5029 20.1926 44.5179 20.3475 44.5479 20.6572L44.5752 20.9393C44.6808 22.0293 44.7337 22.5743 44.4145 22.8166C44.0954 23.0589 43.6156 22.838 42.656 22.3962L42.4077 22.282C42.135 22.1564 41.9987 22.0937 41.8541 22.0937C41.7095 22.0937 41.5733 22.1564 41.3006 22.282L41.0522 22.3962C40.0927 22.838 39.6129 23.0589 39.2937 22.8166C38.9745 22.5743 39.0275 22.0293 39.1331 20.9393L39.1604 20.6572C39.1904 20.3475 39.2054 20.1926 39.1608 20.049C39.116 19.9054 39.0168 19.7893 38.8183 19.5571L38.6375 19.3457C37.9389 18.5287 37.5895 18.1202 37.7114 17.7281C37.8333 17.3361 38.3458 17.2201 39.3706 16.9883L39.6358 16.9283C39.927 16.8624 40.0727 16.8294 40.1895 16.7407C40.3064 16.6519 40.3814 16.5174 40.5314 16.2484L40.6679 16.0034Z" fill="#B1A38B"/>
<path d="M7.33596 16.0034C7.86373 15.0566 8.12762 14.5833 8.52214 14.5833C8.91666 14.5833 9.18056 15.0566 9.70833 16.0034L9.84487 16.2484C9.99485 16.5174 10.0698 16.6519 10.1867 16.7407C10.3037 16.8294 10.4493 16.8624 10.7405 16.9283L11.0057 16.9883C12.0305 17.2201 12.543 17.3361 12.6649 17.7281C12.7868 18.1202 12.4375 18.5287 11.7388 19.3457L11.558 19.5571C11.3595 19.7893 11.2602 19.9054 11.2155 20.049C11.1709 20.1926 11.1859 20.3475 11.2159 20.6572L11.2432 20.9393C11.3489 22.0293 11.4017 22.5743 11.0825 22.8166C10.7633 23.0589 10.2835 22.838 9.32396 22.3962L9.07569 22.282C8.803 22.1564 8.66666 22.0937 8.52214 22.0937C8.37762 22.0937 8.24129 22.1564 7.9686 22.282L7.72033 22.3962C6.76077 22.838 6.28098 23.0589 5.96179 22.8166C5.6426 22.5743 5.69544 22.0293 5.80106 20.9393L5.82839 20.6572C5.85841 20.3475 5.87341 20.1926 5.82875 20.049C5.7841 19.9054 5.68483 19.7893 5.48627 19.5571L5.30552 19.3457C4.60683 18.5287 4.25748 18.1202 4.37939 17.7281C4.50131 17.3361 5.01375 17.2201 6.03862 16.9883L6.30377 16.9283C6.595 16.8624 6.74062 16.8294 6.85754 16.7407C6.97446 16.6519 7.04946 16.5174 7.19941 16.2484L7.33596 16.0034Z" fill="#B1A38B"/>
</svg>
