<svg width="64" height="64" viewBox="0 0 64 64" fill="none" xmlns="http://www.w3.org/2000/svg">
<rect width="64" height="64" rx="32" fill="#F7F7F7"/>
<path d="M27.1156 46.6424H25.2417C25.0534 46.6424 24.8681 46.5951 24.7028 46.5049C24.5375 46.4148 24.3974 46.2846 24.2954 46.1264C24.1934 45.9681 24.1327 45.7868 24.1188 45.5991C24.1049 45.4113 24.1384 45.223 24.216 45.0515L28.7537 35.0377L21.9401 34.8864L19.4552 37.8972C18.9814 38.4927 18.6034 38.7581 17.639 38.7581H16.3775C16.1778 38.7646 15.9794 38.7227 15.7993 38.6362C15.6192 38.5497 15.4625 38.4211 15.3427 38.2611C15.1751 38.0352 15.0104 37.6522 15.1709 37.1059L16.5662 32.1079C16.5767 32.0706 16.5894 32.0333 16.6035 31.9966C16.6042 31.9932 16.6042 31.9896 16.6035 31.9861C16.5889 31.9495 16.5765 31.9121 16.5662 31.8742L15.1695 26.8444C15.0182 26.3087 15.1836 25.9342 15.3497 25.7139C15.4613 25.5658 15.606 25.446 15.7723 25.3641C15.9386 25.2822 16.1217 25.2404 16.3071 25.2422H17.639C18.3591 25.2422 19.0582 25.5653 19.4693 26.0869L21.9028 29.0471L28.7537 28.9457L24.2174 18.9496C24.1397 18.7781 24.1061 18.5899 24.1198 18.4021C24.1335 18.2144 24.1941 18.033 24.296 17.8747C24.3979 17.7164 24.5378 17.5862 24.703 17.4959C24.8682 17.4056 25.0534 17.3582 25.2417 17.3579H27.136C27.4003 17.3632 27.66 17.428 27.8958 17.5474C28.1316 17.6669 28.3375 17.8379 28.4982 18.0478L37.3011 28.7479L41.3679 28.6409C41.6657 28.6247 42.4907 28.6191 42.6815 28.6191C46.5715 28.6212 48.8946 29.8841 48.8946 32.0002C48.8946 32.6661 48.6285 33.9008 46.8482 34.6865C45.7972 35.1511 44.3949 35.3862 42.6801 35.3862C42.4914 35.3862 41.6685 35.3806 41.3665 35.3644L37.3004 35.256L28.4757 45.9561C28.3149 46.1651 28.1092 46.3352 27.8738 46.454C27.6383 46.5728 27.3793 46.6372 27.1156 46.6424Z" fill="black"/>
</svg>
