<svg width="35" height="35" viewBox="0 0 35 35" fill="none" xmlns="http://www.w3.org/2000/svg">
<path d="M13.1244 23.3333C13.1244 24.1387 12.4714 24.7917 11.666 24.7917C10.8606 24.7917 10.2077 24.1387 10.2077 23.3333C10.2077 22.5279 10.8606 21.875 11.666 21.875C12.4714 21.875 13.1244 22.5279 13.1244 23.3333Z" fill="#BD9251"/>
<path d="M18.9577 23.3333C18.9577 24.1387 18.3048 24.7917 17.4994 24.7917C16.6939 24.7917 16.041 24.1387 16.041 23.3333C16.041 22.5279 16.6939 21.875 17.4994 21.875C18.3048 21.875 18.9577 22.5279 18.9577 23.3333Z" fill="#BD9251"/>
<path d="M23.3327 24.7917C24.1381 24.7917 24.791 24.1387 24.791 23.3333C24.791 22.5279 24.1381 21.875 23.3327 21.875C22.5273 21.875 21.8744 22.5279 21.8744 23.3333C21.8744 24.1387 22.5273 24.7917 23.3327 24.7917Z" fill="#BD9251"/>
<path fill-rule="evenodd" clip-rule="evenodd" d="M7.6556 11.6667V13.5665C7.3248 13.5898 7.01302 13.6201 6.71971 13.6595C5.40706 13.836 4.30182 14.2135 3.42403 15.0913C2.54623 15.9691 2.16868 17.0744 1.9922 18.387C1.82221 19.6513 1.82224 21.2589 1.82227 23.2533V23.4133C1.82224 25.4077 1.82221 27.0153 1.9922 28.2796C2.16868 29.5923 2.54623 30.6975 3.42403 31.5753C4.30182 32.4531 5.40706 32.8307 6.71971 33.0071C7.98404 33.1771 9.5916 33.1771 11.586 33.1771H23.4127C25.4071 33.1771 27.0147 33.1771 28.279 33.0071C29.5916 32.8307 30.6969 32.4531 31.5747 31.5753C32.4525 30.6975 32.83 29.5923 33.0065 28.2796C33.1765 27.0153 33.1765 25.4077 33.1764 23.4133V23.2533C33.1765 21.2589 33.1765 19.6513 33.0065 18.387C32.83 17.0744 32.4525 15.9691 31.5747 15.0913C30.6969 14.2135 29.5916 13.836 28.279 13.6595C27.9857 13.6201 27.6739 13.5898 27.3431 13.5665V11.6667C27.3431 6.2301 22.9359 1.82291 17.4994 1.82291C12.0628 1.82291 7.6556 6.2301 7.6556 11.6667ZM17.4994 4.01041C13.2709 4.01041 9.8431 7.43823 9.8431 11.6667V13.4946C10.3878 13.4896 10.9682 13.4896 11.5858 13.4896H23.4127C24.0303 13.4896 24.6109 13.4896 25.1556 13.4946V11.6667C25.1556 7.43823 21.7278 4.01041 17.4994 4.01041ZM7.01119 15.8275C5.9411 15.9714 5.37444 16.2345 4.97082 16.6381C4.56721 17.0417 4.30406 17.6084 4.16019 18.6785C4.01209 19.7801 4.00977 21.24 4.00977 23.3333C4.00977 25.4266 4.01209 26.8866 4.16019 27.9881C4.30406 29.0582 4.56721 29.6249 4.97082 30.0285C5.37444 30.4321 5.9411 30.6953 7.01119 30.8392C8.11275 30.9873 9.5727 30.9896 11.666 30.9896H23.3327C25.426 30.9896 26.886 30.9873 27.9875 30.8392C29.0576 30.6953 29.6243 30.4321 30.0279 30.0285C30.4315 29.6249 30.6946 29.0582 30.8385 27.9881C30.9866 26.8866 30.9889 25.4266 30.9889 23.3333C30.9889 21.24 30.9866 19.7801 30.8385 18.6785C30.6946 17.6084 30.4315 17.0417 30.0279 16.6381C29.6243 16.2345 29.0576 15.9714 27.9875 15.8275C26.886 15.6794 25.426 15.6771 23.3327 15.6771H11.666C9.5727 15.6771 8.11275 15.6794 7.01119 15.8275Z" fill="#BD9251"/>
</svg>
