<svg width="180" height="180" viewBox="0 0 180 180" fill="none" xmlns="http://www.w3.org/2000/svg">
<rect width="180" height="180" rx="50" fill="black"/>
<g clip-path="url(#clip0_1155_10529)">
<path d="M120.064 52.6836C113.186 52.6836 102.796 54.2322 97.3203 64.7877C93.6678 57.4693 86.2285 52.6836 75.2762 52.6836C70.0118 52.6836 65.2532 54.5844 62.4204 57.9913V72.0586C62.9984 70.7448 65.1909 69.9955 67.9738 69.9955C77.2394 69.9955 80.0472 77.736 80.0472 87.5897V126.44H100.826V87.732C100.826 78.0208 103.634 69.9955 112.76 69.9955C121.886 69.9955 124.833 77.736 124.833 87.5897V126.44H145.754V87.1675C145.756 68.8715 140.282 52.6836 120.064 52.6836Z" fill="white"/>
<path d="M56.0423 64.0858V54.2322H35.1218V126.44H56.0423V87.732V64.0858Z" fill="white"/>
</g>
<defs>
<clipPath id="clip0_1155_10529">
<rect width="110.634" height="73.7561" fill="white" transform="translate(35.1218 52.6836)"/>
</clipPath>
</defs>
</svg>
