<svg width="32" height="32" viewBox="0 0 32 32" fill="none" xmlns="http://www.w3.org/2000/svg">
<rect width="32" height="32" rx="16" fill="black"/>
<g clip-path="url(#clip0_1155_10524)">
<path d="M21.3448 9.36597C20.1219 9.36597 18.2749 9.64127 17.3013 11.5178C16.652 10.2168 15.3295 9.36597 13.3824 9.36597C12.4465 9.36597 11.6005 9.70388 11.0969 10.3096V12.8104C11.1997 12.5769 11.5895 12.4436 12.0842 12.4436C13.7314 12.4436 14.2306 13.8197 14.2306 15.5715V22.4782H17.9245V15.5968C17.9245 13.8704 18.4237 12.4436 20.0461 12.4436C21.6685 12.4436 22.1925 13.8197 22.1925 15.5715V22.4782H25.9117V15.4964C25.9121 12.2438 24.9391 9.36597 21.3448 9.36597Z" fill="white"/>
<path d="M9.96309 11.3931V9.64136H6.2439V22.4782H9.96309V15.5969V11.3931Z" fill="white"/>
</g>
<defs>
<clipPath id="clip0_1155_10524">
<rect width="19.6683" height="13.1122" fill="white" transform="translate(6.2439 9.36597)"/>
</clipPath>
</defs>
</svg>
