<svg width="16" height="16" viewBox="0 0 16 16" fill="none" xmlns="http://www.w3.org/2000/svg">
<rect width="16" height="16" rx="8" fill="black"/>
<g clip-path="url(#clip0_1155_10519)">
<path d="M10.6725 4.68286C10.061 4.68286 9.13756 4.82052 8.65079 5.75878C8.32613 5.10826 7.66485 4.68286 6.69132 4.68286C6.22337 4.68286 5.80038 4.85182 5.54858 5.15466V6.40509C5.59996 6.2883 5.79485 6.2217 6.04222 6.2217C6.86583 6.2217 7.11541 6.90975 7.11541 7.78562V11.239H8.96239V7.79828C8.96239 6.93506 9.21197 6.2217 10.0232 6.2217C10.8344 6.2217 11.0964 6.90975 11.0964 7.78562V11.239H12.956V7.7481C12.9562 6.12179 12.4696 4.68286 10.6725 4.68286Z" fill="white"/>
<path d="M4.98167 5.69643V4.82056H3.12207V11.239H4.98167V7.79832V5.69643Z" fill="white"/>
</g>
<defs>
<clipPath id="clip0_1155_10519">
<rect width="9.83415" height="6.5561" fill="white" transform="translate(3.12207 4.68286)"/>
</clipPath>
</defs>
</svg>
